<svg id="rw-p32-race" class="icon icon-p32-race" xmlns="http://www.w3.org/2000/svg" xml:space="preserve" viewBox="0 0 32.87 45" preserveAspectRatio="xMidYMid meet" enable-background="new 0 0 32.87 45" role="img" aria-hidden="true" aria-labelledby=" " focusable="false" style="pointer-events: none; display: block; width: 100%; height: 100%;"><path d="m27.07,0c.93.17,1.24.85,1.46,1.67,1.42,5.29,2.85,10.57,4.28,15.85.18.66-.03.97-.71.97-.92,0-1.84-.02-2.76.12-1.67.25-3.25.79-4.77,1.51-1.91.9-3.74,1.97-5.6,2.97-2.01,1.08-4.09,1.98-6.36,2.36-.87.14-1.75.17-2.63.12-.87-.05-1.38-.53-1.63-1.46-.51-1.88-1.02-3.77-1.53-5.65-.94-3.46-1.87-6.91-2.81-10.37-.19-.7.03-1.02.76-1,.91.02,1.81.01,2.71-.12,1.66-.24,3.22-.78,4.73-1.49,1.93-.91,3.76-1.99,5.64-2.99,1.86-.99,3.76-1.85,5.84-2.26.33-.07.69-.03.99-.22h2.37Z" stroke-width="0"/><path d="m22.64,7.66c-.05,0-.1,0-.14.03-1.55.67-3.02,1.52-4.49,2.34-.17.1-.15.18-.11.34.42,1.5.83,3,1.21,4.51.08.32.16.32.41.18,1.38-.79,2.76-1.58,4.22-2.21.23-.1.24-.2.18-.42-.44-1.58-.86-3.17-1.29-4.76Z" fill="#fff" stroke-width="0"/><path d="m7.88,13.81c.45,1.66.9,3.28,1.33,4.91.07.26.23.18.37.17,1.57-.1,3.08-.44,4.55-.99.22-.08.26-.17.2-.38-.41-1.52-.82-3.03-1.23-4.55-.05-.19-.12-.27-.33-.19-1.56.61-3.17.96-4.89,1.03Z" fill="#fff" stroke-width="0"/><path d="m15.66,22.34c1.61-.7,3.08-1.57,4.58-2.41.18-.1.14-.2.09-.36-.37-1.33-.73-2.66-1.07-4-.07-.27-.15-.26-.37-.14-1.28.73-2.54,1.48-3.88,2.09-.58.27-.58.28-.42.89.35,1.3.71,2.61,1.07,3.92Z" fill="#fff" stroke-width="0"/><path d="m16.6,5.64c-1.52.86-3,1.74-4.57,2.44-.21.09-.17.23-.13.39.38,1.39.76,2.78,1.14,4.18,1.6-.7,3.09-1.57,4.6-2.42.15-.09.16-.19.13-.32-.38-1.41-.77-2.83-1.16-4.27Z" fill="#fff" stroke-width="0"/><path d="m30.16,16.26c-.39-1.45-.78-2.84-1.14-4.23-.06-.23-.14-.29-.38-.28-1.49.06-2.91.4-4.31.89-.18.06-.26.1-.2.33.38,1.34.74,2.69,1.09,4.04.05.2.13.25.34.18,1.47-.54,3-.84,4.6-.92Z" fill="#fff" stroke-width="0"/><path d="m25.97,2.12c-1.46.08-2.89.41-4.29.9-.22.08-.24.15-.18.37.36,1.26.7,2.53,1.02,3.8.08.33.18.42.52.29,1.36-.52,2.77-.79,4.22-.87.22-.01.27-.05.2-.28-.37-1.3-.73-2.61-1.06-3.92-.07-.26-.17-.34-.44-.28Z" fill="#fff" stroke-width="0"/><path d="m10.45,45c-.7,0-1.2-.42-1.4-1.2-.85-3.33-1.7-6.66-2.54-9.99C4.38,25.42,2.26,17.04.13,8.66c-.09-.35-.19-.71-.09-1.08.17-.6.7-1.02,1.31-1.05.6-.03,1.2.39,1.37,1.03.4,1.49.77,2.99,1.15,4.49,2.24,8.82,4.47,17.64,6.71,26.46.39,1.54.8,3.07,1.18,4.61.25,1.02-.35,1.88-1.3,1.88Z" stroke-width="0"/></svg>