<svg id="rw-rabbit-plays-confused" class="icon" xmlns="http://www.w3.org/2000/svg" xml:space="preserve" viewBox="0 0 992.01 976.4" preserveAspectRatio="xMidYMid meet" enable-background="new 0 0 992.01 976.4" role="img" aria-hidden="true" aria-labelledby=" " focusable="false" style="pointer-events: none; display: block; width: 100%; height: 100%;"><path d="m985.75,976.09c-11.23-18.74-22.52-37.45-32.36-56.96-6.99-13.88-13.4-28.09-16.39-43.51-.28-1.45-.22-2.97-.23-4.46-.01-15.99.49-32-.16-47.97-.61-14.89-1.34-29.87-6.8-44.11-5.88-15.34-13.72-29.44-24.5-41.93-6.46-7.48-12.74-15.13-20-21.86-10.98-10.17-22.01-20.4-35.42-27.36-7.14-3.71-14.98-5.85-23.02-6.62-3.25-.31-6.42-1.09-9.72-1.28-3.8-.22-4.83,1.68-5.3,4.53-4.43,26.63-12.53,52.09-24,76.51-.81,1.72-1.34,3.56-2.18,5.8,11.97.75,23.42,2.98,34.41,7.28,27.7,10.83,47.62,29.59,55.29,58.65,6.74,25.54.42,48.91-16.29,69.65-15.97,19.82-37.58,29.74-61.35,35.37-11.14,2.64-22.86,1.67-34.43.44-13.19-1.4-25.62-4.44-37.18-11.12-1.75-1.01-4.67-.31-6.99.02-17.98,2.59-35.9,5.83-53.96,7.62-5.85.58-8.72,4.13-12.29,6.99-13.6,10.92-28.82,17.83-45.87,21.45-11.65,2.47-23.38,2.47-34.97,1.64-14.83-1.06-29.2-4.96-41.95-13.15-3.09-1.98-6.35-1.99-9.49-1.52-12.9,1.9-25.84.68-38.75.85-21.14.26-41.82-3.15-62.47-7.6-29.63-6.38-57.43-17.39-83.96-31.64-18.38-9.87-35.45-21.83-51.57-35.16-10.74-8.88-20.75-18.47-30.29-28.54-15.46-16.31-28.58-34.46-40.46-53.51-2.25-3.61-4.24-7.39-7.09-12.38,0,2.96.03,4.52,0,6.08-.32,13.41-.56,26.83-1.07,40.24-.13,3.53.5,4.96,4.48,4.72,6.64-.4,13.32-.15,19.98-.1,5.66.04,7.59,2.02,7.6,7.66,0,26.15-.11,52.31.09,78.46.04,5.42-1.34,8.45-6.95,10.43-18.57,6.55-36.78,14.07-55.39,20.55-3.66,1.27-7.26,1.11-10.71.72-15.58-1.78-29.66,2.3-42.88,10.13-8.29,4.91-17.21,2.74-25.96,2.55-.96-.02-1.92-.57-2.86-.52-12.44.64-24.82-1.06-37.24-1.01-12.43.05-24.8-1.34-37.24-1.23-4.16.04-8.49-.58-12.75-.84-3.94-.24-6.36-4.3-4.47-7.93,6.36-12.26,12.99-24.39,19.51-36.57,5.77-10.77,11.49-21.56,17.35-32.28.73-1.33.56-2.56.55-3.82-.61-59.06,1.73-118.11,1.02-177.17-.05-3.93.73-7.72,1.86-11.45,3.42-11.23,11.99-17.88,21.42-23.61,13.13-7.98,27.6-11.87,42.7-14.13,7.17-1.08,14.43-1.62,21.5-1.58,12.78.07,25.56,2.19,37.82,6.01,4.1,1.28,3.97-.3,3.61-2.88-2.16-15.54-.91-31.16-.81-46.72.11-16.63,2.85-33.07,6.2-49.36,4.05-19.68,10.43-38.68,17.71-57.38,1.74-4.48,3.48-9.09,6.09-13.07,2.83-4.32,2.3-8.2.59-12.48-8.59-21.57-14.25-43.93-18.87-66.65-3.2-15.74-5.62-31.58-7.66-47.46-1.12-8.74-1.51-17.67-2.4-26.45-2.73-26.82-1.5-53.66-1.77-80.49-.22-21.75,1.62-43.37,3.76-65.01,1.17-11.86,2.56-23.69,4.38-35.42,2.34-15.11,5.54-30.1,9.39-44.94,4.81-18.52,10.83-36.61,19.12-53.81,7.35-15.25,16.29-29.6,29.03-41.11,12.12-10.94,26.42-16.28,42.62-13.58,10.26,1.71,19.21,7.27,26.81,14.52,16.4,15.64,26.41,35.26,34.84,55.91,6.69,16.4,11.59,33.34,15.43,50.54,2.64,11.81,4.75,23.77,6.71,35.75,2.48,15.12,3.48,30.38,5.69,45.51.71,4.84.52,9.82.96,14.75,1.64,18.19,1.12,36.47,1.14,54.72.02,12.48.04,24.96-.03,37.43-.01,2.09.11,4.12-.74,6.29-.74,1.89-.93,4.49,1.32,6.36,2.21,1.84,4.23,1.19,6.5.33,18.96-7.18,38.38-12.57,58.29-16.62,27.41-5.57,55.08-5.49,82.72-4.58,16.47.54,32.86,3.42,49.04,7.21,15.99,3.74,31.56,8.59,46.85,14.48,4.54,1.75,6.88.06,6.94-4.99.13-10.88-.74-21.68-1.9-32.5-2.76-25.78-1.48-51.37,8.14-75.67,11.95-30.18,33.53-50.77,65.21-59.31,14.55-3.92,29.49-4.03,44.63-1.6,27.88,4.49,51.71,16.97,73.55,34.25,18.68,14.77,33.51,32.89,47.4,52.01,12.23,16.85,23.98,34.03,34.34,52.04,13.87,24.11,26.34,49.04,32.27,76.47,3.18,14.72,4.31,29.72-.66,44.55-4.93,14.71-15.25,23.15-29.93,26.73-19.56,4.77-38.33.65-56.92-5.33-8.41-2.71-16.49-6.24-24.59-9.7-4.44-1.9-6.6-1.07-7.55,3.38-4.01,18.72-9.78,36.89-16.64,54.73-1.12,2.91-.78,5.23.55,7.99,11.65,24.1,20.05,49.28,25.15,75.61,2.32,12,3.91,24.02,5.06,36.19,1.63,17.26.66,34.51.54,51.74-.03,4.31.19,9.12-1.57,13.54-.84,2.1-.35,3.81,3.02,3.89,23.42.54,43.51,9.34,61.17,24.57,8.13,7.01,16.29,13.96,23.58,21.82,17.27,18.62,32.68,38.49,40.39,63.24,3.49,11.21,4.94,22.71,5.84,34.44,1.54,20.09.2,40.17.88,60.24.23,6.85,2.91,13.24,5.49,19.39,9.77,23.28,22.4,45.11,34.89,67,.28.5,1.03.73,1.56,1.09,0,3.67-.42,7.39.1,10.98.74,5.18-.97,7.14-6.1,6.01Z" stroke-width="0"/><path d="m499.5,926.16c-11.13-.73-22.41.52-33.82-.82-10.18-1.2-20.32-2.41-30.45-4.09-9.42-1.55-18.61-3.9-27.75-6.42-17.81-4.9-34.96-11.79-51.35-20.24-18.36-9.47-35.83-20.43-51.89-33.59-10.33-8.46-20.5-17.09-29.6-26.83-18.32-19.61-34.25-40.97-47.05-64.7-7.34-13.61-13.27-27.76-18.96-42.07-.67-1.69-.62-3.23-.56-4.8.28-7.58-.18-15.13.75-22.77,1.19-9.78-2.79-18.39-10.5-24.45-2.68-2.11-3.73-4.47-4.11-7.06-1.05-7.28-1.91-14.63-2.1-21.97-.32-12.96-.63-25.96.03-38.89,1.04-20.27,4.24-40.23,9.7-59.87,5.18-18.61,11.68-36.64,20.33-53.89,4.2-8.38,3.26-16.46-.18-24.72-7.67-18.45-12.89-37.62-17.02-57.14-3.39-16.01-6.11-32.11-8.04-48.38-1.81-15.3-3.09-30.61-4.07-45.98-1.75-27.58-.64-55.15-.68-82.72-.02-13.58,1.35-27.22,2.94-40.73,2.21-18.83,4.69-37.61,8.56-56.23,2.99-14.36,6.47-28.56,10.99-42.45,6.02-18.5,13.42-36.46,25.37-52.11,5.54-7.25,11.4-14.37,20.71-16.98,6.12-1.72,12.07-1.34,17.77,2.19,10.47,6.48,17.15,16.28,23.18,26.46,13.65,23.03,20.96,48.54,26.99,74.31,3.31,14.14,5.72,28.56,7.38,43.08,1.56,13.65,2.76,27.31,4.05,40.98,3.13,33.14,1.45,66.32,1.65,99.48.05,7.76-1.87,15.41,1.04,23.16,4.41,11.74,19.21,19.01,30.69,14.13,15.68-6.67,31.73-12.16,48.29-16.07,10.71-2.53,21.57-4.2,32.48-5.79,18.81-2.74,37.67-1.93,56.5-1.66,12.32.18,24.55,2.41,36.77,4.5,16.75,2.87,32.76,7.94,48.77,13.3,5.76,1.93,11.23,4.55,17.11,6.3,13.33,3.96,29.06-7.83,29.42-22.49.09-3.76.01-7.52.01-11.78,18.44,12.16,36.4,24.04,54.39,35.87,25.3,16.64,50.62,33.24,75.95,49.83.92.6,2.06.88,3.1,1.31,3.25,1.35,3.92,3.35,3.11,6.97-4.92,21.96-11.14,43.5-19.55,64.41-2.73,6.79-1.1,13.57,2.05,19.71,10.17,19.82,17.32,40.74,22.53,62.28,3.31,13.7,5.33,27.67,6.54,41.81,1.41,16.44.5,32.84.7,49.25.08,6.49-1.43,12.98-1.78,19.5-.17,3.04-2.89,2.54-3.86,2.7-18.49,3.02-35.03,10.63-50.16,21.32-6.12,4.32-11.66,9.51-17.18,14.62-9.25,8.55-19.19,16.46-25.74,27.59-3.38,5.74-6.25,11.61-7.04,18.26-.26,2.17-.86,3.02-3.15,3.5-14.43,2.97-25.83,9.89-30.34,24.92-.84,2.81-2.27,3.73-5.04,4.05-13.42,1.54-26.83,3.14-40.21,5-13.01,1.8-25.94,4.18-38.97,5.88-23.72,3.11-43.83,13.47-60.14,30.63-11.4,11.99-18.72,26.36-21.24,43.1-3.1,20.61,1.65,39.17,13.02,56.32.05.08-.1.3-.36,1.01Z" fill="#fefefe" stroke-width="0"/><path d="m780.28,779.1c21.74-.25,41.55,5.97,58.34,19.65,17.98,14.64,28.66,33.55,27.03,57.48-1.04,15.27-7.34,28.74-17.64,40.14-10.31,11.41-22.66,19.82-37.26,24.9-2.98,1.04-5.94,1.17-8.76.62-2.29-.45-4.52-.78-6.83-.78-17.34-.01-34.14-2.76-50.6-8.48-6.6-2.29-13.65.26-20.46,1.47-8.85,1.56-17.76,2.75-26.66,4-10.7,1.49-21.38,3.48-32.14,4.12-10.09.6-16.42,6.84-23.66,12.43-12.21,9.44-26.31,14.77-41.55,17.54-22.14,4.02-39.85-5.69-57.01-17.44-11.87-8.13-21.42-18.54-27.98-31.3-11.2-21.8-7.2-42.2,7.15-61.08,10.71-14.1,24.75-24.4,39.63-33.64,3.65-2.27,7.97-1.85,11.93-2.4,21.55-3.02,43.12-5.84,64.65-9.07,15.71-2.35,31.52-3.96,47.25-6.14,15.38-2.13,30.67-5.01,46.09-6.72,11.08-1.22,22.06-3.14,33.14-4.38,5.12-.57,10.2-.73,15.33-.92Z" fill="#8b8585" stroke-width="0"/><path d="m639.87,263.75c-.27-16.75,2.16-33.21,9.19-48.36,10-21.54,26.27-36.26,50.31-40.98,29.91-5.88,56.23,3.62,80.59,19.79,20.85,13.84,37.36,32.12,52.02,52.39,12.4,17.14,24.53,34.43,35.11,52.71,13.13,22.69,24.66,46.18,30.6,71.95,1.83,7.93,1.52,16.15.97,24.19-.68,10.13-9.1,16.54-20.48,16.91-17.42.56-33.55-4.52-49.32-11.06-30.17-12.51-57.56-29.91-84.58-48.04-31.43-21.09-63.06-41.89-94.77-62.54-6.8-4.43-9.17-10.53-9.61-17.97-.17-2.99-.03-5.99-.03-8.99Z" fill="#fefefe" stroke-width="0"/><path d="m98.07,874.39c-9.13-12.32-17.46-23.57-25.8-34.81-3.61-4.87-8.21-4.53-11.27.88-3,5.31-5.88,10.67-9.29,15.97-1.6-44.17,1.5-88.28.16-133.09,21.82,15.84,45.81,20.44,71.33,19.9,24.92-.52,49.5-2.07,71.37-16.74,1.32,4.82-.4,9.11-.49,13.44-.42,20.6-.27,41.22-1.23,61.79-.44,9.45-.7,18.89-.77,28.33-.02,2.44-.98,3.21-3.27,3.11-2.83-.12-5.7.26-8.49-.07-13.81-1.66-26.45,2.53-39.02,7.4-11.83,4.58-23.73,8.98-35.64,13.34-6.44,2.36-7.56,3.71-7.58,10.39,0,2.97,0,5.94,0,10.17Z" fill="#2d2e82" stroke-width="0"/><path d="m123.72,730.13c-19.52.73-37.19-2.52-53.74-10.98-5.57-2.84-10.35-6.73-14.13-11.74-4.35-5.76-3.54-13.32,1.3-18.86,10.22-11.7,24.04-16.35,38.29-20.34,9.69-2.72,19.78-3.95,29.57-3.68,20.85.56,41.07,4.89,58.92,16.69,2.85,1.88,5.91,3.64,7.93,6.52,6.3,8.98,2.75,22.29-7.66,29.44-9.37,6.44-20.11,9.16-31.02,10.86-10.06,1.57-20.24,2.93-29.47,2.09Z" fill="#9c9c9b" stroke-width="0"/><path d="m786.89,684.35c-1.5,6.91-2.53,12.95-4.14,18.83-5.55,20.28-13.26,39.75-22.13,58.82-2.46,5.29-6.03,7.7-11.46,8.16-6.78.57-13.52,1.41-20.16,2.94-1.5.34-2.39-.44-3.15-1.73-5.4-9.2-13.2-14.84-23.95-16.32-1.85-.25-3.65-.86-2.46-4.3,4.06-11.74,12.18-20.26,20.91-28.4,4.06-3.78,8.75-6.91,12.59-10.88,14.18-14.65,32.01-22.44,51.13-27.97,1.84-.53,2.93-.46,2.82.85Z" fill="#fefefe" stroke-width="0"/><path d="m16.4,949.27c2.57-7.34,6.71-13.3,10.02-19.65,7.56-14.52,15.71-28.74,23.56-43.11,4.71-8.62,9.35-17.29,13.96-25.97.56-1.05.88-2.35,2.29-2.16,1.3.17.8,1.62,1.13,2.46,10.6,26.53,21.14,53.08,31.69,79.62,1.15,2.88,2.27,5.77,3.52,8.61.96,2.17.31,3.44-1.99,2.97-10.45-2.15-21.16.39-31.61-1.83-1.44-.31-2.99-.16-4.48-.11-15.92.59-31.76-1.95-48.1-.84Z" fill="#00a099" stroke-width="0"/><path d="m179.04,935.78c0-22.9,0-45.19,0-67.47,0-1.68-.13-3.36,1.93-4.09,14.44-5.14,28.87-10.29,43.31-15.44.15-.05.33,0,.75,0,0,22.42-.02,44.86.04,67.29,0,1.97-.62,2.67-2.52,3.37-14.38,5.27-28.68,10.75-43.5,16.35Z" fill="#00a099" stroke-width="0"/><path d="m167.04,903.09c0,10.64-.12,21.29.07,31.92.06,3.29-.92,4.31-4.18,4.15-5.64-.27-11.97,1.43-16.76-.62-4.69-2-6.39-8.63-9.45-13.19-8.19-12.21-16.28-24.49-24.46-36.71-1.6-2.39-2.54-4.83-2.24-7.79.45-4.41-1.87-10.23.96-12.91,2.79-2.65,8.55-.74,12.99-.78,12.97-.09,25.94.06,38.91-.1,3.18-.04,4.3.75,4.23,4.11-.21,10.64-.08,21.28-.08,31.92Z" fill="#00a099" stroke-width="0"/><path d="m92.42,887.91c10.73,14.56,21.09,28.61,31.43,42.68,2.32,3.16,4.38,6.51,6.86,9.54,1.44,1.76,1.64,2.78-.69,3.48-4.12,1.24-7.77,3.45-11.56,5.37-1.3.66-2.54,1.26-3.4-.92-7.6-19.43-15.3-38.82-22.94-58.24-.1-.26.09-.64.29-1.92Z" fill="#00a099" stroke-width="0"/><path d="m664.93,781.23c3.79-7.51,9.95-11.45,17.08-13.53,9.74-2.84,19.39-2.42,28.15,3.59.99.68,2.58,1.31,2,2.89-.47,1.29-1.96.85-3.08,1.02-12.89,1.89-25.77,3.84-38.67,5.73-1.61.24-3.26.19-5.48.31Z" fill="#8b8585" stroke-width="0"/><path d="m140.29,854.73c16.97-9.77,35.67-11.13,54.53-9.16-16.83,10.02-35.62,10.97-54.53,9.16Z" fill="#00a099" stroke-width="0"/><path d="m491.94,628.23c14.49,0,28.99,0,43.48,0,5.73,0,9.99,2.82,11.1,8.2,1.18,5.73.8,11.1-3.95,15.8-11.79,11.67-23.23,23.7-34.76,35.63-2.39,2.47-4.36,5.36-6.83,7.73-5.73,5.47-14.24,4.75-18.67-1.74-1.23-1.8-2.63-3.33-4.1-4.84-12.13-12.52-24.29-24.99-36.45-37.48-7.01-7.2-6.51-16.12-.92-20.78,2.13-1.78,4.34-2.58,7.12-2.56,14.66.09,29.32.04,43.98.04Z" stroke-width="0"/><path d="m383.49,446.3c9.48,0,18.97-.02,28.45,0,6.31.02,10.01,3.74,10.01,9.99,0,6.25-3.7,9.98-10.02,9.99-18.3.02-36.62-.45-54.91.15-14.42.48-25.83,7.11-32.75,20.24-1.58,2.99-2.3,6.33-2.3,9.79.02,13.14.02,26.29,0,39.43,0,6.76-3.58,10.39-10.14,10.36-6.2-.03-9.83-3.76-9.84-10.16-.02-14.14-.26-28.29.08-42.43.24-10.13,4.13-19.03,10.77-26.78,12.83-14.97,29.47-20.76,48.68-20.6,7.32.06,14.64.01,21.96.01Z" stroke-width="0"/><path d="m580.31,466.29c8.99,0,17.99-.32,26.95.07,14.06.62,26.76,4.94,37.64,14.37,11.78,10.2,17.39,22.8,17.02,38.36-.29,12.31-.05,24.62-.06,36.94,0,6.43-3.62,10.18-9.78,10.22-6.56.04-10.2-3.6-10.2-10.3-.01-12.31-.32-24.64.08-36.94.46-14.28-9.46-24.97-21.47-29.69-5.93-2.33-12.15-3.17-18.58-3.1-16.64.18-33.28.07-49.92.05-6.35,0-10.06-3.7-10.08-9.92-.01-6.28,3.67-10.03,9.95-10.05,9.48-.03,18.97,0,28.45,0Z" stroke-width="0"/><path d="m625.86,514.28c10.32,13.76,8.07,41.96-9.82,54.74-20.07,14.34-54.49,7.55-62.35-19.49-7.23-24.85,4.84-47.72,30.14-52.91,6.68-1.37,14.28-1.89,21.05,1.67-6.24,2.65-8.63,9.56-6.15,17.8-3.04,1.58-3.6,6.75-6.75,6.7-3.45-.05-4.61-4.7-6.84-7.24-3.36-3.83-7.84-4.6-11.85-1.16-5.92,5.06-7.76,17.23-3.14,23.51,4.18,5.68,8.64,11.2,13.41,16.4,7.84,8.55,8.71,8.44,16.84-.1,2.04-2.14,3.83-4.52,5.79-6.74,5.82-6.6,11.81-13.11,9.74-23.04,5.09-1.64,9.34-4.1,9.93-10.15Z" fill="#cb0000" stroke-width="0"/><path d="m425.92,516.1c8.14,12.14,7.9,24.87,1.96,37.59-8.17,17.5-28.31,26.42-46.69,21.14-18.77-5.39-31.18-23.6-29.17-42.79,2.47-23.56,26.68-40.81,48.77-34.74.77.21,1.45.72,2.17,1.09-4.89,5.08-6.38,10.96-4.14,17.7-.37.32-.79.61-1.12.97q-6.11,6.84-12.28-.82c-3.36-4.17-11.05-5.48-14.48-2.47-4.6,4.04-4.48,9.34.33,14.28,1.39,1.43,2.68,2.99,4.26,4.19,3.5,2.67,3.75,4.82.19,7.97-3.08,2.72-7.09,5.06-7.64,9.87-.33.29-.67.58-1,.87-2.96,3.14-3.06,6.74-.07,9.48,2.53,2.32,6.01,3.38,8.98-.04.33-.1.66-.21,1-.31,1.85.31,3.3-.26,5.05-1.13,3.38-1.68,4.68-4.99,6.98-7.45,2.67-2.87,4.41-2.16,6.12.47,1.81,2.79,3.9,5.13,6.81,6.87,3.39,2.02,9.86,2.45,12.79-1.78,2.04-2.95,1.74-8.58-1.2-11.75-1.91-2.07-3.84-4.16-6.02-5.94-2.63-2.15-2.79-3.71-.16-6.19,2.82-2.66,6.34-4.85,7.78-8.78,5.18-.72,8.64-3.67,10.79-8.32Z" fill="#0144fe" stroke-width="0"/><path d="m586.94,610.7c-11.8-2.36-23.35-3.66-34.64-6.39-3.87-.94-5.71-2.91-5.38-6.81.34-3.95,3.3-4.94,6.51-5.2,3.14-.25,6.32-.14,9.48-.04,22.56.73,45.08-1.36,67.64-1.11,4.16.05,6.18,1.41,6.31,5.44.15,4.63-3.02,4.7-6.41,4.67-8.32-.07-16.64-.05-24.95,0-1.56,0-3.45-.65-4.25,1.48,5.04.83,10.09,1.86,15.19,2.43,3.16.35,4.91,2.12,5.34,4.79.48,2.98-1.47,4.7-4.4,5.28-5.8,1.14-11.6,2.32-18.02,3.6,2.47,2.01,6.05,2.38,5.66,6.51-.38,4-2.41,5.59-5.8,4.77-8.56-2.05-16.99-4.65-25.53-6.83-3.01-.77-3.88-2.52-3.81-5.36.07-3,1.35-4.38,4.42-4.77,4.11-.53,8.15-1.56,12.66-2.46Z" stroke-width="0"/><path d="m396.83,610.74c4.75.89,9,1.76,13.27,2.47,2.5.42,3.72,1.74,3.87,4.26.16,2.71-.33,4.94-3.36,5.75-8.67,2.33-17.33,4.71-26.02,6.96-2.32.6-4.59-.22-5.33-2.49-.82-2.51-.84-5.23,1.83-7.12.89-.63,2.47.32,2.93-1.74-5.58-1.19-11.08-2.55-16.66-3.48-3.37-.56-5.75-2.03-5.26-5.51.42-2.92,2.63-4.42,5.93-4.71,4.82-.42,9.58-1.5,14.45-2.32-.64-2.4-2.71-1.53-4.24-1.55-8.16-.07-16.32-.04-24.48-.04-3.22,0-6.62.07-6.75-4.41-.13-4.51,2.73-5.66,6.7-5.61,8.32.09,16.71-.62,24.96.16,17.08,1.63,34.16.36,51.22.88,3.5.11,6.59,1.12,7,5.22.41,4.13-1.67,5.91-5.82,6.91-11.15,2.69-22.55,3.9-34.25,6.35Z" stroke-width="0"/><path d="m368.97,752.77c.02-8.63,7.69-13.93,16.32-10.7,13.8,5.16,27.49,10.64,41.08,16.32,6.77,2.83,8.97,9.7,6.89,16.13-2.26,6.97-10.67,9.22-16.49,6.95-12.24-4.77-24.4-9.74-36.59-14.64-4-1.61-8.31-2.59-10.22-7.35-.9-2.26-.95-4.43-.99-6.7Z" fill="#1d1d1b" stroke-width="0"/><path d="m625.86,514.28c-.59,6.05-4.84,8.51-9.93,10.15-7.08,0-13.83-.67-17.19-8.33-2.48-8.24-.1-15.15,6.15-17.8,9.4,2.16,15.96,8.07,20.98,15.98Z" fill="#ca8080" stroke-width="0"/><path d="m398.81,516.1c-2.23-6.75-.74-12.62,4.14-17.7,10.43,2.3,18.05,8.24,22.96,17.7-2.15,4.65-5.61,7.6-10.79,8.32-6.86.02-13.07-1.24-16.32-8.32Z" fill="#8097d6" stroke-width="0"/><path d="m117.65,727.23c-10.19-.52-19.81-3.49-28.81-8.18-6.11-3.19-6.39-11.07-1.25-16.93,4.23-4.83,10.1-7.13,15.4-10.3,7.11-4.25,14.49-8,22.73-9.63,1.3-.26,1.99-.94,2.32-2.2,1.83-6.99,7.16-9.28,13.47-8.66,12.29,1.22,23.71,4.64,31.06,15.84,4.45,6.78,4.65,11.49.46,16.52-3.56,4.28-11.79,6.47-17.18,3.66-6.14-3.2-10.69-3.57-14.82,3.14-2.55,4.14-6.53,7.39-9.82,11.07-3.61,4.04-7.85,6.49-13.55,5.67Z" stroke-width="0"/><path d="m63.38,916.65c6.98,3.8,9.06,7.54,7.16,12.5-2.37,6.19-9.42,9.5-16.69,7.79-1.1-.26-2.32-.49-3.2-1.12-.92-.66-3.29-.38-2-2.94,1-1.98,1.8-1.48,3.4-.86,3.71,1.44,7.64,2.43,11.12-.54,4.8-4.1,3.57-9.36-2.41-11.58-1.45-.54-2.82-.71-4.29-.82-1.31-.1-3.19.73-3.34-1.75-.18-2.82,1.88-2.1,3.4-2.22,3.6-.29,6.31-2,7.47-5.42.88-2.59-.72-4.62-2.79-5.8-2.56-1.47-5.29-.93-8.05.05-1.16.41-3.25,1.98-3.96-.78-.56-2.16,1.5-2.45,2.68-2.83,1.99-.64,3.97-1.34,6.21-1.28,4.84.12,8.75,1.64,10.65,6.35,1.59,3.92-.2,7.49-5.36,11.25Z" stroke-width="0"/><path d="m191.07,869.13c2.61.81,5.99,1.3,5.99,5.83,0,4.36-2.35,7.09-6.38,7.16-3.84.07-6.58-2.57-6.63-6.39-.05-3.83,2.61-6.56,7.02-6.59Z" stroke-width="0"/><path d="m216.63,857.14c4.33-.37,5.88,2.48,6.29,5.96.39,3.26-3.37,7.15-6.5,6.61-3.42-.58-6.63-1.89-6.44-6.49.16-3.91,2.4-6.12,6.64-6.09Z" stroke-width="0"/><path d="m222.03,910.95c-.05,4.54-2.55,7.52-6.14,6.91-3.21-.54-6.25-1.71-5.95-6.3.27-4.16,1.72-6.53,6.1-6.44,4.06.09,6.72,1.56,5.99,5.83Z" stroke-width="0"/><path d="m183.03,920.22c.06-4.51,2.63-7.51,6.2-6.86,3.19.59,6.22,1.78,5.9,6.36-.3,4.17-1.8,6.49-6.16,6.38-4.1-.1-6.67-1.68-5.93-5.88Z" stroke-width="0"/><path d="m163.04,882.47c.08,3.83-2.52,6.56-6.34,6.65-3.83.08-6.56-2.52-6.65-6.34-.08-3.83,2.52-6.56,6.34-6.64,3.83-.08,6.56,2.52,6.64,6.34Z" stroke-width="0"/><path d="m113.06,879.05c-.02-5.26,1.63-6.64,6.45-7,4.61-.35,5.74,2.75,6.3,5.96.59,3.37-3.4,7.44-6.78,6.85-3.12-.55-6.77-1.47-5.97-5.81Z" stroke-width="0"/><path d="m155.5,924.11c4.29-.48,5.92,2.31,6.45,5.76.51,3.29-3.21,6.95-6.72,7.1-3.51.15-6.11-2.66-6.18-6.67-.07-3.96,2.24-6.18,6.45-6.19Z" stroke-width="0"/><path d="m134.41,896.12c4.12-.21,6.63,1.39,6.65,5.86.01,3.96-2.34,6-6.6,6.17-4.35.17-5.91-2.53-6.3-6.02-.39-3.41,2.57-5.97,6.25-6.01Z" stroke-width="0"/><path d="m598.73,516.1c3.36,7.66,10.11,8.34,17.19,8.33,2.07,9.93-3.92,16.44-9.74,23.04-1.96,2.22-3.75,4.6-5.79,6.74-8.13,8.54-9,8.66-16.84.1-4.76-5.2-9.23-10.71-13.41-16.4-4.62-6.28-2.78-18.45,3.14-23.51,4.01-3.43,8.49-2.67,11.85,1.16,2.23,2.54,3.39,7.18,6.84,7.24,3.15.05,3.71-5.12,6.75-6.7Z" stroke-width="0"/><path d="m571.18,549.27c3.99-.13,6.69,2.59,6.71,6.84.02,3.74-1.88,5.87-5.61,6.12-4.29.29-7.18-2.21-7.36-6.18-.17-3.82,2.45-6.66,6.27-6.78Z" fill="#e58080" stroke-width="0"/><path d="m398.81,516.1c3.24,7.08,9.45,8.34,16.32,8.32-1.44,3.93-4.96,6.12-7.78,8.78-2.64,2.49-2.47,4.04.16,6.19,2.17,1.78,4.1,3.87,6.02,5.94,2.94,3.18,3.24,8.81,1.2,11.75-2.93,4.23-9.4,3.8-12.79,1.78-2.92-1.74-5-4.09-6.81-6.87-1.72-2.63-3.45-3.34-6.12-.47-2.29,2.46-3.6,5.78-6.98,7.45-1.75.87-3.2,1.43-5.05,1.13,1.84-3.2,1.51-6.45-.86-8.97-2.12-2.25-5.11-2.62-8.04-1.03.55-4.81,4.56-7.15,7.64-9.87,3.56-3.15,3.31-5.3-.19-7.97-1.57-1.2-2.86-2.76-4.26-4.19-4.81-4.93-4.93-10.23-.33-14.28,3.43-3.02,11.12-1.71,14.48,2.47q6.17,7.67,12.28.82c.33-.37.74-.65,1.12-.97Z" stroke-width="0"/><path d="m368.07,550.1c2.93-1.6,5.92-1.22,8.04,1.03,2.37,2.51,2.7,5.77.86,8.97-.33.1-.66.21-1,.31-6.33.03-7.78-4.55-8.91-9.43.33-.29.67-.58,1-.87Z" fill="#808081" stroke-width="0"/><path d="m367.07,550.97c1.13,4.88,2.58,9.46,8.91,9.43-2.97,3.43-6.45,2.37-8.98.04-2.99-2.74-2.89-6.33.07-9.48Z" fill="#80a1fe" stroke-width="0"/><path d="m99.57,709.76c11.05-8.05,22.16-13.27,34.26-16.44,1.01-.27,2.03-.11,2.62.91.58,1.01-.44,1.41-.91,1.97-3.82,4.51-7.74,8.94-11.46,13.53-3.11,3.85-6.4,5.35-11.58,3.68-3.94-1.28-8.04-2.23-12.92-3.65Z" fill="#868686" stroke-width="0"/><path d="m161.95,695.21c-3.89-.45-6.38-2.46-9.17-3.67-2.98-1.29-5.69-3.4-9.33-2.46-1.63.42-2.44-.68-2.36-2.32.06-1.17-.02-2.39,1.86-2.07,7.3,1.23,14.02,3.47,19,10.52Z" fill="#1d1d1b" stroke-width="0"/></svg>