<svg id="rw-rabbit-does-dizzy" class="icon" xmlns="http://www.w3.org/2000/svg" xml:space="preserve" viewBox="0 0 989.02 974.54" preserveAspectRatio="xMidYMid meet" enable-background="new 0 0 989.02 974.54" role="img" aria-hidden="true" aria-labelledby=" " focusable="false" style="pointer-events: none; display: block; width: 100%; height: 100%;"><path d="m983.45,711.79c-9.17-15.2-23.22-25.35-37.26-35.49-15.17-10.97-31.42-20.16-47.92-28.91-11.64-6.17-23.58-11.79-35.43-17.58-12.94-6.33-26.86-10.67-39.08-18.87,10.47-5.79,20.79-11.05,30.67-17.05,20.51-12.48,40.94-25.08,60.22-39.47,13.49-10.06,26.27-20.89,37.52-33.35,6.45-7.14,12.19-14.93,14.9-24.58,3.12-11.09,1.6-20.64-6.84-29.11-6.61-6.62-14.82-9.61-23.4-11.93-7.78-2.1-15.79-3.14-23.87-3.61,4.76-.77,9.41-.08,14.15.26,10.59.75,20.88,2.59,30.83,6.2,6.43,2.34,12.48,5.24,15.49,12.21,1.91,4.41,6.07,5.89,10.06,4.29,4.36-1.74,5.92-5.51,4.35-10.5-2.6-8.32-8.53-13.86-15.95-17.6-15.81-7.97-33.1-9.8-50.42-11.14-4.47-.34-9-.05-13.49-.05h-12.95c14.98-5.12,24.54-14.8,28.57-29.95,2.88-10.82,2.46-21.69,1.01-32.66-2.45-18.55-8.94-35.79-16.67-52.62-12.95-28.21-29.54-54.26-47.48-79.51-9.33-13.14-18.86-26.14-29.97-37.83-12.98-13.65-27.47-25.44-43.81-35.06-20.72-12.21-42.89-19.22-66.86-20.37-8.49-.41-16.86,1.09-25.23,2.82-22.44,4.62-40.64,16.16-54.32,34.17-13.97,18.4-21.13,39.65-22.61,62.73-.16,2.66-.15,4.38-3.53,2.36-2.59-1.55-5.61-2.37-8.4-3.6-15.14-6.72-30.7-12.07-46.9-15.73-7.41-1.67-16.78-1.03-19.32-11.41-.1-.41-.68-.71-1.02-1.07-9.56-9.95-22.29-12.16-34.99-13.14-11.95-.93-24.1-.97-35.94,1.83-9.59,2.26-18.26,6.36-22.27,16.05-1.48,3.58-3.64,4.45-6.74,4.9-13.9,2.02-27.51,5.29-40.89,9.52-9.7,3.07-19.3,6.42-28.78,10.57-.54-12.16-1.24-23.82-2.07-35.48-1.3-18.25-3.34-36.38-5.97-54.49-1.76-12.03-4.03-23.95-6.63-35.77-3.83-17.38-8.76-34.51-15.55-51.03-8.48-20.61-18.53-40.29-35.07-55.82-7.51-7.06-16.32-12.58-26.43-14.24-16.18-2.65-30.53,2.55-42.66,13.52-12.73,11.52-21.69,25.86-29.05,41.12-8.29,17.21-14.31,35.3-19.14,53.82-3.87,14.84-7.04,29.84-9.42,44.94-1.87,11.89-3.11,23.93-4.46,35.92-1.81,16.16-2.5,32.36-3.59,48.55-.69,10.11-.33,20.32-.09,30.48.41,16.75-.61,33.48.75,50.26,1,12.42,2.12,24.83,3.04,37.25.84,11.42,2.64,22.7,4.44,33.92,2.68,16.67,5.92,33.34,10.84,49.54,1.45,4.8-.59,8.37-2.12,12.33-.42,1.08-.66,1.63-2.4,1.33-5.83-1-11.93-1.08-17.7-.95-16.69.38-33.25-2.11-50.04-.66-14.2,1.22-28.53,1.18-42.71,3.3-13.1,1.97-25.93,4.68-37.79,10.98-19.23,10.21-23.34,27.95-11.67,46.39,5.71,9.02,13.1,16.34,21.23,22.93,18.35,14.86,38.4,27.23,59.25,38.19,20.2,10.62,40.62,20.88,61.7,29.69,3.02,1.26,3.15,2.8,3.18,5.35.21,21.27-1.3,42.61,2.93,63.69.42,2.08-.67,3.11-2.57,4.1-5.13,2.67-10.08,5.71-15.08,8.64-8.89,5.21-11.56,5.82-19.69,4.48,2.4-4.53,4.26-9.16,4.45-14.51.39-10.69-3.53-19.81-8.99-28.65-7.63-12.37-18.01-21.13-31.99-25.21-17.4-5.08-34.95-9.65-52.33-14.82-11.71-3.48-19.76,2.3-22.2,9.81-2.1,6.47.08,12.01,4.8,16.9,5.05,5.23,9.96,10.65,12.1,17.92,1.25,4.26,1.13,8.71,1.99,12.99,1.9,9.54,7.27,17.37,12.94,25.02,4.53,6.12,9.75,11.47,16.52,15.06,11.38,6.04,23.44,7.46,35.97,4.42-.1,3.82-2.55,5.6-5.13,7.31-6.97,4.64-14.05,9.14-20.88,13.99-16.37,11.61-31.76,24.43-45.25,39.33-6.27,6.92-11.48,14.68-14.13,23.91-3.16,11.06-1.59,20.68,6.91,29.1,5.64,5.59,12.42,8.71,19.71,10.85,9.06,2.67,18.47,3.33,27.87,4.32,13.94,1.47,27.87.93,41.75.55,13.2-.36,26.36-2.31,39.51-3.81,8.71-.99,17.45-2.04,26.04-3.76,7.13-1.43,13.22-1.61,18.44,4.76,2.3,2.81,5.49,5.14,8.37,7.58,11.71,9.9,23.57,19.63,35.36,29.44,10.29,8.57,20.34,17.45,30.89,25.69,15.85,12.38,31.34,25.24,47.72,36.96,8.39,6.02,16.74,12.06,26.17,16.4,4.46,2.05,8.97,2.92,13.22-.24,3.65-2.72,2.62-6.9,2.37-10.54-.15-2.13-1.54-4.17-2.33-6.27-1.57-4.14-5.25-7.15-6.6-11.62,88.89,38.2,177.7,38.92,266.83,2.09-1.58,6.24-1.93,12.85-.47,18.66,4.23,16.72,14.95,27.93,32.41,30.6,14.6,2.23,27.32-2.8,36.42-14.57,16.44-21.28,32.48-42.88,48.52-64.47,20.65-27.81,41.13-55.74,61.73-83.58.84-1.13,1.46-2.14,3.69-.65,12.7,8.51,25.77,16.45,38.55,24.84,10.3,6.76,21.8,8.14,33.37,6.49,16.34-2.34,30.48-10.3,42.68-21.18,17.28-15.4,29.98-34.06,37.2-56.21.64-1.97,1.6-2.97,3.67-3.76,4.62-1.77,9.01-4,13.21-6.81,15.88-10.63,16.89-27.64,8.03-42.33Zm-88.22-260.41c-4.44,0-7.86.01-11.27,0-17.08-.04-34,1.73-50.93,3.89-9.98,1.27-19.99,2.2-29.9,4.07-3.77.72-7.79-4.82-6.41-9.24,2.71-8.75,4.9-17.61,6.92-26.53,1.01-4.46,3.52-5.34,8.15-3.16,11.47,5.42,23.27,9.93,35.59,12.98,13.02,3.23,26.12,5.58,39.6,3.02.77-.14,1.62.08,2.91.16-3.44,5.99-3.78,11.52,5.34,14.81Zm-724.44,132.83c-.33,2.7-.15,3.88-3.6,2.33-33.89-15.29-67.16-31.67-97.86-52.9-11.81-8.17-22.97-17.09-31.34-28.75-7.36-10.26-8.39-16.98,5.04-24.15,10.04-5.37,21-7.82,32.23-9.43,13.69-1.97,27.51-2.04,41.21-3.25,16.12-1.43,32,1.21,48.02.6,4.75-.17,9.82.46,14.84.81-.78,2.43-.93,5.01-2.58,7.07-1.75-1.15-3.2-3.21-5.41-3.07-5.32.32-10.5-1.14-15.75-1.03-14.9.29-29.81-.88-44.71.87-12.62,1.49-25.11,3.38-35.53,11.27-6.99,5.29-11.8,12.26-11.58,21.58.1,4.06,3.34,6.96,7.12,7.25,4.61.35,8.15-1.57,8.67-5.97.81-6.85,4.97-10.54,10.59-12.73,10.5-4.09,21.47-6.21,32.79-6.34,16.58-.19,33.15.05,49.7,1.13-2.29,9.33-4.14,18.79-7.44,27.82-5.47,14.95-2.65,28.3,7.36,40.3,1.74,2.09,2.19,3.56,1.46,6.45-1.65,6.57-2.43,13.38-3.23,20.14Zm5.82,117.12c-2.69-2.43-5.52-4.01-8.84-5.48q7.47-3.73,8.84,5.48Zm-19.3,116.94c-13.31,1.49-26.63,3.44-39.98,3.82-13.54.38-27.13.89-40.73-.56-8.92-.94-17.6-2.33-26.07-5.19-3.06-1.03-6.07-2.21-8.53-4.31-6.84-5.82-7.21-11.97-.85-21.54,8.42-12.67,19.3-22.98,31.14-32.49,9.37-7.52,18.87-14.8,28.81-21.53,1.06-.71,2.19-1.32,3.29-1.97,2.28,12.92,8.58,23.16,18.42,31.51,9.26,7.85,18.15,16.14,27.28,24.16,9.32,8.19,18.74,16.29,28.71,24.94-7.44,1.11-14.44,2.37-21.49,3.16Zm806.25-76.09c0-2.14-.09-4.03.02-5.91.48-8.06-.49-15.99-2.1-23.86.24-.27.47-.55.7-.82,3.79,3.18,6.51,7.11,8.78,11.52,3.71,7.18,2.4,13.82-7.4,19.07Z" fill="#010101" stroke-width="0"/><path d="m176.75,476.54c-.74,4.52-2.5,8.72-4.11,12.96-16.55-1.08-33.12-1.32-49.7-1.13-11.32.13-22.29,2.25-32.79,6.34-5.62,2.19-9.78,5.88-10.59,12.73-.52,4.4-4.06,6.32-8.67,5.97-3.78-.29-7.02-3.19-7.12-7.25-.22-9.32,4.59-16.29,11.58-21.58,10.42-7.89,22.91-9.78,35.53-11.27,14.9-1.75,29.81-.58,44.71-.87,5.25-.11,10.43,1.35,15.75,1.03,2.21-.14,3.66,1.92,5.41,3.07Z" fill="#ededed" stroke-width="0"/><path d="m817.82,595.02c8.73-3.4,16.51-8.36,24.33-13.03,25.77-15.39,51.44-30.95,74.67-50.2,11.54-9.57,22.8-19.32,30.84-32.11,8.35-13.27,6.9-20.73-8.87-26.33-8.13-2.88-16.46-4.28-25.07-5.19-14.61-1.53-29.2-.9-43.76-.56-12.19.29-24.34,2.41-36.51,3.78-8.42.95-16.82,2.04-25.24,2.96-2.25.25-1.85,1.57-1.29,2.77,5.36,11.66,8.76,24.08,13.73,35.87,7.04,16.72,5.47,31.83-6.77,45.5-1.38,1.54-1.28,2.93-.84,4.87,2.34,10.3,3.44,20.81,4.79,31.65Z" fill="#ededed" stroke-width="0"/><path d="m176.61,701.33c-2.69-2.43-5.52-4.01-8.84-5.48" fill="#010101" stroke-width="0"/><path d="m77.85,867.32c-17.29.49-34.52-.01-51.2-5.09-11.45-3.49-21.71-8.88-25.97-21.31-1.66-4.84-.32-8.13,3.87-9.96,3.78-1.65,9.15-.34,10.65,3.5,3.18,8.12,10.51,10.61,17.45,12.58,10.65,3.02,21.67,4.59,32.91,4.33,15.08-.35,30.18.32,45.23-1.09,9.77-.91,19.54-1.81,29.27-3.05,5.91-.75,7.9,3.51,8.55,7.84.51,3.36-3.92,7.94-7.77,8.18-11.78.71-23.47,2.38-35.24,3.3-9.29.73-18.53.18-27.76.76Z" fill="#333" stroke-width="0"/><path d="m58.11,433.39c-7.03-2.6-10.37,2.82-13.83,8.74-1.99,3.4-3.09,8.79-8.53,8.11-5.09-.64-5.05-5.92-5.85-9.46-1.68-7.44-5.59-11.76-13.27-12.35-2.32-.18-4.35-1.07-6.46-1.89-3.92-1.52-5.01-5.13-1.91-8.08,3.04-2.9,6.28-5.82,9.94-7.81,4.19-2.28,4.28-5.81,3.34-9.13-.94-3.33-.44-6.54-.82-9.78-.26-2.22.38-4.24,2.37-4.95,2.07-.74,4.33-.97,6.48.79,3.37,2.75,7.04,5.13,10.62,7.61,1.52,1.05,3,1.09,4.84.25,3.91-1.79,7.94-3.37,12.03-4.68,2.11-.68,4.44-1.09,6.47.88,2.02,1.98,1.17,3.8.25,5.8-.46,1.01-.52,2.23-1.06,3.18-5.41,9.63-.39,16.57,5.93,23.17,1.7,1.77,3.9,3.62,2.7,6.25-1.38,3.01-4.28,3.78-7.53,3.38-1.47-.18-2.99-.03-5.7-.03Z" fill="#010101" stroke-width="0"/><path d="m967.56,552.79c-.3,2.42-.04,5.6-1.15,8.18-1.91,4.43-.24,7.13,2.96,9.74,1.41,1.15,2.51,2.69,3.93,3.83,2.52,2.02,4.13,4.49,3.16,7.68-1.05,3.44-4.7,2.03-7.07,3.05-1.28.55-2.93.36-4.41.31-7.54-.25-8.56,6.29-11.43,10.9-1.46,2.34-1.88,5.91-5.58,5.79-3.43-.12-5.02-2.89-5.73-5.77-2.35-9.52-9.39-11.96-17.91-12.09-2.36-.03-4.02-.98-4.64-2.93-.66-2.08-.11-4.1,1.87-5.71,2.18-1.78,3.78-4.34,6.09-5.88,3.94-2.63,3.68-6.5,2.64-9.81-.84-2.67-.63-5.39-1.54-8.06-1.19-3.49,3.34-6.02,7.6-4.33,2.67,1.06,5.45,2.19,7.69,3.93,3.33,2.59,6.03,2.12,9.22-.17,2.18-1.56,4.8-2.58,7.32-3.61,4.74-1.93,6.96-.45,6.97,4.93Z" fill="#010101" stroke-width="0"/><path d="m276.56,796.39c-4.04.97-8.07,2.02-12.14,2.88-2.03.43-3.8-.12-5.23-1.93-11.13-14.08-22.45-28.01-34.41-41.4-10-11.2-13.36-25.47-17.94-39.07-3.79-11.25-6.68-22.84-8.64-34.58-1.44-8.66-2.03-17.46-3.6-26.09-1.71-9.45-.27-19.01-1.5-28.51-.46-3.5.22-7.77.71-11.9,8.36,3.04,16.26,7.19,24.85,9.49,4.54,2.65,9.41,4.43,14.55,5.47,1-4.43.22-8.92.46-13.38,0-.17-.02-.33,0-.5.13-1.95-.86-3.13-2.6-3.78-4.17-1.56-8.34-3.11-12.51-4.66-6.49-2.74-12.81-6-19.51-8.03-5.03-1.53-4.86-4.9-4.27-8.32,2.38-13.67,4.03-27.46,7.78-40.92,5-17.96,10.63-35.63,19.03-52.33,1.01-2.01,2.66-3.98,2.86-6.07.74-8.07,6.6-10.06,12.9-12.48,19.38-7.47,39.41-12.69,59.55-17.43,12.98-3.06,26.16-5.22,39.45-7.36-6.3,5.49-12.34,10.89-16.56,18.15-3.66,6.3-5.91,12.94-6.05,20.09-.27,14.16-.09,28.32-.07,42.49,0,6.42,3.64,10.14,9.86,10.17,6.57.03,10.12-3.6,10.13-10.4.01-12.33.48-24.68-.12-36.98-.68-13.85,10.86-25.56,21.68-29.62,5.86-2.19,11.87-3.08,18.13-3.03,16.66.13,33.32.05,49.99.04,6.52,0,10.26-3.55,10.31-9.72.05-6.57-3.58-10.18-10.26-10.3-1.43-.03-2.98.54-4.62-.77,6.51-.56,12.77-.64,18.97-1.02,29.21-1.76,58.48-1.55,87.72-1,13.66.26,27.35,1.05,41,1.87,11.6.7,23.23,1.53,34.75,3.03,18.19,2.38,36.38,4.61,54.49,7.71,30.22,5.16,59.95,11.95,88.86,22.19,4.38,1.55,8.7,3.26,12.98,5.04,1.34.56,2.49,1.03,3.2,2.99,5.02,13.69,11.98,26.58,16.68,40.42,4.55,13.4,8.29,27.01,11.12,40.87,1.13,5.54,2.09,11.12,2.94,16.71.23,1.54.51,3.25-.48,5.05-1.83-1.05-3.7-1.93-5.36-3.11-17.45-12.38-35.74-9.46-53.44-1.66-21.71,9.56-37.26,26.41-49.58,46.36-7.14,11.56-11.93,24.11-15.28,37.24-5.9.51-11.16,3.19-15.88,6.22-3.45,2.21-1.49,7.08-1.91,10.77-.11.97-.53,1.89-.75,2.85-.85,3.6.42,4.4,3.81,3.15,4.29-1.59,8.15-4.33,12.82-4.89.14,8.95,1.36,17.67,4.69,26.08,3.73,9.44,9.86,16.7,18.53,21.9.81.48,1.44,1.27,2.15,1.91-4.69.44-9.19-.76-13.72-1.65-2.71-.53-5.36-.78-7.1,2.02-1.93,3.09-3.67,6.3-5.76,9.28-1.62,2.31-1.11,3.04,1.52,3.44,9.28,1.41,18.56,2.91,27.81,4.53,1.44.25,2.89.6,3.49-.8,1.42-3.3,4.78-5.7,4.54-9.75,4.78,1.27,8.39,4.71,12.32,7.3,7.55,4.97,15.33,9.58,22.8,14.67,1.66,1.13,2.3,1.7.77,3.72-26.13,34.65-52.39,69.22-78.01,104.24-5.05,6.9-11.4,11.09-18.35,15.12-24.47,14.21-50.7,24.06-78.11,30.6-13.7,3.27-27.7,5.23-41.82,6.47-16.43,1.45-32.86,1.05-49.23.59-14.24-.4-28.48-2.67-42.41-5.89-16.24-3.75-32.21-8.41-47.76-14.7-17.64-7.14-34.06-16.37-50.52-25.78-12.53-7.17-19.8-18.82-28.55-29.3-8.03-9.62-15.78-19.47-23.67-29.2-1.95-2.41-3.94-4.78-6.09-7.39,4.91-1.19,9.75-2.37,14.59-3.55,5.79-1.57,11.85-2.11,17.82-4.47-3.56-4.2-7.67-7.38-10.5-11.7-.88-1.35-2.11-1.57-3.88-1.07-4.75,1.34-9.62,2.29-14.44,3.39Z" fill="#fefefe" stroke-width="0"/><path d="m206.02,407.3c-2.45-6.7-2.93-13.61-4.23-20.3-1.69-8.75-3.09-17.6-3.94-26.47-.68-7-1.44-13.99-2.09-20.99-3.15-34.1-2.38-68.32-1.81-102.47.26-15.66,1.76-31.38,3.52-47.04,1.5-13.27,3.12-26.53,5.37-39.66,2.26-13.15,5.13-26.21,8.77-39.1,4.72-16.7,10.29-33.04,18.05-48.59,4.71-9.45,10.6-18.13,17.48-26.09,8.69-10.05,20.48-14.13,29.93-9.84,7.8,3.54,13.54,9.79,18.68,16.71,15.06,20.24,23.06,43.55,29.89,67.38,3.91,13.64,6.57,27.57,9.14,41.53,2.53,13.76,3.98,27.65,5.78,41.5,1.19,9.1,1.57,18.31,2.08,27.49.65,11.74,1.4,23.47,1.08,35.25-.06,2.3-.51,3.57-2.79,4.87-16.6,9.5-32.13,20.48-46.83,32.82-22.13,18.56-40.75,40.09-57.57,63.45-11.32,15.73-20.87,32.46-30.51,49.56Z" fill="#fefefe" stroke-width="0"/><path d="m900.75,389.39c.44,3.02-.1,8.46-2.42,13.36-3.58,7.57-11.03,9.1-18.31,9.53-17.4,1.02-33.56-4.36-49.34-10.91-30.48-12.66-58.33-29.98-85.36-48.72-3.84-2.66-7.61-5.5-11.73-7.65-10.68-5.59-16.51-16.08-24.64-24.2-4.76-4.76-9.13-10.08-14.2-14.5-6.77-5.91-13.28-12.13-20.32-17.76-8.74-7-17.32-14.32-27.13-19.62-7.17-3.87-6.2-9.71-5.56-15.38,1.24-10.88,2.76-21.73,6.78-32.11,9.75-25.2,26.62-41.79,53.89-47.11,20.29-3.96,39.18,0,57.64,8.02,17.03,7.39,31.66,18.14,45.08,30.95,13.51,12.89,24.65,27.6,35.45,42.66,17.29,24.13,33,49.23,45.26,76.31,7.87,17.37,14.74,35.14,14.89,57.13Z" fill="#fefefe" stroke-width="0"/><path d="m232.01,466.73c10.53-10.14,22.34-18.69,34.13-27.26,21.54-15.65,44.25-29.42,68.1-41.24,28.54-14.15,58.4-24.77,89.47-31.59,14.82-3.26,29.91-5.27,45.15-6.45,14.8-1.15,29.58-1.17,44.29-.54,17.28.74,34.44,3.5,51.42,7.17,21.67,4.68,42.72,11.38,63.18,19.75,21.61,8.84,42.32,19.6,62.28,31.75,16.74,10.19,32.61,21.63,48.21,33.43,6.64,5.02,12.81,10.65,18.8,16.76-7.32-2.44-14.62-4.93-21.96-7.32-21.07-6.85-42.58-11.91-64.37-15.75-16.55-2.92-33.14-5.67-49.79-7.93-11.38-1.54-22.91-2.03-34.36-3.14-17.75-1.72-35.57-2.21-53.37-3.2-24.61-1.38-49.21-.76-73.78-.53-12.83.12-25.76.64-38.58,1.85-16.16,1.53-32.36,2.7-48.5,4.64-13.16,1.59-26.31,3.25-39.39,5.33-22.03,3.49-43.86,8.05-65.35,14.06-11.71,3.28-23.23,7.27-34.83,10.95-.25-.24-.51-.49-.76-.73Z" fill="#cbaa00" stroke-width="0"/><path d="m187.62,488.31c2.98-11.77,7.46-23.01,11.83-34.3,5.86-15.13,12.87-29.74,20.45-44.04,10.89-20.53,23.37-40.05,37.88-58.29,9.55-12.01,19.4-23.72,30.5-34.28,18.62-17.71,38.95-33.09,61.48-45.67,21.63-12.08,44.61-20.5,68.37-26.96,8.54-2.32,17.38-3.53,25.96-5.22,2.53,15.1,5.14,29.99,7.48,44.92,2.17,13.84,3.89,27.74,6.16,41.56.89,5.44,1.18,10.97,2.77,16.33,1.03,3.46-.1,5.79-4.51,6.11-20.98,1.56-41.37,6.32-61.54,12.01-23.86,6.74-46.79,16.04-68.9,27.11-14.32,7.17-28.29,15.09-41.88,23.69-19.69,12.46-38.28,26.39-56.3,41.07-13.87,11.3-26.46,24.07-39.06,36.77-.23-.27-.46-.55-.69-.82Z" fill="#fed500" stroke-width="0"/><path d="m726.31,739.14c52.5-22.88,78.82-62.6,78.9-120.06,2.67.37,4.98,2.41,7.36,3.94,20.63,13.31,41.11,26.85,61.71,40.22,19.62,12.74,39.35,25.32,58.99,38.03,9.01,5.83,13.32,14.68,14.18,24.92,2.01,23.89-6.36,44.75-20.07,63.78-9.1,12.64-20.13,23.18-34.19,30.24-10.1,5.07-20.55,8-31.96,5.11-4.95-1.26-8.73-4.65-12.89-7.21-10.52-6.48-20.6-13.66-31.04-20.29-2.33-1.48-2.22-2.42-1.22-4.6,6.19-13.48,2.09-28.88-9.89-37.58-4.26-3.09-8.75-5.89-12.87-9.15-13.07-10.38-33.65-7.18-43.22,5.08-1.3,1.67-2.1,1.68-3.53.75-6.88-4.47-13.76-8.94-20.27-13.17Z" fill="#575756" stroke-width="0"/><path d="m795.47,485.81c-4.82-4.84-9-9.11-13.26-13.3-18.74-18.4-39.2-34.71-60.74-49.68-21.73-15.1-44.5-28.47-68.51-39.63-28.81-13.38-58.55-24-89.89-29.88-10.73-2.01-21.38-4.38-32.32-4.91-3.39-.16-4.65-1.9-4.1-5.12,2.31-13.61,4.76-27.21,6.91-40.85,2.18-13.83,4.02-27.72,6.11-41.57.87-5.78,2.37-11.5,2.82-17.3.25-3.32,1.73-3.59,4.02-3.08,27.33,6.06,53.26,15.6,77.63,29.62,20.91,12.03,39.83,26.46,57.58,42.73,20.06,18.39,37.3,39.07,53.14,61.09,13.47,18.73,25.38,38.36,36.48,58.57,8.98,16.36,16,33.6,24.1,50.34.26.53.03,1.29.03,2.95Z" fill="#fed500" stroke-width="0"/><path d="m639.67,934.73c-1.1-8.21,4.61-13.87,9.01-19.84,21.24-28.81,42.7-57.45,64.16-86.09,14.47-19.32,29.08-38.55,43.61-57.83,2.76-3.67,4.92-7.99,8.29-10.97,6.17-5.46,13.03-4.85,20.75.78,3.58,2.61,7.18,5.2,10.73,7.84,6.62,4.91,8.61,13.34,3.09,20.71-34.86,46.5-69.44,93.21-104.13,139.83-5.1,6.85-10.17,13.72-15.43,20.45-5.81,7.42-15.66,10.41-23.84,7.69-10.66-3.56-17.45-13.72-16.23-22.55Z" fill="#bd1622" stroke-width="0"/><path d="m141.32,705.26c15.49-.19,26.11,6.4,34.91,16.96,9.94,11.92,20.23,23.55,30.23,35.42,9.24,10.97,18.29,22.1,27.43,33.16,8.41,10.17,16.83,20.33,25.26,30.49,13.89,16.74,27.46,33.74,41,50.78,12.51,15.74,24.73,31.69,36.57,47.94,1.05,1.44,3.75,3.38,2.3,4.83-1.78,1.77-3.23-1.22-4.72-2.26-16.92-11.77-32.87-24.8-48.77-37.9-16.67-13.73-33.48-27.3-50.04-41.17-12.66-10.61-24.99-21.61-37.51-32.38-13.89-11.96-27.86-23.82-41.73-35.79-8.38-7.24-16.79-14.45-24.92-21.97-7.11-6.57-11.96-14.77-12.38-24.53-.3-7.07,2.59-13.84,4.96-20.52.34-.97,1.28-.84,2.09-.96,5.54-.8,10.96-2.49,15.32-2.08Z" fill="#008c36" stroke-width="0"/><path d="m788.86,627.13c-.48,26.43-9.41,45.89-23.03,63.33-12.04,15.42-26.6,27.64-46.27,32.41-18.39,4.45-34.55-7.1-37.03-25.91-3.24-24.57,5.66-45.52,19.1-64.93,11.56-16.69,26.45-29.64,46.29-35.81,12.54-3.9,24.19-2.45,32.95,8.13,6.23,7.52,8.67,16.67,7.99,22.79Z" fill="#3c3c3b" stroke-width="0"/><path d="m493.49,346.4c-5.33,0-10.67-.08-15.99.03-2.74.06-3.54-1-3.94-3.75-2.07-13.99-4.54-27.92-6.71-41.89-1.53-9.82-2.73-19.69-4.21-29.52-1.41-9.32-3.02-18.61-4.52-27.92-.52-3.22-1.17-6.43-1.42-9.66-.48-6.24,2.69-10.87,9.61-13.06,12.74-4.02,25.79-3.91,38.97-2.42,7.19.81,14.08,2,20.19,6.17,5.32,3.63,5.92,5.8,4.76,12.02-1.8,9.59-3.12,19.27-4.58,28.92-1.44,9.5-2.73,19.02-4.2,28.52-1.52,9.8-3.24,19.56-4.79,29.36-1.09,6.92-2.05,13.85-3.03,20.79-.32,2.22-1.83,2.44-3.64,2.43-5.5-.03-11-.01-16.5-.01Z" fill="#fed500" stroke-width="0"/><path d="m89.75,635.22c15.86,3.47,24.82,14.35,31.71,28.22,6.82,13.74-3.31,25.01-13.08,28.83-19.01,7.44-32.43.12-43.76-15.91-4.98-7.05-7.84-14.57-8.72-23.01,11.29-6.04,22.03-13.09,33.86-18.13Z" fill="#b07f4a" stroke-width="0"/><path d="m176.75,476.54c-.74,4.52-2.5,8.72-4.11,12.96-16.55-1.08-33.12-1.32-49.7-1.13-11.32.13-22.29,2.25-32.79,6.34-5.62,2.19-9.78,5.88-10.59,12.73-.52,4.4-4.06,6.32-8.67,5.97-3.78-.29-7.02-3.19-7.12-7.25-.22-9.32,4.59-16.29,11.58-21.58,10.42-7.89,22.91-9.78,35.53-11.27,14.9-1.75,29.81-.58,44.71-.87,5.25-.11,10.43,1.35,15.75,1.03,2.21-.14,3.66,1.92,5.41,3.07Z" fill="#333" stroke-width="0"/><path d="m89.75,635.22c-11.82,5.04-22.57,12.09-33.86,18.13-1.4-10.39-6.86-18.63-13.77-26.11-1.12-1.21-2.34-2.37-3.26-3.72-.34-.5-1.18-1.28-.47-2.18.75-.94,1.46-.71,2.56-.39,9.88,2.91,19.86,5.48,29.69,8.55,6.35,1.98,13.02,2.91,19.11,5.73Z" fill="#bd1622" stroke-width="0"/><path d="m701.61,743.33c.24,4.05-3.12,6.45-4.54,9.75-.6,1.41-2.06,1.06-3.49.8-9.25-1.61-18.52-3.12-27.81-4.53-2.64-.4-3.14-1.13-1.52-3.44,2.09-2.98,3.83-6.19,5.76-9.28,1.74-2.8,4.39-2.55,7.1-2.02,4.53.89,9.03,2.1,13.72,1.65.3-.08.57-.03.82.16l1.05.88c3.09,1.82,6.67,2.94,8.91,6.02Z" fill="#cbcbcb" stroke-width="0"/><path d="m665.45,686.38c-4.68.56-8.53,3.3-12.82,4.89-3.39,1.25-4.66.45-3.81-3.15.22-.96.64-1.88.75-2.85.42-3.69-1.54-8.56,1.91-10.77,4.72-3.03,9.98-5.71,15.88-6.22-.64,6.03-1.27,12.07-1.91,18.1Z" fill="#cbcbcb" stroke-width="0"/><path d="m276.56,796.39c4.82-1.1,9.69-2.04,14.44-3.39,1.77-.5,2.99-.28,3.88,1.07,2.83,4.33,6.94,7.51,10.5,11.7-5.97,2.36-12.03,2.91-17.82,4.47-3.02-5.13-7.37-9.21-10.99-13.86Z" fill="#cbcbcb" stroke-width="0"/><path d="m218.57,608.43c4.17,1.55,8.34,3.1,12.51,4.66,1.74.65,2.73,1.83,2.6,3.78-.01.17.01.33,0,.5-.25,4.46.53,8.95-.46,13.38-5.15-1.04-10.01-2.82-14.55-5.47-.03-5.62-.07-11.23-.1-16.85Z" fill="#cbcbcb" stroke-width="0"/><path d="m798.22,507.64c9.08,6.85,19.14,21.4,10.51,35.15-2.01-6.2-3.81-11.81-5.63-17.4-1.85-5.65-3.72-11.29-5.59-16.94.24-.27.47-.54.71-.81Z" fill="#fed500" stroke-width="0"/><path d="m189.79,508.45c-3.68,11.23-7.36,22.46-11.12,33.91-8.55-12.08.59-27.61,10.42-34.73.23.27.46.55.69.82Z" fill="#fed500" stroke-width="0"/><path d="m767.8,398.95c.29-.21.58-.43.86-.64,3.9,2.13,7.89,4.12,11.67,6.45,2.02,1.24,1.41,3.44.92,5.37-.66,2.63-1.36,5.25-2.18,8.45l-11.27-19.63Z" fill="#fefefe" stroke-width="0"/><path d="m67.48,429.39c-1.68,0-3.03.2-4.3-.03-10.91-1.96-18.92,1.3-23.25,12.14-.63,1.59-1.5,3.73-3.95,4.59-1.96-5.29-4-10.6-5.88-15.96-.55-1.57-.85-2.47-2.98-2.91-5.78-1.17-11.41-3.08-17.68-4.86,4.31-3.29,7.88-6.6,12-9,5.07-2.95,5.04-7.54,4.06-11.87-.84-3.69-.5-7.18-.69-11.12,5.2,1.43,8.9,5,12.89,7.77,2.98,2.07,5.47,2.3,8.48,1.1,3.59-1.44,7.12-3,10.7-4.45,2.53-1.02,3.94-.79,2.88,2.53-1.13,3.52-1.55,7.35-3.16,10.61-2.36,4.8.34,7.52,2.9,10.87,2.6,3.41,6.31,6.06,7.98,10.58Z" fill="#fefe00" stroke-width="0"/><path d="m963.25,551.05c.96,5.42-1.44,9.96-1.83,14.74-.16,2,.11,3.2,1.51,4.51,2.68,2.49,5.23,5.12,7.77,7.75.61.63,1.92,1.07,1.28,2.31-.51,1.01-1.57,1.11-2.6.99-3.65-.42-7.05,1.64-10.73,1.03-2.07-.35-2.68,1.21-3.49,2.75-2.31,4.38-4.07,9.07-7.47,13.34-1.51-3.02-3.39-5.76-4.29-8.78-1.81-6.12-6.19-8.2-11.87-8.25-2.82-.03-5.2-1.29-9.55-1.46,3.79-3.51,6.29-6.4,9.34-8.48,2.97-2.04,4.55-3.58,3.46-7.75-1.04-3.98-1.45-8.24-2.31-13.03,4.38,1.55,8.26,3.36,11.75,5.89,2.38,1.72,4.47,1.99,7.09.49,3.76-2.14,7.71-3.93,11.92-6.05Z" fill="#fefe00" stroke-width="0"/><path d="m493.64,628.35c14.5,0,28.99,0,43.49,0,5.75,0,9.97,2.79,11.11,8.19,1.2,5.73.82,11.1-3.93,15.8-11.79,11.68-23.23,23.7-34.76,35.64-2.39,2.47-4.36,5.36-6.84,7.73-5.72,5.47-14.24,4.76-18.68-1.71-1.23-1.8-2.63-3.33-4.1-4.85-12.13-12.52-24.29-25-36.45-37.49-7.01-7.2-6.52-16.13-.94-20.78,2.14-1.78,4.33-2.59,7.12-2.58,14.66.09,29.32.04,43.99.04Z" fill="#010101" stroke-width="0"/><path d="m592.18,466.38c8.82,0,17.65-.27,26.46.06,14.26.55,27.11,4.9,38.11,14.48,11.6,10.1,17.24,22.52,16.92,37.9-.26,12.48-.04,24.96-.06,37.45-.01,6.37-3.68,10.08-9.92,10.09-6.29.02-10.05-3.66-10.07-9.94-.03-12.48-.32-24.97.08-37.44.44-14.01-9.53-24.91-21.59-29.6-5.99-2.33-12.18-3.1-18.6-3.05-16.48.15-32.95.06-49.43.05-6.82,0-10.46-3.53-10.45-10.06.02-6.46,3.7-9.92,10.58-9.93,9.32,0,18.64,0,27.96,0Z" fill="#010101" stroke-width="0"/><path d="m627.52,524.48c3.81,3.8,5.22,8.93,5.87,13.78,3.16,23.61-7.69,43.36-31.85,47.73-23.72,4.28-43.55-8.11-47.54-31.89-3.95-23.53,7.6-42.17,31.62-47.35,6.58-1.42,14.22-2.03,20.92,1.73-1.12-.29-1.84.36-2.59,1.04-4,3.63-5.74,10.72-3.82,15.84,2.53,6.76,7.69,9.39,14.6,9.23-.73,1.08-1.35,2.27-2.22,3.22-9.1,9.84-4.67,10.17-13.5.16-3.54-4.01-7.67-4.94-11.73-1.67-5.95,4.79-8.14,17.37-3.59,23.47,5.39,7.23,11.22,14.14,17,21.07,2.24,2.69,8.35,2.13,10.6-.67,2.88-3.58,5.82-7.11,8.74-10.66,5.31-6.44,11.42-12.29,9.77-22.08-1.02-6.05-4.06-10.97-10.12-13.14,3.66-2.44,7.84-4.46,7.88-9.8Z" fill="#cb0000" stroke-width="0"/><path d="m427.67,506.2c9.32,12.51,7.65,33.51-3.68,46.31-11.77,13.3-30.13,17.56-46.07,10.7-15.94-6.87-25.87-23.39-24.15-40.77.6-6.1,2.4-11.97,6.02-17.1,2.93,2.91,7.66,5.49,8.28,8.83.61,3.31-4.87,5.63-7.37,8.68-.52.64-1.31,1.11-1.69,1.82-2,3.77-2.85,7.52.51,11.07,4.25,4.5,12.15,3.47,16.1-2.11q5.35-7.58,11.06-.77c.96,1.14,2.01,2.25,3.19,3.15,3.82,2.89,9.99,3.31,12.72.98,4.88-4.16,4.48-9.68-1.11-15.28q-7.22-7.24-.51-14.24c6.98,10.26,19.51,9.67,26.69-1.26Z" fill="#0144fe" stroke-width="0"/><path d="m493.09,794.32c-7.31,0-14.63,0-21.94,0-7.23-.01-12.46-4.99-12.5-11.85-.04-7.63,5.09-13.09,12.54-13.13,14.62-.06,29.25-.06,43.88,0,6.75.02,12.62,5.67,12.52,12.31-.11,6.83-6.34,13.49-12.58,12.84-7.23-.75-14.61-.18-21.92-.18Z" fill="#1d1d1b" stroke-width="0"/><path d="m400.98,507.46q-6.71,7,.51,14.24c5.59,5.6,5.99,11.12,1.11,15.28-2.73,2.33-8.89,1.91-12.72-.98-1.18-.89-2.23-2.01-3.19-3.15q-5.72-6.79-11.06.77c-3.95,5.59-11.84,6.62-16.1,2.11-3.36-3.55-2.51-7.31-.51-11.07.37-.7,1.16-1.18,1.69-1.82,2.49-3.04,7.98-5.36,7.37-8.68-.62-3.34-5.35-5.92-8.28-8.83,2.55-6.41,6.66-11.2,13.59-13.04,1.04,1.46,1.9,3.1,3.14,4.35,5.64,5.69,4.68,6.39,9.78-.14,4.63-5.94,7.92-7.74,15.69-5.21-2.33,5.26-3.02,10.63-1,16.16Z" fill="#010101" stroke-width="0"/><path d="m315.37,786.93c10.67-2.82,20.25-5.23,29.74-7.9,6.87-1.93,14.52,4.62,13.89,11.89-.17,1.94-1.56,1.6-2.36,1.82-8.41,2.29-16.86,4.42-25.29,6.6-1.47.38-2.71.55-4.01-.78-3.68-3.78-7.56-7.37-11.97-11.62Z" fill="#cbcbcb" stroke-width="0"/><path d="m253.71,621.74c10.19,3.67,19.81,7.14,29.43,10.61.16.06.33.06.48.14,2,1.04,4.2,15.7,2.57,17.25-.69.66-1.5.48-2.31.19-9.34-3.35-18.68-6.67-28.01-10.04-1.33-.48-2.2-1.33-2.18-2.95.05-4.92.02-9.84.02-15.2Z" fill="#cbcbcb" stroke-width="0"/><path d="m302.78,644.57c-.99-4.64.73-5.33,4.92-3.79,7.61,2.79,15.33,5.35,23.11,7.63,3.89,1.14,5.45,3.11,4.92,7.12-.3,2.28.13,4.56.71,6.87,1.07,4.28.05,5.12-4.06,3.76-8.18-2.71-16.29-5.59-24.51-8.15-2.98-.93-4.58-2.25-4.22-5.57.29-2.65-1.58-5.11-.86-7.86Z" fill="#cbcbcb" stroke-width="0"/><path d="m614.71,534.58c-6.91.16-12.07-2.47-14.6-9.23-1.92-5.12-.18-12.21,3.82-15.84.75-.68,1.48-1.33,2.59-1.04,9.35,2.25,15.99,8.06,20.99,16.01-.04,5.35-4.22,7.36-7.88,9.8-1.64.1-3.29.2-4.93.3Z" fill="#b07f4a" stroke-width="0"/><path d="m400.98,507.46c-2.02-5.53-1.33-10.9,1-16.16.95-1,1.9-2.01,2.85-3.01,10.18,2.7,17.98,8.43,22.84,17.91-7.17,10.93-19.71,11.52-26.69,1.26Z" fill="#809dec" stroke-width="0"/><path d="m404.83,488.29c-.95,1-1.9,2.01-2.85,3.01-7.76-2.53-11.05-.73-15.69,5.21-5.09,6.53-4.14,5.82-9.78.14-1.24-1.25-2.1-2.89-3.14-4.35,9.85-6.29,20.32-7.75,31.46-4.01Z" fill="#0144fe" stroke-width="0"/><path d="m654.18,730.67c-2.91,4.82-5.68,9.26-9.27,13.18-.88.96-1.53,1.77-2.84,1.11-1.18-.59-1.6-1.72-1.38-2.94.68-3.72,1.39-7.43,2.23-11.12.31-1.36,1.07-2.18,2.88-1.69,2.63.7,5.38.97,8.37,1.47Z" fill="#cbcbcb" stroke-width="0"/><path d="m614.71,534.58c1.64-.1,3.29-.2,4.93-.3,6.06,2.16,9.1,7.09,10.12,13.14,1.65,9.79-4.46,15.64-9.77,22.08-2.92,3.54-5.86,7.08-8.74,10.66-2.25,2.8-8.36,3.36-10.6.67-5.77-6.93-11.61-13.84-17-21.07-4.55-6.1-2.36-18.68,3.59-23.47,4.06-3.27,8.19-2.34,11.73,1.67,8.84,10.01,4.41,9.68,13.5-.16.88-.95,1.49-2.14,2.22-3.22Z" fill="#010101" stroke-width="0"/><path d="m579.68,567.39c-.23,2.73-2.11,5.02-6.17,4.99-4.09-.03-6.56-2.06-6.87-6.23-.29-3.82,2.46-6.69,6.29-6.82,4-.13,6.71,2.63,6.76,8.05Z" fill="#b07f4a" stroke-width="0"/><path d="m374.14,552.4c-5.08-.22-7.84-3.07-7.42-7.03.4-3.84,2.68-5.91,6.54-5.96,3.98-.06,6.55,2.84,6.39,7.13-.15,4.07-2.54,5.79-5.51,5.87Z" fill="#809dec" stroke-width="0"/></svg>