<svg id="rw-channel-colours-diag" class="icon rw-channel-colours-diag" xmlns="http://www.w3.org/2000/svg" xml:space="preserve" viewBox="0 0 1920 1080.02" preserveAspectRatio="xMidYMid meet" enable-background="new 0 0 1920 1080.02" role="img" aria-hidden="true" aria-labelledby=" " focusable="false" style="pointer-events: none; display: block; width: 100%; height: 100%;"><polygon points="0 826.87 450.13 1080 0 1080.02 0 826.87" fill="#323232" stroke-width="0"/><polygon points="0 551.03 941.28 1080 450.13 1080 0 826.87 0 551.03" fill="#fed7bd" stroke-width="0"/><polygon points="0 276.06 1430.39 1080 941.28 1080 0 551.03 0 276.06" fill="#d3efef" stroke-width="0"/><polygon points="1920 1080 1430.39 1080 0 276.06 0 0 1920 1080" fill="#fdada4" stroke-width="0"/><polygon points="1920 1080 0 0 489.53 0 1920 802.85 1920 1080" fill="#cbe1ca" stroke-width="0"/><polygon points="1920 802.85 489.53 0 978.48 0 1920 528.11 1920 802.85" fill="#fefeb4" stroke-width="0"/><polygon points="1920 528.22 978.48 0 1469.35 0 1920 253.34 1920 528.22" fill="#fee0e8" stroke-width="0"/><polygon points="1920 253.34 1469.35 0 1920 0 1920 253.34" fill="#cba9ca" stroke-width="0"/></svg>