<svg xmlns="http://www.w3.org/2000/svg" width="24" height="24" fill="currentColor" stroke="none" stroke-linecap="round" stroke-linejoin="round" stroke-width="2" class="icon icon-tabler icon-tabler-brand-threads" xml:space="preserve"><title data-testid="svgTitle" id="title_0.13463236245733912">threads</title><path d="M 12.437 0.506 C 15.679 0.638 17.985 1.942 19.433 3.481 C 20.896 5.037 21.62 6.912 21.859 8.066 L 21.96 8.556 L 18.851 9.189 L 18.753 8.699 C 18.594 7.9 18.136 6.717 17.13 5.659 C 16.107 4.584 14.651 3.718 12.337 3.675 C 10.57 3.61 9.091 3.99 7.855 4.788 C 6.622 5.585 5.74 6.715 5.25 8.317 C 4.372 11.051 4.447 14.113 5.537 16.502 C 6.05 17.665 6.753 18.582 7.736 19.265 C 8.723 19.952 9.885 20.34 11.411 20.328 L 11.448 20.328 C 13.41 20.385 15.255 19.853 16.468 18.848 C 17.062 18.379 17.433 17.88 17.629 17.255 C 17.846 16.633 17.88 15.945 17.592 15.013 C 17.501 14.64 17.428 14.599 17.231 14.393 C 17.043 15.141 16.901 15.653 16.301 16.486 C 14.994 18.156 12.689 18.803 10.87 18.497 C 9.934 18.319 8.937 17.853 8.207 17.118 C 7.489 16.347 7.006 15.236 7.006 14.022 C 7.006 12.287 8.103 10.985 9.379 10.33 C 10.603 9.745 12.165 9.573 13.573 9.689 C 13.93 9.719 13.748 9.705 13.837 9.714 C 13.837 9.714 13.837 9.713 13.836 9.712 C 13.833 9.705 13.829 9.696 13.824 9.686 C 13.697 9.364 13.502 9.193 13.169 9.029 C 12.825 8.859 12.448 8.782 11.937 8.807 C 11.455 8.818 11.031 8.919 10.596 9.124 C 10.205 9.295 10.037 9.453 9.955 9.613 L 9.726 10.059 L 6.963 8.426 L 7.226 8.001 C 7.705 7.227 8.49 6.619 9.243 6.257 C 10.012 5.9 10.942 5.676 11.822 5.639 C 12.684 5.613 13.696 5.765 14.555 6.179 C 15.411 6.591 16.222 7.349 16.712 8.38 C 17.048 9.132 17.239 9.875 17.363 10.7 C 17.499 10.765 17.553 10.79 17.763 10.904 C 18.976 11.571 20.171 12.682 20.634 14.118 C 21.052 15.581 21.034 17.026 20.636 18.257 C 20.213 19.481 19.407 20.539 18.459 21.313 C 16.58 22.805 13.877 23.542 11.391 23.497 C 9.23 23.482 7.36 22.867 5.921 21.863 C 4.478 20.856 3.366 19.394 2.645 17.797 C 1.263 14.663 1.191 10.69 2.227 7.362 C 2.969 5.066 4.375 3.258 6.138 2.124 C 7.9 0.99 10.13 0.444 12.437 0.506 Z M 6.679 2.965 C 5.053 4.011 3.839 5.527 3.181 7.664 C 2.167 10.832 2.219 14.451 3.557 17.389 C 4.22 18.886 5.175 20.123 6.493 21.043 C 7.816 21.967 9.396 22.507 11.399 22.497 C 13.745 22.559 16.136 21.933 17.831 20.535 C 18.697 19.845 19.343 19.017 19.688 17.941 C 20.06 16.862 20.072 15.717 19.674 14.4 C 19.357 13.195 18.404 12.383 17.285 11.782 C 17.095 11.678 16.905 11.586 16.701 11.494 L 16.442 11.379 L 16.409 11.098 C 16.308 10.245 16.108 9.462 15.801 8.792 C 15.433 7.927 14.851 7.431 14.121 7.079 C 13.393 6.729 12.626 6.606 11.858 6.639 C 11.076 6.662 10.342 6.838 9.671 7.161 C 9.004 7.471 8.712 7.692 8.372 8.097 L 9.428 8.721 C 9.623 8.544 9.654 8.475 10.171 8.219 C 10.7 7.98 11.322 7.832 11.902 7.807 C 12.524 7.791 13.148 7.904 13.612 8.132 C 14.086 8.367 14.504 8.803 14.736 9.274 C 14.864 9.567 14.977 9.894 15.056 10.204 L 15.248 10.96 L 14.48 10.818 C 14.146 10.756 13.822 10.713 13.489 10.685 C 12.174 10.569 10.875 10.691 9.821 11.227 C 8.708 11.753 8.006 12.607 8.006 14.022 C 8.006 15.042 8.311 15.807 8.928 16.426 C 9.505 17.051 10.232 17.373 11.048 17.513 C 12.649 17.827 14.464 17.375 15.497 15.89 C 16.023 15.205 16.279 14.356 16.402 13.428 L 16.508 12.623 L 17.173 13.078 C 17.888 13.567 18.373 14.188 18.552 14.729 C 18.859 15.825 18.82 16.813 18.577 17.571 C 18.311 18.334 17.78 19.063 17.096 19.626 C 15.709 20.722 13.544 21.363 11.432 21.328 L 11.411 21.328 C 9.732 21.316 8.271 20.855 7.165 20.087 C 6.055 19.315 5.196 18.171 4.625 16.91 C 3.491 14.331 3.396 10.913 4.296 8.015 C 4.866 6.26 5.938 4.837 7.312 3.949 C 8.683 3.062 10.464 2.625 12.369 2.675 C 14.914 2.784 16.732 3.791 17.854 4.97 C 18.992 6.167 19.343 7.145 19.608 8.014 L 20.762 7.779 C 20.473 6.741 20.039 5.585 18.704 4.167 C 17.354 2.732 15.413 1.57 12.405 1.506 C 10.235 1.428 8.306 1.918 6.679 2.965 Z M 15.3 12.62 C 15.246 13.668 14.96 14.624 14.558 15.193 C 13.853 16.066 12.449 16.547 11.256 16.362 C 10.671 16.245 10.117 15.955 9.772 15.616 C 9.461 15.275 9.175 14.708 9.175 14.023 C 9.175 13.287 9.638 12.658 10.339 12.277 C 11.076 11.926 12.203 11.756 13.391 11.85 C 13.902 11.894 14.43 11.985 14.927 12.113 L 15.322 12.215 Z M 13.306 12.846 C 12.233 12.748 11.37 12.87 10.781 13.173 C 10.27 13.39 10.175 13.571 10.175 14.023 C 10.175 14.49 10.271 14.71 10.492 14.922 C 10.707 15.164 10.99 15.309 11.434 15.378 C 12.381 15.581 13.295 15.294 13.754 14.597 C 14.078 14.187 14.239 13.918 14.274 12.987 C 13.955 12.92 13.775 12.886 13.306 12.846 Z"></path></svg>