<svg xmlns="http://www.w3.org/2000/svg" width="24" height="24" stroke-linecap="round" stroke-linejoin="round" xml:space="preserve">
<title data-testid="svgTitle" id="instagram-svgtitle">instagram</title>
<path style="fill:currentColor; stroke:none; stroke-width:2" d="M21.9,7.7c0-0.8-0.2-1.6-0.5-2.4c-0.2-0.6-0.6-1.2-1.1-1.7c-0.5-0.5-1.1-0.9-1.7-1.1c-0.8-0.3-1.6-0.4-2.4-0.5
	C15.2,2,14.8,2,12,2S8.8,2,7.7,2.1c-0.8,0-1.6,0.2-2.4,0.5C4.7,2.8,4.1,3.1,3.6,3.6C3.1,4.1,2.8,4.7,2.5,5.3
	C2.2,6.1,2.1,6.9,2.1,7.7C2,8.8,2,9.2,2,12s0,3.2,0.1,4.3c0,0.8,0.2,1.6,0.5,2.4c0.2,0.6,0.6,1.2,1.1,1.7c0.5,0.5,1.1,0.9,1.7,1.1
	c0.8,0.3,1.6,0.4,2.4,0.5C8.8,22,9.2,22,12,22s3.2,0,4.3-0.1c0.8,0,1.6-0.2,2.4-0.5C20,21,21,20,21.5,18.7c0.3-0.8,0.4-1.6,0.5-2.4
	c0-1.1,0.1-1.5,0.1-4.3S22,8.8,21.9,7.7z M20.9,16.2c0,0.7-0.1,1.4-0.4,2.1c-0.4,1-1.2,1.8-2.2,2.2c-0.7,0.2-1.4,0.4-2.1,0.4
	C15.2,21,14.8,21,12,21s-3.2,0-4.2-0.1c-0.7,0-1.4-0.1-2.1-0.4c-0.5-0.2-1-0.5-1.3-0.9c-0.4-0.4-0.7-0.8-0.9-1.3
	c-0.2-0.7-0.4-1.4-0.4-2.1C3,15.2,3,14.8,3,12s0-3.2,0.1-4.2c0-0.7,0.1-1.4,0.4-2.1c0.2-0.5,0.5-1,0.9-1.3c0.4-0.4,0.8-0.7,1.3-0.9
	C6.3,3.2,7,3.1,7.8,3.1C8.8,3,9.2,3,12,3s3.2,0,4.2,0.1c0.7,0,1.4,0.1,2.1,0.4c0.5,0.2,1,0.5,1.4,0.9c0.4,0.4,0.7,0.8,0.9,1.3
	c0.2,0.7,0.4,1.4,0.4,2.1C21,8.8,21,9.2,21,12S21,15.2,20.9,16.2z"/>
<path style="fill:none; stroke:currentColor; stroke-width:0.5" d="M17.6,5.5c-0.5,0-1,0.4-1,1c0,0.5,0.4,1,1,1s1-0.4,1-1c0,0,0,0,0,0C18.5,5.9,18.1,5.5,17.6,5.5z"/>
<path style="fill:currentColor; stroke:none; stroke-width:2" d="M12,7.1c-2.7,0-4.9,2.2-4.9,4.9s2.2,4.9,4.9,4.9s4.9-2.2,4.9-4.9l0,0C16.9,9.3,14.7,7.1,12,7.1z M12,15.9
	c-2.2,0-3.9-1.8-3.9-3.9S9.8,8.1,12,8.1s3.9,1.8,3.9,3.9l0,0C15.9,14.2,14.2,15.9,12,15.9z"/>
</svg>