<svg id="rw-p32-hideandseek" class="icon icon-p32-hideandseek" xmlns="http://www.w3.org/2000/svg" xml:space="preserve" viewBox="0 0 45 43.47" preserveAspectRatio="xMidYMid meet" enable-background="new 0 0 45 43.47" role="img" aria-hidden="true" aria-labelledby=" " focusable="false" style="pointer-events: none; display: block; width: 100%; height: 100%;"><path d="m36.93,16.78c2.09.64,3.94,2.01,4.9,4.2.51,1.17,1.59,1.76,2.43,2.6,1.2,1.21.93,2.91-.58,3.41-.81.26-1.46-.03-2.05-.56-.89-.79-1.78-1.57-2.86-2.52-.17,1.92-.61,3.54.23,5.2.82,1.62,1.43,3.35,2.18,5,.37.81.3,1.75-.16,2.52-1,1.68-1.96,3.39-2.96,5.06-.78,1.31-2.01,1.69-3.16,1.04-1.14-.65-1.43-1.93-.71-3.25.34-.62.61-1.31,1.08-1.82,1.74-1.92,1.24-3.81.1-5.75-.21-.37-.41-.68-.84-.53-.51.18-.15.59-.05.83.71,1.75.3,3.24-.74,4.74-1.14,1.65-2.1,3.42-3.15,5.13-.84,1.37-2.14,1.76-3.27,1.04-1.15-.73-1.35-1.98-.51-3.39,1.01-1.69,2.01-3.39,3.07-5.06.3-.48.37-1.06.2-1.59-.38-1.18-.53-2.43-1.12-3.56-.3-.58-.14-1.23-.09-1.85.1-1.07.24-2.14.15-3.33-.91.37-1.74.72-2.59,1.05-1.42.56-2.48.22-2.93-.92-.43-1.08.09-2.06,1.42-2.62.84-.36,1.57-.66,1.91-1.72.94-2.97,4.06-3.62,7.04-3.63.78,0,2.36.04,3.1.27Z" stroke-width="0"/><path d="m36,8.54c-2.12,0-3.94,1.74-4.01,3.86-.07,2.18,1.77,4.06,3.99,4.06,2.16,0,3.94-1.7,4.01-3.84.07-2.19-1.76-4.06-3.99-4.07Z" stroke-width="0"/><path d="m30.28,28.09c-.25,1.06.26,1.54,1.46,1.55,1.12,0,2.24.17,3.36.24,1.6.1,1.66.05,1.8-1.58.21-2.44.39-4.89.56-7.34.03-.48.05-.99.64-1.04.53-.04,1.03.28,1.1.83.25,2.02,1.7,3.15,3.11,4.31.31.25.64.89,1.1.32.36-.45-.18-.75-.48-.99-1.39-1.1-2.58-2.32-2.99-4.14-.11-.5-.49-.86-.96-1.09-1.38-.65-2.71-1.51-4.35-.79-.33.15-.61-.12-.91-.27-1.77-.9-4.87.2-5.38,2.05-.44,1.59-1.2,2.66-2.84,3.05-.34.08-.82.27-.61.75.2.47.62.21.97.11,1.62-.49,3-1.21,3.18-3.15.03-.28.18-.55.29-.82.2-.5.5-.92,1.11-.72.56.18.49.65.45,1.13-.22,2.48-.41,4.97-.62,7.6Z" fill="#fff" stroke-width="0"/><path d="m35.99,10.09c-1.28,0-2.39,1.06-2.43,2.34-.04,1.32,1.08,2.46,2.42,2.46,1.31,0,2.39-1.03,2.43-2.33.04-1.33-1.07-2.47-2.42-2.47Z" fill="#fff" stroke-width="0"/><path d="m31.75,33.86c.04.51-.21.8-.4,1.12-1.07,1.78-2.15,3.56-3.22,5.34-.3.49-.74,1.06-.03,1.52.72.46,1.04-.19,1.34-.68,1.08-1.77,2.03-3.65,3.27-5.31,1.15-1.55.41-2.92.01-4.35-.18-.63-.86-.45-1.3-.37-.65.12-.15.61-.11.89.09.65.31,1.29.45,1.83Z" fill="#fff" stroke-width="0"/><path d="m38.04,30.59c-1.16.42-1.43,1.05-.81,2.05.26.42.35.94.6,1.36.48.81.42,1.51-.1,2.3-.79,1.21-1.48,2.5-2.21,3.75-.29.49-.53,1.01.12,1.39.6.35.91-.1,1.17-.55.96-1.65,1.92-3.3,2.88-4.94.21-.37.35-.72.15-1.17-.62-1.39-1.21-2.8-1.81-4.2Z" fill="#fff" stroke-width="0"/><path d="m8.77,22.85c-2.36,1.04-3.43.37-3.57-2.05-.1-1.83-.21-3.66-.31-5.48-.08-1.49.61-2.43,1.83-2.47,1.17-.05,1.97.76,2.02,2.19.03.89.05,1.25,1.14.78,4.56-2,8.98.93,8.99,5.87,0,6.16,0,12.32,0,18.48,0,.91-.11,1.75-.9,2.34-.7.52-1.48.58-2.25.24-.89-.39-1.29-1.14-1.3-2.1,0-2.75,0-5.49,0-8.24,0-.33,0-.67,0-1,0-.43.02-.87-.62-.83-.57.04-.48.47-.49.83,0,2.79,0,5.58,0,8.37,0,.37.02.75-.02,1.12-.11,1.14-.9,1.93-2.01,2.02-1.18.1-2.12-.58-2.37-1.75-.09-.4-.08-.83-.08-1.24,0-5.33,0-10.66,0-15.98,0-.33-.03-.66-.05-1.09Z" stroke-width="0"/><path d="m10.29,24.26h0c0,1.25.05,2.5-.02,3.74-.05.9.29,1.13,1.14,1.1,1.66-.06,3.33-.07,4.99,0,.87.04,1.05-.31,1.03-1.08-.04-1.95-.11-3.91,0-5.86.22-3.76-1.78-5.62-5.7-5.35-1.16.08-2.04.63-2.83,1.42-.28.28-.57.51-.98.37-.44-.15-.46-.54-.49-.92-.06-.87-.11-1.74-.17-2.61-.02-.34-.05-.73-.51-.69-.45.04-.45.42-.43.76.11,1.99.23,3.98.35,5.98.02.28-.01.61.34.73.36.12.51-.17.68-.41.35-.51.71-1.02,1.07-1.53.25-.35.53-.68,1.02-.52.5.16.5.6.5,1.02,0,1.29,0,2.58,0,3.87Z" fill="#fff" stroke-width="0"/><path d="m17.44,35.85c0-1.45,0-2.91,0-4.36,0-.54-.02-.97-.77-.97-.67,0-.86.27-.85.89.02,2.99,0,5.98,0,8.97,0,.55.14,1.06.77,1.09.72.02.84-.55.84-1.13,0-1.5,0-2.99,0-4.49Z" fill="#fff" stroke-width="0"/><path d="m11.84,36.05c0-1.5,0-2.99,0-4.49,0-.57.03-1.06-.82-1.03-.76.02-.74.46-.74.99,0,2.91,0,5.82,0,8.72,0,.56.03,1.18.76,1.2.75.02.79-.59.79-1.16,0-1.41,0-2.83,0-4.24Z" fill="#fff" stroke-width="0"/><path d="m4.24,21.47c0,6.41,0,12.83,0,19.24,0,1.9-1.64,2.85-3.35,1.97C.21,42.33,0,41.77,0,41.04c.01-5.16,0-10.33,0-15.49,0-.56,0-1.2.76-1.17.75.03.72.68.72,1.23,0,4.75,0,9.49,0,14.24,0,.29.01.58,0,.87-.02.43.11.75.6.75.55,0,.71-.33.68-.82-.01-.17,0-.33,0-.5,0-12.45,0-24.9,0-37.35,0-.29,0-.58-.02-.87-.03-.38-.34-.45-.63-.46-.31,0-.58.11-.6.49-.02.33-.02.67-.02,1,0,5.45,0,10.91,0,16.36,0,.37.01.76-.06,1.12-.06.29-.31.5-.64.5-.38,0-.65-.18-.73-.55-.06-.28-.04-.58-.04-.87,0-5.79,0-11.58,0-17.36C0,.67.65.02,2.09,0c1.48-.02,2.14.66,2.14,2.23,0,6.41,0,12.83,0,19.24Z" stroke-width="0"/><path d="m12.43,6.81c2.25.05,3.95,1.87,3.88,4.17-.07,2.17-1.92,3.92-4.09,3.85-2.16-.07-3.96-1.93-3.92-4.07.04-2.25,1.88-4,4.13-3.95Z" stroke-width="0"/><path d="m12.46,8.28c-1.41-.07-2.61.99-2.68,2.38-.07,1.38,1.01,2.59,2.41,2.68,1.39.09,2.59-.99,2.67-2.39.07-1.42-.97-2.59-2.39-2.66Z" fill="#fff" stroke-width="0"/><path d="m10.04,6.63c-1.28-.88-1.83-1.74-1.82-3.11,1.26.67,1.57,1.67,1.82,3.11Z" stroke-width="0"/><path d="m8.63,7.48c-.08.04-.11.09-.15.08-1.11-.1-1.95-.64-2.46-1.63-.07-.14.09-.34.29-.29,1.05.26,1.89.79,2.32,1.84Z" stroke-width="0"/><path d="m11.83,5.75c-.84-.8-.89-1.68-.84-2.59,0-.2,0-.45.27-.5.25-.05.36.17.44.35.38.85.47,1.71.13,2.74Z" stroke-width="0"/></svg>