<svg id="rw-p32-rifle" class="icon icon-p32-rifle" xmlns="http://www.w3.org/2000/svg" xml:space="preserve" viewBox="0 0 41.6 45" preserveAspectRatio="xMidYMid meet" enable-background="new 0 0 41.6 45" role="img" aria-hidden="true" aria-labelledby=" " focusable="false" style="pointer-events: none; display: block; width: 100%; height: 100%;"><path d="m41.37,1.44c.33-.33.31-.89-.07-1.19-.32-.26-.79-.21-1.08.08l-.28.28-.38-.38c-.31-.31-.82-.31-1.13,0-.31.31-.31.82,0,1.13l.38.38-5.29,5.29-1.93-.88c-.3-.14-.66-.07-.89.16l-4.85,4.85-.03-.03c-.31-.31-.82-.31-1.13,0l-14.58,14.58c-.15.15-.23.35-.23.56v1.63l-2.3,4.41-1.75.58c-.15.05-.28.14-.38.27L.17,40.04c-.07.09-.12.19-.15.3-.08.35.07.69.36.87l5.94,3.67c.13.08.27.12.42.12.08,0,.16-.01.23-.04.22-.07.4-.23.49-.44l5.78-12.97,1.01.47c.45.21.81.58,1,1.03l1.7,4.02c.08.2.24.35.44.43.1.04.2.06.3.06s.21-.02.31-.06l3.03-1.29c.37-.16.57-.57.45-.96l-1.69-5.85,2.98-2.98c1.44.91,3.01,1.6,4.66,2.04,1.43.38,2.9.57,4.37.57,1.39,0,2.79-.17,4.14-.51.41-.1.66-.5.59-.91l-.84-4.87c-.04-.22-.17-.42-.36-.54-.19-.12-.43-.15-.64-.09-3.5,1.01-7.27.11-9.93-2.34l.25-1.16,3.59-3.59c.15-.15.23-.35.23-.56,0-.13-.03-.26-.09-.38l5.54-5.54,7.1-7.1Z" stroke-width="0"/><path d="m6.37,43.04l-4.41-2.73,4.6-5.97,1.83-.61c.2-.07.36-.2.46-.39l2.04-3.91,1.07,1.07-5.58,12.53Z" fill="#fff" stroke-width="0"/><polygon points="13.23 29.55 11.46 27.78 11.46 26.61 11.46 26.61 21.48 16.59 23.37 18.48 23.13 19.65 13.23 29.55" fill="#fff" stroke-width="0"/><rect x="18.28" y="26.61" width=".85" height="1.34" transform="translate(-13.81 21.22) rotate(-45)" fill="#fff" stroke-width="0"/><path d="m18.1,35.72l-1.38-3.29c-.35-.82-.99-1.49-1.8-1.86l-.31-.14,2.19-2.19,1.36,1.36,1.57,5.42-1.64.7Z" fill="#fff" stroke-width="0"/><path d="m20.61,26.33l-.94-.94.74-.74c.33.3.67.59,1.03.86l-.82.82Z" fill="#fff" stroke-width="0"/><path d="m34.25,23.87l.57,3.28c-2.31.46-4.71.39-6.99-.22-2.34-.62-4.5-1.8-6.3-3.42l2.36-2.36c2.83,2.48,6.68,3.49,10.36,2.71Z" fill="#fff" stroke-width="0"/><path d="m24.25,17.1l-1.64-1.64,2.58-2.58s.02.02.03.03l1.61,1.61-2.58,2.58Z" fill="#fff" stroke-width="0"/><polygon points="27.61 12.94 26.97 12.29 31.43 7.83 32.31 8.23 27.61 12.94" fill="#fff" stroke-width="0"/><path d="m16.34,24.03c-.31-.31-.82-.31-1.13,0l-1.54,1.54c-.31.31-.31.82,0,1.13.16.16.36.23.56.23s.41-.08.56-.23l1.54-1.54c.31-.31.31-.82,0-1.13Z" stroke-width="0"/></svg>