<svg id="rw-p32-riddles" class="icon icon-p32-riddles" xmlns="http://www.w3.org/2000/svg" xml:space="preserve" viewBox="0 0 45 39.72" preserveAspectRatio="xMidYMid meet" enable-background="new 0 0 45 39.72" role="img" aria-hidden="true" aria-labelledby=" " focusable="false" style="pointer-events: none; display: block; width: 100%; height: 100%;"><path d="m45,38.76c-.53.97-1.03,1.17-2.08.79-1.49-.54-2.98-1.08-4.47-1.63-.18-.07-.34-.1-.54,0-2.92,1.44-6,1.97-9.23,1.64-3.45-.35-6.54-1.56-9.14-3.89-2.06-1.86-3.34-4.15-3.61-6.94-.16-1.62.08-3.2.7-4.72.03-.07.05-.13.1-.26-.25.01-.46.02-.67.04-5.23.31-9.85-1.04-13.44-5.03C.75,16.64-.16,14.14.02,11.29c.1-1.62.67-3.1,1.53-4.46.18-.29.21-.52.08-.84C1.12,4.65.63,3.29.13,1.94-.08,1.38-.06.85.38.4.83-.06,1.37-.08,1.96.13c1.53.56,3.06,1.11,4.59,1.68.2.07.36.09.57,0C10.01.39,13.07-.14,16.27.17c3.31.33,6.3,1.45,8.85,3.6,2.26,1.9,3.66,4.3,3.95,7.28.15,1.59-.09,3.15-.68,4.64-.04.09-.11.18-.05.33.9-.13,1.82-.14,2.74-.1,3.92.17,7.44,1.39,10.36,4.09,1.91,1.77,3.16,3.92,3.5,6.54,0,.03.05.06.08.09v2.28s-.07.03-.07.04c-.22,1.51-.79,2.88-1.61,4.15-.06.1-.11.2-.06.33.58,1.54,1.16,3.08,1.74,4.62v.7Z" stroke-width="0"/><path d="m41.45,36.17c-.33-.88-.61-1.66-.91-2.43-.12-.32-.17-.65-.09-.99.08-.33.32-.59.5-.86,1.11-1.68,1.69-3.48,1.25-5.51-.46-2.13-1.64-3.8-3.35-5.08-3.55-2.65-7.54-3.24-11.8-2.35-.37.08-.79.09-1.09.4-1.51,1.54-3.3,2.64-5.3,3.41-.14.05-.27.11-.36.23-1.22,1.57-1.88,3.32-1.72,5.33.17,2.19,1.2,3.97,2.8,5.43,1.99,1.8,4.36,2.75,7,3.11,3.09.42,6.02-.07,8.77-1.54.53-.29,1.03-.33,1.58-.12.86.34,1.74.64,2.7.99Z" fill="#fff" stroke-width="0"/><path d="m3.57,3.56c.27.72.46,1.37.74,1.98.39.86.28,1.56-.27,2.35-1.8,2.6-1.86,5.3-.21,8,.89,1.47,2.15,2.59,3.63,3.42,3.17,1.79,6.56,2.24,10.12,1.54,2.49-.49,4.7-1.56,6.49-3.4,1.39-1.43,2.26-3.12,2.37-5.13.12-2.17-.67-4.04-2.11-5.62-2.05-2.25-4.66-3.39-7.63-3.81-3.18-.45-6.19.06-9.01,1.61-.41.23-.82.25-1.26.08-.92-.34-1.85-.67-2.85-1.03Z" fill="#fff" stroke-width="0"/><path d="m26.46,27.77c0,.44,0,.88,0,1.31,0,.76-.58,1.33-1.33,1.32-.73,0-1.3-.56-1.3-1.3,0-.89,0-1.78,0-2.67,0-.74.58-1.3,1.31-1.3.73,0,1.31.55,1.33,1.28,0,.45,0,.91,0,1.36Z" stroke-width="0"/><path d="m29.09,27.73c0-.44,0-.88,0-1.31.01-.73.59-1.28,1.33-1.28.71,0,1.29.55,1.3,1.26.01.92.01,1.84,0,2.76-.01.72-.61,1.27-1.35,1.26-.71-.01-1.27-.57-1.28-1.28,0-.47,0-.93,0-1.4Z" stroke-width="0"/><path d="m37,27.78c0,.45,0,.91,0,1.36-.02.73-.6,1.27-1.34,1.27-.71,0-1.28-.56-1.29-1.27-.01-.91,0-1.81,0-2.72,0-.73.58-1.29,1.32-1.29.73,0,1.3.55,1.32,1.29,0,.45,0,.91,0,1.36Z" stroke-width="0"/><path d="m18.55,9.69c-.08,1.3-.83,2.52-2.33,3.23-.2.1-.31.18-.32.44-.02.74-.63,1.25-1.37,1.23-.7-.02-1.23-.59-1.25-1.32-.04-1.32.56-2.22,1.78-2.73.56-.24.9-.77.86-1.31-.05-.59-.49-1.07-1.1-1.21-.75-.17-1.47.46-1.53,1.34-.05.7-.55,1.23-1.21,1.27-.69.04-1.31-.41-1.4-1.06-.09-.63.05-1.25.3-1.84.77-1.76,2.63-2.69,4.55-2.28,1.76.38,3.04,2.02,3.04,4.24Z" stroke-width="0"/><path d="m14.6,18.55c-.75,0-1.33-.57-1.33-1.32,0-.75.58-1.32,1.33-1.32.73,0,1.3.57,1.31,1.3,0,.75-.56,1.34-1.31,1.34Z" stroke-width="0"/></svg>