<?xml version="1.0" encoding="UTF-8"?><svg id="a" xmlns="http://www.w3.org/2000/svg" viewBox="0 0 45 33.78"><path d="m45,12.05v15.3s-.07-.06-.08-.09c-.47-2.69-2.72-4.67-5.29-4.76-2.91-.1-5.31,1.99-5.78,4.55-.05.24-.13.32-.37.31-.55-.01-1.11,0-1.67-.01-1.37-.04-2.71-1.17-2.89-2.54-.2-1.56-.15-3.14-.04-4.69.11-1.52,1.03-2.46,2.51-2.84,1.93-.49,3.87-.97,5.81-1.45,1.5-.37,3-.7,4.31-1.6,1.13-.77,2.33-1.45,3.49-2.18Z" fill="#fff" stroke-width="0"/><path d="m5.26,17.42c-.01.12-.08.12-.13.12H.17c-.06,0-.11-.02-.17-.04v-4.13c.86-.15,1.48.21,2.06.84,1.03,1.12,2.14,2.16,3.2,3.21Z" fill="#fff" stroke-width="0"/><path d="m18.5,30.89c.45-.78.72-1.71.73-2.72.03-3.07-2.56-5.65-5.63-5.65-3.08.01-5.6,2.54-5.6,5.62,0,.99.26,1.93.72,2.75H0v-.03c1.8.01,3.6.01,5.4.02,1.02,0,1.01,0,1.02-1.02.01-.32-.07-.41-.4-.41-2.01.02-4.01.01-6.02.01v-1.32c.13-.09.28-.05.43-.05h4.25c1.04,0,1.02,0,1.04-1.04,0-.34-.1-.41-.42-.41-1.76.02-3.53.01-5.3,0v-7.64c2.31-.01,4.62-.01,6.93-.01.37,0,.66-.11.82-.47.16-.35-.01-.62-.25-.86-1.69-1.69-3.39-3.39-5.09-5.08-.39-.4-.87-.62-1.45-.62-.32,0-.64,0-.96,0v-1.41c1.81-.12,3.28.53,4.57,1.79,1.7,1.66,3.48,3.23,5.22,4.84,1.09,1.02,2.36,1.68,3.85,1.82,1.86.18,3.73.32,5.6.42,2.21.11,3.65,1.24,3.9,3.32.15,1.23.05,2.49.06,3.73.01.22-.15.17-.27.17-.6,0-1.2-.01-1.8,0-.44.01-.73.31-.74.7,0,.39.25.66.68.72.13.01.27.01.4.01.74,0,1.49,0,2.24,0,.19,0,.38-.02.55.09.25.17.39.41.32.71-.09.38-.34.56-.73.56-1.13,0-2.26-.01-3.38,0-.47,0-.78.31-.78.72s.29.69.74.69l-1.93.02Z" fill="#fff" stroke-width="0"/><path d="m31.39,17.28c1.93-.49,3.87-.97,5.81-1.45,1.5-.37,3-.7,4.31-1.6,1.13-.77,2.33-1.45,3.49-2.18v-1.67c-.17.01-.29.14-.42.22-1.4.87-2.8,1.75-4.19,2.63-.56.35-1.16.61-1.8.77-2.56.63-5.11,1.28-7.66,1.92-2.11.54-3.51,2.34-3.51,4.52v3.82c.01,2.05,1.49,3.92,3.49,4.4.82.2,1.66.15,2.49.14.27,0,.39.07.44.34.46,2.44,2.25,4.2,4.79,4.58,2.21.33,4.39-.72,5.6-2.74.37-.62.51-1.31.77-1.96v-1.67s-.07-.06-.08-.09c-.47-2.69-2.72-4.67-5.29-4.76-2.91-.1-5.31,1.99-5.78,4.55-.05.24-.13.32-.37.31-.55-.01-1.11,0-1.67-.01-1.37-.04-2.71-1.17-2.89-2.54-.2-1.56-.15-3.14-.04-4.69.11-1.52,1.03-2.46,2.51-2.84Zm7.99,6.64c2.3,0,4.22,1.93,4.2,4.23-.01,2.31-1.91,4.21-4.22,4.2-2.31,0-4.21-1.92-4.2-4.22,0-2.31,1.91-4.21,4.22-4.21Z" fill="#0b0a0d" stroke-width="0"/><path d="m39.38,23.92c-2.31,0-4.22,1.9-4.22,4.21,0,2.3,1.89,4.22,4.2,4.22,2.31.01,4.21-1.89,4.22-4.2.02-2.3-1.9-4.23-4.2-4.23Zm-.01,7.03c-1.56,0-2.81-1.25-2.81-2.8s1.24-2.83,2.83-2.83c1.55.01,2.8,1.27,2.8,2.83-.01,1.55-1.26,2.8-2.82,2.8Z" fill="#fff" stroke-width="0"/><path d="m24.08,30.88c-1.22-.05-2.43,0-3.65-.01-.45,0-.74-.29-.74-.69s.31-.71.78-.72c1.12-.01,2.25,0,3.38,0,.39,0,.64-.18.73-.56.07-.3-.07-.54-.32-.71-.17-.11-.36-.09-.55-.09-.75,0-1.5,0-2.24,0-.13,0-.27,0-.4-.01-.43-.06-.68-.33-.68-.72.01-.39.3-.69.74-.7.6-.02,1.2,0,1.8,0,.12,0,.28.05.27-.17-.01-1.24.09-2.5-.06-3.73-.25-2.08-1.69-3.21-3.9-3.32-1.87-.1-3.74-.24-5.6-.42-1.49-.14-2.76-.8-3.85-1.82-1.74-1.61-3.52-3.18-5.22-4.84-1.29-1.26-2.76-1.91-4.57-1.79v-1.41c2.2-.16,4.02.62,5.56,2.18.7.71,1.46,1.35,2.19,2.03.99.91,1.99,1.82,2.96,2.74,1.12,1.07,2.45,1.51,3.97,1.59,1.89.1,3.77.22,5.64.44,2.37.28,4.26,2.48,4.29,4.87.01,1.16.01,2.31,0,3.47-.01.22.05.33.25.43.54.26.84.72,1.08,1.27.37.86-.8,2.75-1.86,2.71Z" fill="#0b0a0d" stroke-width="0"/><path d="m7.75,18.52c-.16.36-.45.47-.82.47-2.31,0-4.62,0-6.93.01v-1.5c.06.02.11.04.17.04h4.96s.12,0,.13-.12c-1.06-1.05-2.17-2.09-3.2-3.21-.58-.63-1.2-.99-2.06-.84v-1.4c.32,0,.64,0,.96,0,.58,0,1.06.22,1.45.62,1.7,1.69,3.4,3.39,5.09,5.08.24.24.41.51.25.86Z" fill="#100f11" stroke-width="0"/><path d="m6.42,29.86c-.01,1.02,0,1.02-1.02,1.02-1.8-.01-3.6-.01-5.4-.02v-1.4c2.01,0,4.01,0,6.02-.01.33,0,.41.09.4.41Z" fill="#040406" stroke-width="0"/><path d="m5.72,27.05c-.02,1.04,0,1.04-1.04,1.04H.43c-.15,0-.3-.04-.43.05v-1.5c1.77.01,3.54.02,5.3,0,.32,0,.42.07.42.41Z" fill="#08070a" stroke-width="0"/><path d="m35,5.42c-1.12,2.22-2.23,4.45-3.34,6.68-.18.36-.4.62-.83.56-.51-.06-.75-.59-.49-1.11.64-1.31,1.3-2.61,1.96-3.92.09-.18.17-.37.25-.55.01-.04.04-.09.03-.1-.05-.03-.06.01-.07.05-.96.5-1.84,1.13-2.76,1.68-.17.1-.32.21-.49.31-.59.33-1.13.03-1.14-.65-.01-1.01,0-2.02,0-3.16-.51.52-.94.96-1.37,1.4-.29.3-.58.59-.88.87-.48.46-1.04.33-1.26-.3-.42-1.24-.83-2.48-1.28-3.82-.35,1.51-.68,2.92-1.01,4.33-.09.4-.18.8-.27,1.2-.08.34-.16.67-.25,1.01-.16.65-.59.83-1.18.5-.7-.4-1.4-.8-2.1-1.19-.11-.07-.22-.2-.4-.13.72,1.29,1.43,2.57,2.15,3.86.16.28.2.58,0,.86-.16.24-.41.32-.69.28-.26-.03-.42-.19-.54-.41-.88-1.59-1.77-3.18-2.65-4.78-.27-.48-.54-.97-.81-1.45-.18-.32-.18-.65.11-.91.28-.27.6-.25.92-.06,1.23.7,2.46,1.4,3.69,2.1.09.05.17.1.31.17.25-1.1.5-2.16.75-3.23.38-1.63.75-3.27,1.14-4.9.12-.51.56-.73.99-.54.25.11.35.32.44.57.55,1.67,1.11,3.34,1.68,5.03.32-.2.54-.49.8-.74.6-.6,1.21-1.2,1.8-1.8.26-.27.54-.4.9-.25.34.14.43.43.43.79,0,1.14,0,2.28,0,3.48.58-.35,1.12-.68,1.66-1.02.9-.57,1.81-1.13,2.71-1.7.35-.22.7-.32,1.03-.01.32.3.26.64.07,1Z" fill="#09090b" stroke-width="0"/><path d="m13.6,22.52c-3.08.01-5.6,2.54-5.6,5.62,0,.99.26,1.93.72,2.75.95,1.69,2.74,2.85,4.76,2.89,2.03.03,4-1.08,5.02-2.89.45-.78.72-1.71.73-2.72.03-3.07-2.56-5.65-5.63-5.65Zm3.18,8.37c-.76.89-1.89,1.45-3.16,1.46-1.26.01-2.41-.56-3.19-1.46-.64-.74-1.03-1.7-1.03-2.74,0-2.3,1.87-4.16,4.18-4.17,2.33-.02,4.17,1.8,4.2,4.14,0,1.06-.36,2.03-1,2.77Z" fill="#0c0b0e" stroke-width="0"/><path d="m13.58,23.98c-2.31.01-4.17,1.87-4.18,4.17,0,1.04.39,2,1.03,2.74.78.9,1.93,1.47,3.19,1.46,1.27,0,2.4-.57,3.16-1.46.64-.74,1.01-1.71,1-2.77-.03-2.34-1.87-4.16-4.2-4.14Zm.02,6.98c-1.56,0-2.8-1.24-2.8-2.81s1.26-2.82,2.81-2.82,2.82,1.3,2.82,2.83-1.27,2.8-2.83,2.8Z" fill="#fff" stroke-width="0"/><path d="m39.39,25.32c-1.59,0-2.83,1.24-2.83,2.83s1.25,2.8,2.81,2.8,2.81-1.25,2.82-2.8c0-1.56-1.25-2.82-2.8-2.83Zm-.04,4.22c-.75,0-1.38-.65-1.38-1.41s.64-1.39,1.39-1.4c.77,0,1.43.68,1.41,1.43-.02.76-.67,1.39-1.42,1.38Z" fill="#0d0c0e" stroke-width="0"/><path d="m40.77,28.16c-.02.76-.67,1.39-1.42,1.38-.75,0-1.38-.65-1.38-1.41s.64-1.39,1.39-1.4c.77,0,1.43.68,1.41,1.43Z" fill="#fff" stroke-width="0"/><path d="m13.61,25.33c-1.55,0-2.81,1.27-2.81,2.82s1.24,2.81,2.8,2.81,2.83-1.26,2.83-2.8-1.3-2.83-2.82-2.83Zm.01,4.21c-.77.01-1.4-.61-1.41-1.38,0-.77.62-1.39,1.39-1.39s1.39.63,1.39,1.4c-.01.76-.62,1.37-1.37,1.37Z" fill="#0c0b0e" stroke-width="0"/><path d="m14.99,28.17c-.01.76-.62,1.37-1.37,1.37-.77.01-1.4-.61-1.41-1.38,0-.77.62-1.39,1.39-1.39s1.39.63,1.39,1.4Z" fill="#fff" stroke-width="0"/></svg>