<?xml version="1.0" encoding="UTF-8"?><svg id="a" xmlns="http://www.w3.org/2000/svg" viewBox="0 0 45 36.37"><path d="m20.87,2.71c-1.46,0-2.89,0-4.32,0-.36,0-.84.09-.83-.48,0-.57.5-.47.85-.47,1.21-.01,2.42-.04,3.62,0,.68.03,1.14-.11,1.37-.83.13-.41.37-.9.88-.93.6-.04.84.5.99.94.24.73.7.84,1.38.82,1.24-.05,2.49-.02,3.74,0,.34,0,.74-.01.73.48,0,.49-.39.47-.74.47-1.43,0-2.87,0-4.4,0,.22,1.44.46,2.83.39,4.24-.03.67.4.57.82.56,3.51-.06,7.02-.19,10.52.2,2.58.28,5.15.66,7.52,1.81,1.95.95,2.13,2.46.46,3.88-2.45,2.07-5.38,3.09-8.45,3.8-2.62.61-5.29.72-7.96.91-1.52.11-2.32.75-2.71,2.23-.2.78-.18,1.57-.19,2.36-.02,2.49-.23,4.97-.65,7.43-.09.51-.02.73.57.78,1.08.09,2.17.24,3.14.81,1.17.69,1.71,1.68,1.48,2.78-.21,1.01-1.09,1.65-2.49,1.73-.87.05-1.9.32-2.57-.05-1.14-.63-1.94-.47-3.09-.02-.95.37-2.22.24-3.34-.08-.85-.25-1.52-.65-1.71-1.59-.2-1,.19-1.77.93-2.39,1-.84,2.23-1.08,3.47-1.16.79-.05.86-.3.73-1.04-.46-2.72-.62-5.47-.63-8.22,0-.84-.16-1.63-.6-2.37-.5-.83-1.22-1.14-2.16-1.2-3.31-.19-6.61-.4-9.82-1.35-2.47-.73-4.82-1.71-6.78-3.43-1.55-1.36-1.37-2.84.46-3.75,2.43-1.21,5.07-1.58,7.73-1.87,3.46-.37,6.94-.26,10.41-.17.68.02.85-.2.82-.82-.06-1.32.16-2.63.41-4Z" fill="#1b1a1d" stroke-width="0"/><path d="m17.29,14.03c0,.75-.04,1.51.01,2.26.05.63-.2.77-.77.71-1.05-.1-2.1-.21-3.15-.22-.67,0-.98-.19-.88-.9.1-.73-.22-1.04-.98-1.19-2.2-.45-4.38-1-6.57-1.5-.32-.07-.84-.23-.95.06-.42,1.14-.9.29-1.31.07-.36-.19-.67-.48-.98-.75-.41-.35-.78-.73-.59-1.34.2-.63.83-.7,1.31-.97.08-.04.28-.03.29,0,.32,1.15,1.26.59,1.89.6,3.92.05,7.83.04,11.75.01.7,0,1.03.12.95.91-.07.75-.02,1.51-.02,2.26Z" fill="#fcfcfd" stroke-width="0"/><path d="m34.96,10.88c1.77,0,3.55.06,5.32-.03.67-.03,1.57.55,2.07-.58.09-.21.93.27,1.31.6.44.39.39.95.01,1.31-.59.57-1.28,1.04-1.94,1.54-.15.11-.42.22-.48,0-.34-1.09-1.06-.52-1.65-.39-2.02.44-4.02.95-6.05,1.34-.8.15-1.15.47-1.04,1.26.09.65-.2.83-.82.85-1.13.03-2.26.13-3.39.23-.44.04-.59-.1-.59-.55.02-1.66.03-3.32,0-4.98-.02-.68.39-.59.8-.59,2.15,0,4.3,0,6.46,0Z" fill="#fcfcfd" stroke-width="0"/><path d="m23.63,21.83c-.2,2.95-.26,5.96-.86,8.93-.16.78.02,1.23.96,1.16,1.18-.08,2.33.09,3.38.68.61.34,1.16.82,1.02,1.6-.14.77-.82.9-1.48.96-1.34.14-2.7.46-3.67-.94-.36-.52-.76-.23-1.13.12-1,.95-3.14,1.24-4.35.61-.82-.42-.91-1.22-.18-1.94.8-.79,1.85-.96,2.9-1.09.34-.04.68-.05,1.02-.02.9.1,1.14-.31.99-1.13-.65-3.49-.78-7.03-.89-10.57-.03-.97.36-1.03,1.1-.98.64.05,1.44-.22,1.22.96-.09.51-.02,1.05-.02,1.64Z" fill="#fbfafb" stroke-width="0"/><path d="m3.96,9.93c1.34-.77,2.82-.93,4.28-1.1,3.72-.42,7.45-.51,11.19-.29.76.04.89.26.88.97-.05,2.79-.02,5.58-.02,8.47-.64-.22-1.05-.72-1.65-.78-.55-.05-.37-.49-.37-.78-.02-1.81-.05-3.62,0-5.44.03-.86-.27-1.09-1.1-1.08-4.4.04-8.81.02-13.21.02Z" fill="#f5f5f6" stroke-width="0"/><path d="m41.08,9.93c-4.39,0-8.75.03-13.1-.02-1-.01-1.32.27-1.27,1.27.08,1.58-.02,3.17.04,4.75.03.79-.05,1.36-.97,1.52-.33.06-.63.35-1.09.62,0-3.07,0-6,0-8.93,0-.36.05-.54.47-.56,5.16-.26,10.31-.24,15.38.95.2.05.44.09.55.41Z" fill="#f5f4f5" stroke-width="0"/><path d="m23.7,9.71c0,.91-.01,1.81,0,2.72.01.45-.04.74-.6.51-.16-.07-.39-.09-.56-.03-1.34.48-1.29-.31-1.26-1.26.08-2.34.09-4.68.29-7.01.05-.59.05-1.08.91-1.08.85,0,.9.47.92,1.07.05,1.7.34,3.38.29,5.09Z" fill="#fdfdfd" stroke-width="0"/><path d="m21.27,16.3c0-.41.04-.71,0-1.01-.16-1,.37-1.38,1.26-1.38.95,0,1.33.49,1.2,1.44-.07.52-.1,1.06-.03,1.57.14,1.07-.24,1.36-1.34,1.36-1.94,0-.61-1.46-1.09-1.99Z" fill="#f9f9f9" stroke-width="0"/><path d="m4.8,14.21c2.18.49,4.26.95,6.35,1.42.38.09.28.39.26.63-.02.27-.21.23-.4.19-2.08-.42-4.15-.89-6.06-1.88-.05-.02-.05-.13-.14-.36Z" fill="#f5f4f5" stroke-width="0"/><path d="m40.3,14.38c-1.17.8-2.4,1.09-3.59,1.44-.82.25-1.67.38-2.51.55-.21.04-.51.34-.61-.13-.08-.4.05-.57.5-.66,1.64-.33,3.27-.75,4.91-1.09.35-.08.69-.33,1.3-.1Z" fill="#f4f3f4" stroke-width="0"/></svg>