<svg id="rw-p32-shark" class="icon icon-p32-shark" xmlns="http://www.w3.org/2000/svg" xml:space="preserve" viewBox="0 0 45 22.82" preserveAspectRatio="xMidYMid meet" enable-background="new 0 0 45 22.82" role="img" aria-hidden="true" aria-labelledby=" " focusable="false" style="pointer-events: none; display: block; width: 100%; height: 100%;"> <path d="m44.96,6.66c-.11-.29-.38-.46-.66-.46h-5.53V.71c0-.39-.32-.71-.71-.71h0c-2.97,0-5.38,2.41-5.38,5.37v.83h-10.03V1.51c0-.39-.31-.71-.7-.71-3.52,0-6.65,2.15-7.94,5.4H2.44c-1.35,0-2.44,1.1-2.44,2.45,0,.09,0,.19.02.28,0,0,0,.02,0,.02.48,3.26,2.12,6.26,4.61,8.43,1.44,1.26,3.11,2.19,4.9,2.76l-.07.07c-.06.06-.11.13-.15.21-.13.28-.06.6.14.81,1.05,1.05,2.43,1.58,3.8,1.58,1.38,0,2.76-.53,3.8-1.58l.43-.43h.59l.43.43c1.02,1.02,2.38,1.59,3.83,1.59s2.81-.56,3.83-1.59c.13-.13.21-.31.21-.5,0-.01,0-.02,0-.03,2.33-.28,4.55-1.14,6.47-2.53,2.08-1.5,3.7-3.53,4.69-5.88h2.08c2.97,0,5.38-2.41,5.38-5.38,0-.09-.01-.17-.04-.25Z" stroke-width="0"/><path d="m10.94,20.63l.13-.13c.85.16,1.71.24,2.59.24h1.64c-1.33.82-3.06.79-4.35-.11Z" fill="#fff" stroke-width="0"/><path d="m22.37,21.36c-1.06,0-2.06-.41-2.81-1.16l-1.63-1.63c-.64-.64-.64-1.67,0-2.31.31-.31.72-.48,1.15-.48s.85.17,1.15.48l4.39,4.39c-.66.46-1.44.71-2.27.71Z" fill="#fff" stroke-width="0"/><path d="m39.61,10.88h-2.62c-.29,0-.56.18-.66.46-1.77,4.64-6.07,7.75-11.01,7.98l-4.03-4.03c-.59-.59-1.39-.94-2.22-.93s-1.55.32-2.12.89c-1.11,1.11-1.18,2.89-.2,4.08h-3.12c-3.01,0-5.91-1.08-8.18-3.05-2.24-1.95-3.71-4.62-4.15-7.54,0-.04,0-.07,0-.11,0-.57.46-1.03,1.03-1.03h12.1c.31,0,.58-.2.67-.49.89-2.7,3.29-4.59,6.08-4.86v4.64c0,.39.32.71.71.71h11.49c.39,0,.71-.32.71-.71v-1.54c0-1.95,1.41-3.58,3.27-3.92v5.45c0,.09.01.19.05.27.11.28.38.45.66.45h5.46c-.34,1.86-1.96,3.27-3.92,3.27Z" fill="#fff" stroke-width="0"/><path d="m13.8,11.48c-.21-.33-.65-.43-.98-.22-.33.21-.43.65-.22.98.35.54.53,1.18.53,1.83s-.18,1.28-.53,1.83c-.21.33-.11.77.22.98.12.08.25.11.38.11.23,0,.46-.12.6-.33.49-.77.75-1.67.75-2.59,0-.92-.26-1.81-.75-2.59Z" stroke-width="0"/><path d="m12.25,12.46c-.21-.33-.65-.43-.98-.22-.33.21-.43.65-.22.98.16.25.25.54.25.85s-.08.59-.25.85c-.21.33-.11.77.22.98.12.08.25.11.38.11.23,0,.46-.12.6-.33.31-.48.47-1.04.47-1.61,0-.57-.16-1.13-.47-1.61Z" stroke-width="0"/><path d="m14.36,10.29c-.33.21-.43.65-.22.98.53.84.81,1.81.81,2.8,0,1-.28,1.97-.81,2.8-.21.33-.11.77.22.98.12.08.25.11.38.11.23,0,.46-.12.6-.33.68-1.06,1.03-2.3,1.03-3.56,0-1.27-.36-2.5-1.03-3.56-.21-.33-.65-.43-.98-.22Z" stroke-width="0"/><circle cx="8.11" cy="9.51" r=".81" stroke-width="0"/></svg>