<svg id="rw-p32-zombie" class="icon icon-p32-zombie" xmlns="http://www.w3.org/2000/svg" xml:space="preserve" viewBox="0 0 45 41.22" preserveAspectRatio="xMidYMid meet" enable-background="new 0 0 45 41.22" role="img" aria-hidden="true" aria-labelledby=" " focusable="false" style="pointer-events: none; display: block; width: 100%; height: 100%;"><path d="m19.27,34c-.88-2.63-.65-5.38-.9-8.08-.09-.91-.31-1.64-.91-2.34-1.38-1.61-2.64-3.32-4.05-4.91-.68-.76-.82-1.43-.35-2.31.23-.42.31-.92.54-1.34.26-.49.07-1.49.92-1.35.78.13,1.88.21,1.72,1.61-.12,1.05.85.68,1.36.76.75.12.5-.47.5-.88,0-2.62-1.52-4.73-2.43-7.04-.24-.62-1.05-.63-1.61-.84-.6-.22-.75-.47-.45-1.05.24-.47.34-1.01.6-1.47.76-1.39,2.16-1.45,2.94-.15,1.28,2.12,2.57,4.25,3.92,6.49,0-2.61-.05-5.04.03-7.47.02-.65-.69-.72-.68-1.3.04-1.42,1.78-2.71,3.12-2.27.52.17.34.64.37.98.29,3.22.55,6.44.82,9.74.97-1.01,1.16-2.32,1.55-3.5.44-1.34,1.21-2.59,1.21-4.1,0-.38.34-1.28,1.17-.83.61.33,1.72.14,1.42,1.51-.57,2.58-.97,5.2-1.48,7.8-.07.35-.32.65.27.69.46.03,2.35-1.41,2.45-1.82.06-.27-.55-.7.1-.77.48-.06,1.04-.17,1.48.3,1.06,1.14,1.11,2.1-.16,3.03-2.41,1.76-3.55,4.12-4.43,6.95-1.22,3.93-1.57,7.78-.93,11.79.07.44.64,1.68-.74.7-.11.49-1.47-.27-.92,1,.31.71-.48,1.35-.74,2.03-.06.08-.11.16-.17.24-.84.67-.98-.64-1.6-.57-.09-.06-.17-.13-.26-.19-.29-.13-.58-.26-.88-.39-.09-.05-.18-.09-.27-.14-.66-.23-1.31-.45-2.02-.45-.16-.11-.31-.26-.51-.1Z" stroke-width="0"/><path d="m28.45,41.22c-1.17,0-2.33,0-3.5,0-1.63-.29-3.26-.29-4.89,0-4.64,0-9.28,0-13.91,0-.09-.13-.18-.13-.28,0-.2-.01-.4-.02-.6-.03-.05-.08-.12-.13-.22-.13-.92-1.38-1.77-2.83-3.67-3.44,2-.52,2.82-.36,4.96.9.24-.62-.22-1.09-.35-1.61-.12-.5-.32-.98-.24-1.67,1.18,1.23,2.35,2.46,3.69,3.86.43-1.69.8-3.15,1.29-5.03.58,1.85,1.04,3.33,1.55,4.94,1.14-1.91,2.16-3.76,4.53-4.33-.26,1.55-1.02,2.92-.5,4.82.66-1.41,1.18-2.53,1.7-3.65.1,0,.2-.01.3-.02.68,1.27,1.35,2.53,2.03,3.8.05.11.09.31.15.31.19.01.31-.11.33-.31.2-.35.44-.68.4-1.11.05-.1.09-.21.14-.31.29-.73.1-1.45-.1-2.22.31.07.57.12.82.18.09.07.19.13.28.2.79.55,1.41,1.23,1.81,2.11.05.34.06.7.43.99.14-.38.26-.68.38-.99.5-.87,1-1.74,1.61-2.79.61,1.26,1.16,2.39,1.82,3.75.58-1.77-.23-3.16-.49-4.74,2.38.54,3.4,2.38,4.52,4.34.51-1.61.97-3.08,1.56-4.96.48,1.87.85,3.33,1.26,4.92,1.48-1.06,2.36-2.66,4.08-4-.44,1.35-.75,2.31-1.16,3.59,1.67-.92,3.2-1.64,5.27-.98-1.98.66-2.84,2.09-3.76,3.47-.17.06-.34.12-.51.18-3.1,0-6.19,0-9.29,0-.47-.27-.95-.27-1.42,0Z" stroke-width="0"/><path d="m41.99,23.33c.72-.39,1.25-.52,1.53-.86.37-.44.64-.93,1.11-.25.31.44.69,1.1-.11,1.46-2.78,1.23-3.61,3.95-4.18,6.4-.63,2.7-2.84,3.83-4.24,6.28-.43-1.79-1.03-3.11-.76-4.44.5-2.43-.57-4.28-1.84-6.12-.39-.57-.77-1.12-.2-1.81.32-.39.33-1.15.89-1.2.66-.05.96.45.93,1.15-.01.29.33.3.57.32.42.02.47-.3.44-.58-.2-1.58-.11-3.28-1.55-4.41-.33-.26-.39-.44-.2-.82.27-.55.63-.95,1.24-1.1.47-.12.57.19.7.52.53,1.23,1.07,2.45,1.72,3.68.24-1.39.66-2.75.45-4.15-.11-.76-.1-1.14.79-1.23.98-.1,1.14.32,1.03,1.15-.14,1.09-.22,2.19-.29,3.29-.02.25-.16.62.21.74.37.12.48-.24.6-.48.43-.86.87-1.71,1.25-2.59.18-.42.29-.85.89-.62.54.21.69.57.49,1.14-.49,1.4-.92,2.81-1.5,4.57Z" stroke-width="0"/><path d="m11.89,23.51c-.15.41-.37.78-.61,1.15-1.04,1.61-1.5,3.23-1.27,5.28.22,1.99-.83,3.99-1.32,6.13-1.75-1.77-3.19-3.35-3.49-5.99-.33-2.93-1.47-5.77-4.41-7.32-.55-.28-1.03-.58-.69-1.32.29-.59.54-1.17,1.19-.23.26.36.75.58,1.46.33-.47-1.24-.91-2.47-1.39-3.68-.23-.58-.44-1.11.33-1.42.83-.34.76.41.99.82.43.79.9,1.57,1.45,2.52.62-1.31.2-2.48.27-3.61-.06-.5-.49-1.06-.02-1.46.34-.29.97-.33,1.36-.06.63.44.49,1.15.33,1.81.02.28.06.57.08.86.17.36.3.75.22,1.17.13.55.26,1.11.45,1.92.56-1.52,1.01-2.77,1.5-4.02.1-.28.1-.7.62-.63.7.09,1.08.52,1.41,1.1.23.41.07.55-.22.82-1.35,1.22-1.18,2.91-1.28,4.51-.02.23.08.54.36.52.26-.01.7-.1.68-.41-.07-.8.44-1.46.97-1.07.62.44,1.43,1.22,1.03,2.3Z" stroke-width="0"/></svg>