<svg id="rw-p32-parade" class="icon icon-p32-parade" xmlns="http://www.w3.org/2000/svg" xml:space="preserve" viewBox="0 0 33.73 44.9" preserveAspectRatio="xMidYMid meet" enable-background="new 0 0 33.73 44.9" role="img" aria-hidden="true" aria-labelledby=" " focusable="false" style="pointer-events: none; display: block; width: 100%; height: 100%;"><path d="m11.58,0c1.08.66,1.25,1.11.88,2.38-.11.39-.21.79-.35,1.17-.58,1.51-.71,3.07-.64,4.68.06,1.45-.43,2.69-1.57,3.68,1.47.94,2.4,2.23,2.7,4.06.23-.41.4-.73.6-1.04,1.76-2.81,4.27-4.54,7.52-5.15,2.13-.4,4.21-.15,6.21.68.53.22.77.73.57,1.2-.19.46-.68.66-1.21.45-1.26-.49-2.56-.77-3.92-.72-2.92.11-5.27,1.34-7.07,3.62-1.36,1.73-1.97,3.73-1.94,5.94,0,.35.1.4.43.33,1.83-.41,3.66-.8,5.5-1.18.26-.05.38-.16.45-.43.37-1.45,1.9-2.28,3.31-1.83,1.44.46,2.19,1.99,1.68,3.44-.49,1.37-2.07,2.07-3.43,1.52-.44-.18-.82-.45-1.1-.83-.12-.16-.22-.21-.43-.16-1.93.43-3.86.85-5.8,1.25-.27.06-.28.12-.21.36,1.25,4.08,5.09,6.79,9.35,6.58,4.31-.21,7.99-3.43,8.71-7.68.3-1.79.14-3.54-.59-5.23-.14-.32-.29-.65-.13-1.01.15-.33.42-.53.78-.54.43-.02.71.24.88.6.31.69.55,1.41.71,2.15,1.23,5.7-2.06,11.46-7.76,13.04-4.1,1.14-7.75.16-10.85-2.76-.43-.41-.83-.86-1.17-1.36-.08-.11-.12-.28-.35-.28.24.82.48,1.63.72,2.44.22.74.06,1.08-.67,1.38.93,1.86,1.87,3.71,2.77,5.57.28.58.64,1.04,1.19,1.39.7.45,1.36.96,2.02,1.46.74.55.69,1.23-.1,1.69-1.36.79-2.72,1.58-4.08,2.37-.68.39-1.09.29-1.5-.37-1.52-2.43-3.04-4.87-4.55-7.3-.04-.07-.06-.16-.19-.2-.15,1.28-.24,2.55-.46,3.81-.17.94.05,1.74.46,2.55.3.6.56,1.21.82,1.83.34.79-.05,1.36-.91,1.36-1.62,0-3.24,0-4.87,0-.65,0-1-.35-1.01-1,0-2.28,0-4.56,0-6.84,0-.54.29-.9.74-1,.36-.07.75.13.94.49.1.19.09.4.09.6,0,.7.02,1.4,0,2.1-.01.32.09.4.39.38.41-.02.82-.02,1.23,0,.22,0,.29-.05.32-.28.16-1.42.34-2.84.5-4.26.15-1.32.29-2.64.45-3.95.04-.34-.05-.41-.38-.41-1.58.02-3.16,0-4.73,0-1.02,0-1.37-.47-1.08-1.45.38-1.27.73-2.54,1.13-3.8.1-.31.02-.37-.26-.41C.9,24.92,0,23.92,0,22.5c0-1.89,0-3.77,0-5.66,0-2.49,1.42-4.3,3.84-4.91.1-.02.2-.02.31-.13-.27-.33-.58-.63-.79-1.01-.41-.71-.67-1.47-.61-2.29.14-1.95-.17-3.82-.86-5.64-.06-.16-.09-.34-.14-.5-.37-1.25-.18-1.75.9-2.37h8.94Z" stroke-width="0"/><path d="m6.53,23.33c-1.27,0-2.54,0-3.81,0-.67,0-.95-.29-.96-.96,0-1.87-.01-3.74,0-5.61.01-1.58.92-2.71,2.46-3.08.75-.18,1.52-.3,2.24-.57,1.39-.52,3.21.46,3.9,1.7.36.64.52,1.32.52,2.05,0,.77,0,1.55,0,2.32,0,.13.06.28-.2.27-1.4-.02-2.8-.04-4.21-.02-.4,0-.48-.12-.47-.49,0-.77.07-1.55-.04-2.32-.05-.34-.27-.56-.58-.65-.34-.1-.67-.04-.92.24-.19.22-.25.49-.25.77,0,1.04,0,2.07,0,3.11,0,.76.36,1.11,1.14,1.11,1.69,0,3.39,0,5.08,0,.56,0,.98.35,1.1.87.1.45-.18.94-.65,1.17-.18.09-.37.08-.56.08-1.27,0-2.54,0-3.81,0Z" fill="#fff" stroke-width="0"/><path d="m3.41,28.93c.36-1.22.71-2.4,1.06-3.58.05-.18.14-.23.31-.23,1.99,0,3.97,0,5.96,0,.16,0,.24.07.28.21.35,1.19.7,2.39,1.06,3.6H3.41Z" fill="#fff" stroke-width="0"/><path d="m7.08,6.49c.76,0,1.52,0,2.28,0,.24,0,.33.06.32.31-.05.81.12,1.64-.1,2.44-.35,1.28-1.47,2.04-2.77,1.9-1.22-.14-2.18-1.13-2.27-2.34-.05-.69,0-1.37-.04-2.06-.01-.25.13-.24.3-.24.76,0,1.52,0,2.28,0Z" fill="#fff" stroke-width="0"/><path d="m3.41,1.76h7.38c-.28.95-.56,1.88-.84,2.82-.04.15-.14.15-.26.15-1.72,0-3.44,0-5.17,0-.18,0-.26-.06-.31-.23-.26-.9-.53-1.81-.8-2.75Z" fill="#fff" stroke-width="0"/><path d="m10.59,30.74c.63-.22.95.19,1.25.82.87,1.86,1.81,3.68,2.73,5.52.12.24.12.36-.14.49-.4.2-.79.44-1.17.68-.18.11-.28.12-.41-.08-1.15-1.86-2.3-3.71-3.47-5.56-.18-.29-.05-.56-.02-.85q.12-1.01,1.22-1.01Z" fill="#fff" stroke-width="0"/><path d="m7.66,43.14c-.91,0-1.76,0-2.6,0-.22,0-.31-.05-.3-.29.02-.39.02-.79,0-1.18-.01-.24.07-.32.3-.29.04,0,.09,0,.13,0,.57.02,1.28-.23,1.66.08.42.34.54,1.06.81,1.67Z" fill="#fff" stroke-width="0"/><path d="m17.31,39.89c0,.11-.09.12-.15.15-.7.41-1.41.81-2.11,1.23-.15.09-.23.06-.31-.08-.23-.37-.45-.74-.69-1.11-.1-.15-.06-.22.08-.3.52-.29,1.03-.59,1.54-.89.1-.06.18-.08.28,0,.42.31.85.61,1.27.92.03.02.05.06.08.09Z" fill="#fff" stroke-width="0"/><path d="m22.28,19.47c.46.01.87.44.85.89-.02.46-.45.87-.9.84-.44-.03-.83-.44-.83-.87,0-.45.44-.88.88-.86Z" fill="#fff" stroke-width="0"/></svg>