<svg id="rw-p32-crossbow" class="icon icon-p32-crossbow" xmlns="http://www.w3.org/2000/svg" xml:space="preserve" viewBox="0 0 45 45" preserveAspectRatio="xMidYMid meet" enable-background="new 0 0 45 45" role="img" aria-hidden="true" aria-labelledby=" " focusable="false" style="pointer-events: none; display: block; width: 100%; height: 100%;"><path d="m44.57,0c.45.39.47.83.27,1.38-.71,2.03-1.36,4.08-2.04,6.13-.12.37-.27.72-.73.76-.48.04-.7-.27-.88-.64-.25-.51-.51-1.01-.75-1.53-.09-.18-.14-.3-.35-.09-1.44,1.46-2.89,2.91-4.35,4.35-.17.17-.1.25.02.38,1.53,1.61,2.88,3.35,4.07,5.21,2.19,3.43,3.73,7.14,4.57,11.13.34,1.62.56,3.25.6,4.91.02.81-.39,1.14-1.17.95-.86-.21-1.72-.43-2.58-.66-.61-.16-.77-.35-.79-.98-.02-.59-.11-1.16-.18-1.74-.02-.18-.07-.21-.24-.19-2.71.37-5.41.74-8.12,1.1-2.75.37-5.5.72-8.25,1.08-2.75.37-5.5.75-8.25,1.12-.81.11-1.62.2-2.43.31-.61.08-1.01-.25-.95-.87.08-.86.21-1.71.32-2.56.25-1.87.5-3.73.75-5.6.25-1.87.49-3.73.74-5.6.25-1.87.5-3.73.75-5.6.25-1.9.51-3.79.76-5.69.09-.69.19-1.39.29-2.08.02-.17-.02-.22-.2-.24-.52-.05-1.04-.16-1.57-.17-.8-.02-1.02-.2-1.21-.98-.19-.76-.37-1.53-.56-2.29-.17-.7-.11-.89.46-1.29h.79c.02.07.07.08.13.09,1.1.07,2.18.23,3.25.44,3.8.73,7.41,2.01,10.81,3.88,2.43,1.34,4.67,2.94,6.7,4.84.18.17.27.17.45,0,1.41-1.43,2.83-2.85,4.26-4.26.21-.2.21-.29-.06-.42-.54-.25-1.07-.53-1.61-.79-.34-.17-.57-.4-.55-.81.03-.42.3-.6.66-.72.93-.31,1.85-.61,2.77-.94,1.26-.44,2.54-.8,3.78-1.32h.62Z" stroke-width="0"/><path d="m0,39.99c.49-1.27,1.54-2.09,2.46-3.01,2.43-2.44,4.87-4.87,7.3-7.3.22-.22.43-.43.78-.41.56.03.9.62.61,1.11-.1.16-.23.3-.37.43-2.83,2.83-5.65,5.65-8.48,8.48-.16.16-.31.31-.45.48-.4.49-.43.94-.02,1.42.62.73,1.3,1.39,2.02,2.02.45.39.89.36,1.35,0,.18-.15.35-.31.51-.48,2.82-2.81,5.64-5.63,8.45-8.45.1-.1.2-.21.32-.31.36-.29.78-.28,1.07.02.27.29.27.73-.02,1.07-.06.07-.12.13-.18.19-2.89,2.89-5.78,5.78-8.67,8.67-.55.54-1.14,1.01-1.95,1.09-.63.07-1.2-.12-1.68-.5-.93-.74-1.75-1.6-2.52-2.5-.26-.3-.32-.71-.53-1.03v-.97Z" stroke-width="0"/><path d="m5.28,40.48c0,.43-.31.75-.74.76-.42,0-.76-.32-.76-.74,0-.4.34-.76.75-.77.4,0,.75.34.76.75Z" stroke-width="0"/><path d="m14.54,24.74c.46-3.5.91-7.01,1.38-10.51.42-3.18.86-6.37,1.29-9.55.13-.96-.03-1.18-1-1.35-.6-.11-1.21-.23-1.82-.25-.2,0-.32-.07-.35-.3-.03-.23-.11-.45-.17-.68-.12-.48-.11-.49.38-.42,1.5.21,2.99.5,4.46.89,5.12,1.34,9.75,3.63,13.75,7.11,3.22,2.81,5.79,6.15,7.69,9.98,1.5,3.01,2.54,6.16,3.03,9.49.1.68.16,1.36.26,2.11-.47-.11-.89-.22-1.32-.32-.18-.04-.18-.18-.18-.3-.02-.69-.18-1.36-.28-2.04-.09-.64-.36-.89-1-.82-1.25.14-2.49.32-3.74.48-1.87.25-3.74.5-5.6.75-1.87.25-3.74.5-5.6.75-1.85.25-3.7.49-5.62.75.15-.16.26-.28.37-.39,4.02-4.02,8.04-8.04,12.06-12.05.52-.52.61-.96.26-1.32-.35-.36-.81-.28-1.32.23-4.48,4.47-8.95,8.94-13.42,13.43-.35.35-.72.5-1.18.54-.61.06-1.21.15-1.82.23-.05-.16.08-.2.16-.28,5.6-5.6,11.21-11.21,16.8-16.82.21-.21.29-.15.46.03,3.08,3.32,5.42,7.08,6.84,11.4.18.55.49.81.88.77.51-.06.79-.54.62-1.08-.65-2.08-1.55-4.05-2.63-5.94-1.9-3.28-4.28-6.18-7.15-8.66-3.27-2.83-6.94-4.98-11.05-6.34-.6-.2-1.03-.05-1.2.42-.15.43.11.84.7,1.03,2.33.75,4.52,1.81,6.59,3.1,1.77,1.1,3.39,2.39,4.92,3.8.22.2.09.27-.04.4-1.01,1-2.01,2.01-3.01,3.01-4.54,4.54-9.07,9.07-13.61,13.61-.08.08-.16.17-.25.25-.06.06-.14.14-.22.07-.04-.03-.04-.14-.02-.2.2-.65.21-1.32.31-1.98.04-.27.16-.45.34-.63,4.53-4.52,9.06-9.05,13.58-13.58.23-.23.47-.44.45-.81-.02-.56-.61-.91-1.1-.62-.16.09-.3.23-.43.36-4,4-8,7.99-12,11.99-.11.11-.24.21-.36.32-.02-.02-.04-.04-.06-.05Z" fill="#fff" stroke-width="0"/><path d="m39.49,3.15c1.2-.41,2.32-.78,3.54-1.19-.4,1.21-.77,2.33-1.17,3.54-.35-.53-.46-1.12-.85-1.5-.39-.38-.97-.51-1.51-.84Z" fill="#fff" stroke-width="0"/></svg>