<svg id="rw-p32-treasure" class="icon icon-p32-treasure" xmlns="http://www.w3.org/2000/svg" xml:space="preserve" viewBox="0 0 45 35.43" preserveAspectRatio="xMidYMid meet" enable-background="new 0 0 45 35.43" role="img" aria-hidden="true" aria-labelledby=" " focusable="false" style="pointer-events: none; display: block; width: 100%; height: 100%;"><path d="m22.35,35.4c-6.64,0-13.28-.05-19.92.03-1.75.02-2.46-.42-2.43-2.34.11-6.56.01-13.12.04-19.68.01-3.33.71-6.52,2.28-9.47C3.69,1.35,5.74-.03,8.83,0c9.1.09,18.2.09,27.29,0,3.21-.03,5.26,1.47,6.63,4.17,1.44,2.82,2.15,5.86,2.18,9,.08,6.64-.04,13.28.06,19.92.03,1.94-.79,2.34-2.49,2.33-6.72-.06-13.44-.02-20.16-.03Z" stroke-width="0"/><path d="m23.4,13.61c-.38,0-.76,0-1.14.01q-5.41-.11-5.44,5.28c0,.49,0,.98,0,1.47,0,4.65,0,4.69,4.63,4.64,2.11-.02,4.77.88,6.18-.38,1.55-1.4.47-4.15.53-6.3.12-4.74.05-4.74-4.76-4.71Z" fill="#fff" stroke-width="0"/><path d="m22.58,33.79s0,0,0,0c6.22,0,12.45-.01,18.67.01,1.26,0,2.21-.04,2.19-1.77-.07-5.57-.04-11.14,0-16.71,0-1.23-.36-1.78-1.68-1.75-3.44.06-6.88.03-10.32.02-.99,0-1.72.09-1.74,1.42-.02,1.35.72,1.41,1.71,1.4,2.46-.02,4.92.05,7.37-.03,1.51-.05,2.27.39,2.23,2.07-.08,3.44-.08,6.88,0,10.32.04,1.65-.67,2.09-2.2,2.09-10.89-.03-21.78-.03-32.68.02-1.55,0-2.19-.47-2.14-2.11.11-3.44.12-6.88.02-10.32-.05-1.67.62-2.13,2.17-2.07,2.29.09,4.59.03,6.88.02,1.02,0,2.22.31,2.17-1.44-.05-1.77-1.31-1.34-2.29-1.36-3.03-.04-6.07.1-9.09-.05-1.93-.1-2.33.66-2.29,2.41.1,5.16.11,10.32,0,15.48-.04,1.82.49,2.42,2.34,2.39,6.22-.1,12.45-.04,18.67-.04Z" fill="#fff" stroke-width="0"/><path d="m22.56,29.26c4.91,0,9.82,0,14.74,0,1.07,0,2.18.16,2.14-1.53-.07-2.78-.02-5.57,0-8.35,0-.72-.1-1.38-.98-1.38-2.77-.01-5.87-.86-8.2.36-1.48.78-.32,3.79-.52,5.79-.02.16-.02.33,0,.49.15,1.49-.54,2.04-2.01,2.01-3.52-.06-7.04-.08-10.56,0-1.54.03-2.01-.62-1.95-2.06.07-1.63-.02-3.28,0-4.91.02-1.21-.42-1.79-1.73-1.75-2.13.07-4.26.06-6.39,0-1.19-.03-1.57.47-1.55,1.6.05,2.54.13,5.08-.02,7.61-.11,1.82.66,2.17,2.28,2.15,4.91-.08,9.82-.03,14.74-.03Z" fill="#fff" stroke-width="0"/><path d="m22.34,8.11v.02c4.34,0,8.68.02,13.03-.02.64,0,1.52.35,1.72-.81.4-2.35-2.35-5.69-4.76-5.69-6.23-.01-12.45,0-18.68,0-3.5,0-4.84,1.18-5.63,4.66-.34,1.48.12,1.89,1.55,1.87,4.26-.05,8.52-.02,12.78-.02Z" fill="#fff" stroke-width="0"/><path d="m36.73,1.79c.94,1.95,1.92,3.82,2.03,5.99.07,1.34-.32,1.96-1.75,1.95-9.66-.04-19.33-.05-28.99,0-1.78,0-2.03-.84-1.85-2.31.24-1.99,1.27-3.74,1.92-5.75-2.05,0-3.11,1.08-4,2.4-1.12,1.66-1.55,3.58-2.1,5.47-.58,1.98-.03,2.54,2.02,2.52,11.3-.08,22.61-.04,33.91-.04,5.94,0,6.38-.7,3.86-6.24-.44-.96-1.01-1.89-1.7-2.68-.8-.91-1.78-1.7-3.34-1.31Z" fill="#fff" stroke-width="0"/><path d="m22.31,14.31c.34.02.68.04,1.03.07,2.53,1.84,2.74,3.07.61,5.23-.86.87-.53,1.79-.69,2.69-.09.51-.25.97-.88.91-.52-.05-.66-.51-.61-.9.21-1.54-.65-2.43-1.61-3.51-1.43-1.59-.35-3.61,2.15-4.5Z" stroke-width="0"/><path d="m23.76,17.2c-.1-.67-.38-1.24-1.17-1.27-.87-.03-1.38.47-1.36,1.33.02.74.52,1.19,1.27,1.17.73-.02,1.19-.43,1.26-1.23Z" fill="#fff" stroke-width="0"/></svg>