<svg width="16" height="16" viewBox="0 0 16 16" fill="none" xmlns="http://www.w3.org/2000/svg" class=" " role="img" aria-hidden="true" aria-labelledby=" "><path d="M8.5 0.499756V6.49976H13L7.5 15.4998V9.49976H3L8.5 0.499756Z" fill="currentColor"></path><path d="M8.5 0.499756H9L8.07336 0.239031L8.5 0.499756ZM8.5 6.49976H8L8.5 6.99976V6.49976ZM13 6.49976L13.4266 6.76048L13 5.99976V6.49976ZM7.5 15.4998H7L7.92664 15.7605L7.5 15.4998ZM7.5 9.49976H8L7.5 8.99976V9.49976ZM3 9.49976L2.57336 9.23903L3 9.99976V9.49976ZM8 0.499756V6.49976H9V0.499756H8ZM8.5 6.99976H13V5.99976H8.5V6.99976ZM12.5734 6.23903L7.07336 15.239L7.92664 15.7605L13.4266 6.76048L12.5734 6.23903ZM8 15.4998V9.49976H7V15.4998H8ZM7.5 8.99976H3V9.99976H7.5V8.99976ZM3.42664 9.76048L8.92664 0.760481L8.07336 0.239031L2.57336 9.23903L3.42664 9.76048Z" fill="currentColor"></path></svg>