<?xml version="1.0" encoding="UTF-8"?><svg id="a" xmlns="http://www.w3.org/2000/svg" viewBox="0 0 45 48.74"><path d="m25.15,1.1c-1.46-1.46-3.84-1.46-5.31,0L1.1,19.84c-1.46,1.46-1.46,3.84,0,5.31,1.46,1.46,3.84,1.46,5.31,0L22.5,9.05l16.1,16.08c1.46,1.46,3.84,1.46,5.31,0s1.46-3.84,0-5.31L25.16,1.09h-.01Z" fill="#010101" stroke-width="0"/><path d="m43.89,42.33l-18.74-18.74c-1.46-1.46-3.84-1.46-5.31,0L1.1,42.33c-1.46,1.46-1.46,3.84,0,5.31s3.84,1.46,5.31,0l16.1-16.1,16.1,16.08c1.46,1.46,3.84,1.46,5.31,0s1.46-3.84,0-5.31h-.01Z" fill="#010101" stroke-width="0"/></svg>