<svg id="rw-rabbit-clips-neutral" class="icon" xmlns="http://www.w3.org/2000/svg" xml:space="preserve" viewBox="0 0 1000 1081.39" preserveAspectRatio="xMidYMid meet" enable-background="new 0 0 1000 1081.39" role="img" aria-hidden="true" aria-labelledby=" " focusable="false" style="pointer-events: none; display: block; width: 100%; height: 100%;"><path d="m500,476.39L97.89,878.5C36.39,795.44,0,692.64,0,581.38c0-1.12,0-2.2.07-3.32.22-34.85,4-68.86,11.01-101.67h488.92Z" fill="#cba9ca" stroke-width="0"/><path d="m500,476.39v605c-138.47,0-263.74-56.27-354.2-147.2-17.29-17.35-33.31-35.96-47.91-55.69l402.11-402.11Z" fill="#fee0e8" stroke-width="0"/><path d="m902.14,878.53c-14.05,18.98-29.41,36.94-45.94,53.72-90.26,91.67-215.6,148.61-354.2,149.14h-2V476.39l402.14,402.14Z" fill="#fefeb4" stroke-width="0"/><path d="m1000,581.38c0,111.3-36.4,214.11-97.86,297.15l-402.14-402.14h488.91c7.01,32.81,10.8,66.82,11.02,101.67.07,1.12.07,2.2.07,3.32Z" fill="#cbe1ca" stroke-width="0"/><path d="m988.91,476.39h-488.91l297.14-297.14c19.74,14.61,38.36,30.64,55.72,47.94,67.22,66.97,115.49,152.95,136.05,249.2Z" fill="#fdada4" stroke-width="0"/><path d="m797.14,179.25l-297.14,297.14V81.39h2c110.52.43,212.57,36.73,295.14,97.86Z" fill="#d3efef" stroke-width="0"/><path d="m500,81.39v395L202.88,179.27c83.04-61.5,185.84-97.88,297.12-97.88Z" fill="#fed7bd" stroke-width="0"/><path d="m500,476.39H11.08c20.75-97.19,69.77-183.9,138.06-251.14,16.79-16.55,34.75-31.93,53.74-45.98l297.12,297.12Z" fill="#323232" stroke-width="0"/><path d="m501.34,951.32c-12.79-.11-24.41.41-35.95-1.04-21.33-2.69-42.39-6.72-62.94-13.17-32.59-10.24-62.81-25.37-90.73-44.95-9.59-6.72-18.75-14.09-27.52-21.95-5.8-5.2-11.35-10.63-16.84-16.12-18.03-18.04-33.26-38.24-46.4-60.1-12.38-20.61-22.47-42.21-29.96-65.05-5.98-18.26-10.1-36.89-13.14-55.89-3.7-23.22-3.44-46.54-2.52-69.76.88-21.98,4.9-43.72,11.18-64.96,5.47-18.49,11.73-36.65,20.53-53.84,1.76-3.44-.5-6.22-1.53-8.95-7.58-20.03-13.16-40.58-17.62-61.53-3.1-14.58-5.62-29.25-7.62-43.97-1.56-11.48-2.32-23.14-3.43-34.7-2.88-30.16-1.68-60.35-1.66-90.51.01-18.38,1.75-36.71,3.63-55.03,1.41-13.79,3.12-27.53,5.34-41.18,2.51-15.41,5.92-30.68,10.08-45.75,4.44-16.1,9.98-31.85,17.15-46.89,5.11-10.73,11.21-21.01,18.83-30.34,6.6-8.07,13.89-15.17,23.17-20,14.37-7.48,28.91-7.59,43.22,0,17.09,9.05,27.54,24.23,36.74,40.56,13.45,23.88,21.36,49.81,27.42,76.25,3.72,16.22,6.65,32.68,8.4,49.33,1.41,13.33,2.76,26.65,4,40,1.88,20.16,1.81,40.33,1.84,60.52.02,12.98-.07,25.96.08,38.94.03,2.22-.89,4.12-1.07,6.22-.42,4.89,3.04,7.66,7.52,5.8,13.51-5.62,27.43-9.99,41.63-13.35,12.28-2.9,24.72-4.97,37.27-6.65,18.83-2.52,37.68-1.92,56.52-1.71,18.59.21,36.89,3.29,55.05,7.33,16.19,3.59,31.86,8.73,47.36,14.52,4.35,1.62,6.51,0,6.58-4.87.14-10.88-.94-21.68-1.82-32.52-1.02-12.45-1.64-24.9-.42-37.52,1.26-13.03,3.71-25.65,8.37-37.71,11.91-30.78,33.77-51.23,65.67-60.08,9.38-2.6,19.31-3.74,29.15-3.18,23.77,1.35,45.77,8.33,66.33,20.51,15.87,9.4,30,20.83,42.73,34.03,11.55,11.98,21.43,25.34,30.99,38.92,16.9,23.98,32.8,48.55,45.32,75.19,8.58,18.25,15.93,36.82,18.71,56.99,1.86,13.48,2.18,26.93-3.34,39.5-5.37,12.24-15.38,19.67-28.52,22.76-19.6,4.62-38.36.64-56.95-5.34-8.41-2.7-16.5-6.23-24.59-9.73-4.44-1.92-6.69-1.1-7.62,3.29-3.96,18.74-9.78,36.91-16.64,54.75-1.14,2.97-.8,5.23.53,7.98,11.6,24.13,20.05,49.3,25.15,75.63,2.32,12,3.91,24.03,5.07,36.2,1.64,17.27,1.65,34.61.54,51.74-2.2,34.14-10.05,67.27-23,99.03-10.37,25.44-24,49.15-40.27,71.21-8.05,10.92-17.11,21.1-26.54,30.98-18.78,19.69-39.65,36.7-62.55,51.24-18.48,11.74-38.17,21.11-58.63,28.93-16.71,6.39-33.9,11.15-51.36,14.61-10.96,2.17-22.13,3.66-33.38,4.59-9.63.8-19.19.21-27.57.77Z" stroke-width="0"/><path d="m650.97,316.43c18.43,12.15,36.39,24.03,54.39,35.87,25.31,16.64,50.63,33.25,75.97,49.85.92.6,2.06.88,3.1,1.31,3.26,1.34,3.93,3.36,3.12,6.97-4.92,21.97-11.14,43.52-19.55,64.43-2.73,6.8-1.1,13.58,2.05,19.71,10.18,19.82,17.33,40.75,22.54,62.3,3.31,13.7,5.31,27.68,6.54,41.82,1.42,16.44,1.05,32.87.55,49.25-.35,11.43-2.35,22.88-4.47,34.27-2.75,14.77-6.44,29.22-11.3,43.36-10.37,30.21-25.6,57.84-44.92,83.26-8.86,11.66-18.43,22.7-28.96,32.85-17.85,17.21-37.42,32.16-58.88,44.67-18.66,10.87-38.21,19.65-58.77,26.15-15.53,4.91-31.39,8.31-47.49,10.99-22.21,3.69-44.53,3.46-66.75,2.53-20.02-.84-39.78-4.72-59.23-10.14-18.47-5.15-36.24-11.95-53.33-20.5-18.94-9.47-36.76-20.74-53.23-34.15-10.22-8.33-20.24-16.87-29.28-26.45-16.43-17.42-30.95-36.32-43-57.07-10.83-18.66-19.68-38.18-26.1-58.79-4.89-15.71-8.9-31.58-11.06-47.97-1.67-12.73-3.11-25.41-2.89-38.26.16-9.3-.56-18.66.15-27.91,1.52-19.89,4.45-39.61,10.02-58.82,5.23-18.04,11.57-35.66,20.19-52.42,4.44-8.64,2.47-16.9-.97-25.6-7.76-19.58-13.19-39.9-17.45-60.56-2.68-13.01-4.92-26.1-6.66-39.22-1.52-11.49-2.31-23.14-3.44-34.7-3.02-30.99-1.74-62.01-1.59-93.01.08-16.85,1.71-33.71,3.61-50.53,1.63-14.39,3.57-28.69,6.12-42.94,2.9-16.18,6.65-32.11,11.63-47.79,5.75-18.13,12.45-35.77,23.41-51.48,4.83-6.92,9.71-13.75,17.21-18.33,9.08-5.55,18.84-5.5,27.06.89,12.92,10.04,20.87,23.8,27.59,38.21,8.91,19.1,14.92,39.24,19.47,59.8,2.69,12.16,4.81,24.42,6.79,36.73,2.06,12.88,2.77,25.9,4.75,38.78.72,4.68.66,9.51.95,14.25,1.95,31.38,1.13,62.81,1.01,94.23-.02,4.87-.74,9.81-.88,14.75-.48,16.8,18.27,29.48,34.34,22.49,19.33-8.41,39.51-14.07,60.25-18.31,25.97-5.3,52.11-5.51,78.24-4.5,19.88.76,39.54,4.55,58.79,9.96,14.05,3.95,27.37,10.02,41.33,14.12,13.01,3.82,27.57-6.9,28.96-21.53.39-4.06.06-8.2.06-12.8Z" fill="#fefefe" stroke-width="0"/><path d="m647.97,263.86c-.28-16.93,2.16-33.58,9.36-48.82,10.13-21.43,26.44-36.02,50.59-40.65,29.82-5.71,55.9,3.82,80.12,19.81,20.88,13.8,37.39,32.12,52.06,52.38,12.41,17.13,24.51,34.45,35.1,52.73,13.14,22.69,24.66,46.19,30.63,71.95,1.84,7.93,1.5,16.15.98,24.2-.65,10.11-9.07,16.59-20.44,16.96-17.42.57-33.57-4.47-49.33-11.05-29.99-12.53-57.33-29.69-84.16-47.87-31.47-21.31-63.36-42-95.23-62.71-6.78-4.41-9.27-10.47-9.66-17.95-.16-2.99-.03-5.99-.03-8.99Z" fill="#fefefe" stroke-width="0"/><path d="m500.5,628.36c14.33,0,28.66,0,42.99,0,5.74,0,9.98,2.8,11.1,8.19,1.2,5.73.82,11.1-3.93,15.8-11.79,11.67-23.23,23.7-34.76,35.64-2.39,2.47-4.36,5.36-6.84,7.73-5.73,5.47-14.24,4.76-18.67-1.72-1.23-1.8-2.63-3.33-4.1-4.85-12.13-12.52-24.29-25-36.45-37.49-7.01-7.2-6.52-16.13-.94-20.78,2.13-1.78,4.33-2.59,7.12-2.57,14.83.09,29.66.04,44.49.04Z" stroke-width="0"/><path d="m330.03,533.32c.6-7.8-1.07-17.26.99-26.6,2.18-9.87,7.33-17.81,14.69-24.73,7.8-7.33,16.93-11.61,27.14-13.95,3.46-.79,7.03-1.55,10.55-1.58,18.81-.15,37.61-.08,56.42-.07,6.41,0,10.15,3.65,10.18,9.82.04,6.57-3.6,10.16-10.35,10.16-18.14.01-36.3-.43-54.42.14-14.42.46-25.88,6.99-32.85,20.1-1.66,3.13-2.41,6.62-2.39,10.27.06,13.15.04,26.3.02,39.44-.01,6.32-3.73,10.03-9.97,10.04-6.26,0-9.99-3.69-10.01-9.99-.03-7.16,0-14.31,0-23.05Z" stroke-width="0"/><path d="m588.62,466.39c8.65,0,17.32-.23,25.96.05,14.46.48,27.45,4.86,38.58,14.55,11.45,9.97,17.1,22.24,16.85,37.43-.21,12.64-.03,25.3-.05,37.95-.01,6.31-3.74,10.01-10,10-6.24,0-9.97-3.71-9.98-10.03-.02-12.32-.39-24.65.09-36.94.55-14.25-9.5-25.41-21.69-30.02-5.84-2.21-11.84-3.1-18.1-3.05-16.64.14-33.29.06-49.93.05-6.75,0-10.39-3.59-10.36-10.15.03-6.19,3.77-9.82,10.17-9.84,9.49-.02,18.97,0,28.46,0Z" stroke-width="0"/><path d="m633.98,514.38c10.36,14.01,7.94,42.06-9.85,54.77-20.05,14.33-54.48,7.56-62.36-19.5-7.23-24.84,4.82-47.72,30.14-52.92,6.7-1.38,14.29-1.88,21.07,1.65-6.23,2.65-8.6,9.23-6.12,17.03.1.33.08.65-.04.96-3.22,1.34-3.52,6.65-6.83,6.55-3.28-.09-4.39-4.51-6.54-6.92-3.63-4.05-7.68-5.01-11.75-1.8-5.97,4.72-8.27,17.39-3.73,23.46,4.82,6.44,10.32,12.36,15.38,18.63,4.6,5.7,8.76,5.77,13.12.18,2.33-2.98,4.95-5.75,7.47-8.57,5.97-6.67,12.11-13.26,10.13-23.38,5.08-1.65,9.29-4.16,9.91-10.16Z" fill="#cb0000" stroke-width="0"/><path d="m434.03,516.19c14.69,22.29.89,54.01-26.15,59.33-18.37,3.61-35.37-5-43.47-20.64-9.55-18.44-4.09-40.41,13.79-52.02,10.13-6.58,21.07-8.55,32.74-4.4-4.26,5-6.73,10.42-3.92,17.04,0,.3-.06.59-.15.87-.28.17-.61.29-.82.52q-6.54,6.84-12.61-.59c-3.4-4.16-11.04-5.42-14.47-2.38-4.57,4.06-4.43,9.33.39,14.27,1.74,1.78,3.4,3.67,5.31,5.24,2.45,2.01,2.55,3.43.15,5.83-3.29,3.29-7.82,5.74-8.78,10.95l-1.15,1.15c-2.84,3.32-2.7,6.89.5,9.46,2.49,2,5.91,3.13,8.66-.32.33-.1.66-.21,1-.31,1.85.31,3.3-.26,5.05-1.12,3.38-1.67,4.68-4.99,6.98-7.45,2.67-2.86,4.4-2.18,6.12.46,1.82,2.78,3.88,5.14,6.81,6.87,4.36,2.56,9.62,1.96,12.73-1.79,2.3-2.77,1.76-8.5-1.12-11.73-.44-.49-.95-.93-1.42-1.4q-7.63-7.69-.17-15.23c1.21-1.23,3.15-2.06,2.99-4.28.33-.11.66-.21.99-.32,5.02-.58,7.92-3.8,10.02-8.02Z" fill="#0144fe" stroke-width="0"/><path d="m549.89,821.3c-10.03,1.5-17.98-8.23-13.98-17.13,2.04-4.54,6.14-7.79,11.19-7.85,15.47-.15,30.29-10.33,34.73-27.78.75-2.96.36-6.1,1.03-9.2,1.92-8.98,7.69-10.91,15.66-9.95,5.6.67,9,7.66,8.66,13.96-.42,7.89-1.79,15.27-4.99,22.54-7.7,17.49-20.97,28.27-39.07,33.35-4.33,1.22-8.76,2.54-13.23,2.05Z" stroke-width="0"/><path d="m606.85,515.42c-2.47-7.8-.11-14.38,6.12-17.03,9.41,2.17,15.96,8.09,21,16-.62,6-4.82,8.51-9.91,10.16l-.26-.28c-.35-3.82-2.31-6.86-4.94-9.43-3.77-3.67-8.49-3.35-12.01.59Z" fill="#e58080" stroke-width="0"/><path d="m434.03,516.19c-2.1,4.22-5.01,7.44-10.02,8.02,1.06-8.88-2.82-13.02-11.02-11.84-2.39.35-3.85,2.35-5.97,3.13-2.81-6.63-.34-12.04,3.92-17.04,10.52,2.23,18.13,8.26,23.1,17.73Z" fill="#80a2fe" stroke-width="0"/><path d="m624.07,524.54c1.98,10.12-4.16,16.71-10.13,23.38-2.53,2.82-5.14,5.59-7.47,8.57-4.37,5.59-8.53,5.52-13.12-.18-5.06-6.27-10.56-12.19-15.38-18.63-4.54-6.07-2.25-18.75,3.73-23.46,4.07-3.21,8.12-2.25,11.75,1.8,2.16,2.4,3.27,6.82,6.54,6.92,3.31.09,3.61-5.22,6.83-6.55,3.48,7.34,9.7,8.75,16.99,7.87l.26.28Z" stroke-width="0"/><path d="m623.81,524.25c-7.29.88-13.51-.53-16.99-7.87.12-.32.14-.64.04-.96,3.52-3.94,8.24-4.26,12.01-.59,2.63,2.56,4.59,5.6,4.94,9.43Z" fill="gray" stroke-width="0"/><path d="m585.99,557.4c-.22,2.71-2.08,4.98-6.14,4.95-4.07-.04-6.52-2.05-6.83-6.19-.28-3.81,2.43-6.66,6.25-6.78,4-.13,6.66,2.6,6.72,8.02Z" fill="#e58080" stroke-width="0"/><path d="m376.03,550.22c.95-5.21,5.49-7.65,8.78-10.95,2.4-2.41,2.3-3.82-.15-5.83-1.91-1.57-3.57-3.46-5.31-5.24-4.82-4.93-4.95-10.21-.39-14.27,3.42-3.04,11.07-1.78,14.47,2.38q6.07,7.43,12.61.59c.22-.23.55-.35.82-.52,3.2,7.05,9.25,8.44,16.15,8.15.16,2.23-1.78,3.05-2.99,4.28q-7.44,7.57.17,15.23c.47.47.98.9,1.42,1.4,2.88,3.23,3.42,8.96,1.12,11.73-3.12,3.75-8.38,4.35-12.73,1.79-2.93-1.72-5-4.08-6.81-6.87-1.72-2.64-3.45-3.33-6.12-.46-2.29,2.46-3.6,5.78-6.98,7.45-1.75.87-3.2,1.43-5.05,1.12,1.84-3.22,1.51-6.47-.89-9.01-2.17-2.3-5.18-2.45-8.11-.98Z" stroke-width="0"/><path d="m423.01,524.53c-6.9.29-12.96-1.1-16.15-8.15.09-.28.14-.57.15-.87,2.12-.78,3.58-2.78,5.97-3.13,8.2-1.18,12.08,2.95,11.02,11.84-.33.11-.66.21-.99.32Z" fill="gray" stroke-width="0"/><path d="m376.03,550.22c2.93-1.47,5.94-1.32,8.11.98,2.4,2.54,2.73,5.79.89,9.01-.33.1-.66.21-1,.31-6.25.15-7.55-4.66-9.16-9.15l1.15-1.15Z" fill="gray" stroke-width="0"/><path d="m374.87,551.37c1.61,4.49,2.91,9.3,9.16,9.15-2.76,3.44-6.17,2.32-8.66.32-3.2-2.57-3.34-6.14-.5-9.46Z" fill="#80a1fe" stroke-width="0"/></svg>