<svg id="rw-rabbit-talks-happy" class="icon" xmlns="http://www.w3.org/2000/svg" xml:space="preserve" viewBox="0 0 953.48 967.18" preserveAspectRatio="xMidYMid meet" enable-background="new 0 0 953.48 967.18" role="img" aria-hidden="true" aria-labelledby=" " focusable="false" style="pointer-events: none; display: block; width: 100%; height: 100%;"><path d="m927.51,588.19h-23.34c9.97-2.87,17.11-9.37,19.94-18.86,3.23-10.78,2.93-21.98-6.12-30.96-86.2-85.49-171.2-172.18-257.99-257.08-36.09-35.3-71.47-71.33-107.14-107.05-1.23-1.23-2.15-2.75-3.21-4.13-1.13,2.78-1.06,4.72-1.15,6.66-.51,10.9,1.6,21.96-1.07,32.68-5.45,21.93-19.33,36.3-40.07,45.2-13.33,5.73-26.95,4.26-40.6,4.76-.49.02-1,.01-1.48-.1-17.24-3.95-32.67-10.92-43.84-25.43-7.58-9.85-12.65-20.6-12.86-33.19-.18-10.59-.04-21.19-.04-32.99-13.67,14.83-27.95,27.39-41.52,40.71-20.06,19.67-39.48,39.97-59.97,59.23-24.83,23.35-47.99,48.42-72.84,71.8-23.97,22.57-46.41,46.71-70.33,69.37-25.71,24.35-49.95,50.23-75.66,74.63-17.88,16.97-34.79,34.96-52.48,52.13-7.2,6.99-10.2,14.73-10.36,24.79-.18,11.84,8.92,23.25,20.22,27.41h-22.41c-14.33-17.18-14.83-43.35,2.37-59.85,13.78-13.22,26.97-27.03,40.9-40.13,24.23-22.78,46.85-47.21,71.08-70.02,24.22-22.8,46.83-47.24,71.06-70.06,24.45-23.03,47.55-47.45,71.71-70.8,39.61-38.29,78.38-77.44,117.49-116.23,10.25-10.16,20.24-20.59,31.18-30.03.22.29.43.58.64.87-7.43,20.36-9.29,41.49-9.14,62.98.13,18.58,7.9,32.81,23.29,42.92,16.82,11.05,35.05,12.78,54.07,7.22,17.75-5.19,31.01-16.22,36.31-33.99,5.3-17.76,2.24-36.14-.14-54.22-1.03-7.82-3.58-15.3-5.57-22.91.22-.28.44-.57.66-.85,1.1,1.05,2.21,2.08,3.29,3.15,80.28,79.63,159.53,160.29,240.27,239.46,51.76,50.74,102.62,102.39,153.83,153.69,7.62,7.63,11.56,17.01,11.95,27.82.43,11.79-3.32,22.19-10.93,31.4Z" fill="#fefefe" stroke-width="0"/><path d="m896.65,589.27c-3.96.11-8.03-.22-12.38.37,4.18,3.43,7.95,6.59,11.78,9.67,12.97,10.42,25.17,21.58,36.18,34.14,8.01,9.13,14.84,18.67,18.34,30.43,6.26,21.03,2.68,39.52-13.9,54.64-6.08,5.55-13.41,9.22-21.63,9.67-7.75.42-10.31,6.58-14.03,11.23-8.99,11.25-17.16,23.29-28.1,32.74-13.96,12.06-26.42,25.83-42.31,35.71-12.64,7.85-25.9,13.46-40.65,15.47-16.57,2.25-32.9,1.63-48.84-3.98-1.63-.57-2.75-1.41-4.53,1.06-9.07,12.66-19.44,24.34-30.43,35.31-5.52,5.51-10.95,11.35-17.39,16.02-2.72,1.97-4.96,4.84-6.82,7.69-12.66,19.31-26.45,37.83-39.43,56.91-4.25,6.24-8.07,12.77-12.05,19.19-5.59,9.01-18.4,14.1-29.75,10.5-10.45-3.32-17.64-13.41-17.23-24.26.1-2.72-.37-5.48,1.6-8.83-14.16,4.93-27.54,8.65-41.13,11.59-9.51,2.06-19.11,3.41-28.72,4.86-19.12,2.89-38.34,2.04-57.5,1.78-18.25-.25-36.28-3.11-54.07-7.27-12.03-2.81-24.06-5.65-35.53-10.38-1.49-.61-2.57,0-3.43,1.15-8.22,10.89-19.26,15.68-32.79,15.67-73.98-.07-147.96.05-221.94-.09-17.37-.03-35.22-14.69-37.54-33.62-1.52-12.37,2.18-22.44,9.92-31.61,1.74-2.06,3.7-2.79,6.43-2.76,13.14.14,26.29.07,40.22.07-9.81-20.06-19.26-39.39-28.7-58.73-11.57-23.7-23.28-47.33-34.58-71.16-3.03-6.38-6.27-12.67-9.06-19.16-1.27-2.96-2.94-3.94-6.25-4.05-13.62-.44-27.16,1.17-40.75,1.12-7.5-.03-8.5-1.55-9.15-8.72-1.76-19.34,15.84-37.43,34.24-39.44,3.93-.43,7.82-.82,11.74-.82,27.16-.03,54.32-.19,81.48.09,8.13.08,16.14-1.32,24.25-1.13,1.12.03,2.41.59,1.97-1.94-3.25-18.39-4.04-36.95-3.63-55.6.21-9.76-.34-19.54,1.06-29.24.53-3.67-1.01-4.26-4.37-4.25-30.82.13-61.65-.09-92.48.15-15.07.12-29.62-14.14-29.39-29.07.16-10.06,3.16-17.81,10.36-24.79,17.7-17.17,34.6-35.17,52.48-52.14,25.71-24.4,49.95-50.27,75.66-74.63,23.92-22.66,46.36-46.8,70.33-69.36,24.84-23.38,48-48.45,72.84-71.8,20.49-19.26,39.91-39.56,59.96-59.24,13.57-13.31,27.86-25.87,41.53-40.7,0,11.8-.14,22.39.04,32.98.21,12.6,5.28,23.35,12.86,33.19,11.17,14.51,26.6,21.48,43.84,25.43.48.11.99.12,1.48.1,13.65-.5,27.27.97,40.6-4.76,20.73-8.91,34.61-23.28,40.07-45.21,2.67-10.72.56-21.78,1.07-32.68.09-1.94.01-3.88,1.14-6.66,1.06,1.38,1.99,2.91,3.21,4.13,35.68,35.72,71.06,71.75,107.14,107.05,86.79,84.9,171.79,171.59,257.99,257.08,9.05,8.98,9.35,20.18,6.13,30.96-2.93,9.81-10.45,16.42-20.97,19.12" stroke-width="0"/><path d="m927.51,588.19c7.61-9.22,11.35-19.61,10.93-31.4-.39-10.81-4.33-20.19-11.95-27.82-51.21-51.3-102.07-102.95-153.83-153.69-80.75-79.17-159.99-159.83-240.28-239.46-1.08-1.07-2.19-2.1-3.29-3.15-.45-.3-.9-.61-1.36-.91-.38.83-.27,1.46.7,1.76,1.99,7.61,4.54,15.09,5.57,22.91,2.38,18.08,5.44,36.46.14,54.22-5.3,17.77-18.56,28.79-36.31,33.99-19.02,5.57-37.25,3.83-54.07-7.22-15.39-10.11-23.16-24.34-23.29-42.93-.15-21.49,1.71-42.62,9.14-62.98.96-.29,1.06-.93.71-1.75-.45.29-.9.59-1.34.88-10.95,9.44-20.94,19.87-31.18,30.03-39.11,38.79-77.88,77.95-117.49,116.23-24.16,23.36-47.27,47.78-71.72,70.8-24.23,22.82-46.84,47.26-71.05,70.06-24.23,22.81-46.85,47.25-71.08,70.03-13.93,13.1-27.12,26.91-40.9,40.13-17.2,16.49-16.7,42.67-2.37,59.84-9.35,1.66-19.15-4.45-21.31-13.9-3.75-16.41-2.23-32.14,7.76-46.26,6.3-8.91,14.03-16.54,22.51-23.4,1.16-.94,2.18-2.05,3.24-3.11,20.03-20.03,39.71-40.43,60.19-59.98,19.37-18.49,37.88-37.83,57.33-56.2,4.23-3.99,4.28-7.96,3.55-12.4-1.38-8.38-1.93-16.84-2.96-25.24-4.44-36.34-2.99-72.83-2.67-109.25.14-15.99,1.66-32.05,3.48-48.04,1.36-11.99,2.59-24.02,4.45-35.92,2.32-14.8,5.45-29.51,9.09-44.05,4.72-18.83,10.93-37.25,19.46-54.72,7.44-15.22,16.34-29.59,29.07-41.11,12.12-10.97,26.48-16.16,42.66-13.5,10.1,1.66,18.92,7.18,26.43,14.25,16.53,15.54,26.58,35.21,35.06,55.83,6.79,16.51,11.71,33.65,15.55,51.02,2.61,11.82,5.08,23.71,6.61,35.79,1.35,10.66,3.51,21.21,3.82,31.99.03,1.11.32,2.12,1.25,2.4.49.15,1.31-.73,1.94-1.21.4-.3.71-.7,1.07-1.05,24.51-24.18,48.9-48.48,73.62-72.44,5.69-5.51,11.64-10.78,17.19-16.45,1.18-1.2,2.48-1.74,3.99-1.27,1.83.57,1.07,2.36.88,3.38-1.51,8.05-3.88,15.89-6.53,23.62-2.74,7.97-4.01,16.21-5.55,24.46-1.74,9.32-.23,18.66-1.56,28.01-2.1,14.72,9.15,31.49,24.68,37.78,17.22,6.98,34.22,6.21,49.79-4.47,10.09-6.91,16.71-16.32,16.28-29.42-.21-6.49.09-13-.06-19.49-.34-14.36-3.01-28.24-8.12-41.74-2.19-5.8-4.39-11.77-4.81-18.1-.07-1.01-.72-2.53.79-2.99,1.21-.36,2.62-.46,3.63.82.62.77,1.39,1.42,2.1,2.12,10.75,10.74,21.44,21.55,32.26,32.22,21.19,20.89,42.45,41.71,63.84,62.72,5.39-9.25,11.21-18.06,19.06-25.27,13.51-12.4,29.28-20.44,47.34-23.7,6.91-1.25,13.92-2.3,20.97-2.02,24.35.97,46.85,7.98,67.89,20.32,16.34,9.59,30.87,21.36,43.81,35.05,11.62,12.3,21.5,26.02,31.3,39.81,17.5,24.61,33.5,50.06,46.16,77.51,7.83,16.97,14.39,34.35,16.79,53.09,1.59,12.46,2.08,24.82-2.39,36.79-5.16,13.8-15.4,21.91-29.57,25.34-7.06,1.71-14.2,2.39-21.83,1.88.54,2.11,2.17,3.05,3.36,4.19,25.79,24.54,50.74,49.93,76.01,75,8.83,8.75,15.41,18.73,17.91,31,2.04,10.03,1.25,20.06-1.98,29.72-2.17,6.46-11.85,11.38-20.51,11.01" stroke-width="0"/><path d="m762.54,536.32c-10.11-.17-17.45,4.89-24.22,10.2-12.02,9.43-20.85,21.51-24.75,36.5-3.08,11.85-1.39,23.24,5.66,33.52.8,1.16,1.35,1.65.42,3.28-9.35,16.52-17.1,33.76-23.2,51.76-3.91,11.53-8.51,22.86-11.37,34.7-6.68,27.63-3.61,53.98,11.58,78.41,1.1,1.76,1.62,2.46-.09,4.18-5.89,5.97-5.36,13.66-5.03,21.19.05,1.23.62,2.12-.56,3.37-6.76,7.2-13.39,14.53-19.99,21.87-14.51,16.13-29.05,32.24-43.44,48.48-5.69,6.43-13.29,9.87-20.72,13.3-12.34,5.7-24.82,11.25-37.88,15.18-16.05,4.84-32.32,8.53-48.93,11.25-22.23,3.63-44.54,3.43-66.75,2.49-22.14-.93-43.97-5.38-65.21-12-1.42-.44-2.85-.52-4.24-.97-5.95-1.94-10.81-3.73-13.47-11.09-6.76-18.65-15.05-36.75-22.92-54.99-7.05-16.34-14.44-32.53-21.52-48.86-7.89-18.23-15.29-36.68-23.48-54.77-6.94-15.32-11.91-31.62-21.01-45.84-7.1-11.09-17.87-17.04-31.31-17.11-22.16-.11-44.32-.06-66.48,0-2.51,0-3.79-.07-4.37-3.37-1.12-6.41-1.44-12.92-2.71-19.28-1.98-9.91-1.66-20.11-1.45-29.95.27-12.85.13-25.85,2.24-38.75,2.09-12.78,3.9-25.55,7.19-38.1,4.81-18.35,11-36.18,19.34-53.23,2.5-5.1,5.21-10.14,4.64-16.04-.21-2.19,1.4-2.57,2.49-3.06,13.45-6.11,27.38-10.92,41.51-15.2,17.58-5.33,35.5-9.24,53.52-12.67,11.79-2.25,23.73-3.66,35.63-5.31,10.32-1.43,20.65-2.78,31-3.94,4.23-.47,8.53-.67,12.76-.87,8.08-.38,16.2-.81,24.23-1.41,33.49-2.51,67-1.9,100.5-1.63,13.82.11,27.66,1.28,41.5,1.93,11.11.52,22.22,1.54,33.25,2.99,15.93,2.09,31.87,4.05,47.75,6.67,19.3,3.18,38.33,7.4,57.19,12.36,16.74,4.4,33.09,10.14,49.05,16.93,2.39,1.01,3.98,2.33,3.72,5.52-.33,4.1,1.61,7.86,3.43,11.41,5.87,11.45,10.26,23.48,14.75,35.5.65,1.73.08,3.69,1.79,5.47Z" fill="#fefefe" stroke-width="0"/><path d="m69.91,729.33c10.48,0,20.64-.16,30.8.03,35.75.66,71.47-1.59,107.22-1.05,5.56.08,8.17-2.17,7.52-7.73-1.74-14.87,14.82-27.97,28.02-27.47,8.64.32,16.46,1.42,23.12,7.23,3.73,3.26,6.03,7.52,7.93,11.95,8.81,20.49,17.4,41.08,26.25,61.55,7.07,16.37,14.51,32.58,21.57,48.95,8.9,20.63,17.5,41.39,26.43,62.01,3,6.92,6.23,13.74,8.85,20.83,3.37,9.12.6,19.6-7.1,25.16-12.86,9.3-28.12,9.44-40.13-1.37-9.38-8.45-10.95-22.31-3.09-32.62,2.04-2.67,6.1-4.72,4.86-9.42-.94-3.55-2.98-5.14-6.57-5.09-4.5.06-9,.01-13.49.01-47.65,0-95.3-.06-142.95.09-4.43.01-6.24-1.23-8.01-5.57-3.83-9.38-9.13-18.15-13.49-27.33-11.76-24.74-24.1-49.19-35.82-73.94-7.22-15.26-15.69-29.93-21.92-46.22Z" fill="#fcf0d7" stroke-width="0"/><path d="m892.06,727.87c-5.41,6.91-10.12,13.75-15.64,19.85-16.45,18.2-34.13,35.13-54.62,48.79-12.23,8.16-25.71,12.63-40.56,13.97-22.15,2-41.67-4.14-58.62-17.78-13.48-10.85-21.36-25.57-25.2-42.56-4.95-21.93,1-42.19,8.24-62.52,6.59-18.51,13.41-36.86,22.72-54.23,2.05-3.83,2.31-4.37,5.64-.47,6.31,7.39,13.69,13.94,21.03,20.38,14.72,12.92,30.53,24.46,46.99,35.04,22.58,14.5,45.82,27.73,71.89,35.17,5.73,1.63,11.45,3.25,18.13,4.35Z" fill="#d7aa73" stroke-width="0"/><path d="m292.21,895.3c-4.72,14.93-4.16,28.76,6.38,40.96-.85,1.78-2.39.99-3.54.99-61.15.04-122.3.36-183.45-.17-16.12-.14-25.48-11.74-26.77-25.64-.47-5.09,1.74-10.41,4.98-14.86,1.06-1.45,2.54-1.29,4.03-1.28,65.98,0,131.96,0,198.37,0Z" fill="#fcf0d7" stroke-width="0"/><path d="m211.72,693.28c-4.4,6.75-8.55,13.09-9.17,20.88-.09,1.19-.95,1.13-1.76,1.17-.67.03-1.33,0-2,.01-56.39,1.32-112.78.98-169.17.93-4.48,0-8.74,1.58-13.26,1.14-2.36-.23-3.3-.43-2.27-3.15,3.85-10.22,11.12-16.34,21.62-18.94,4.88-1.21,9.8-.96,14.73-.96,27.99-.02,55.99.7,83.95-.22,25.56-.83,51.09-.45,77.34-.85Z" fill="#fcf0d7" stroke-width="0"/><path d="m928.04,707.37c-11.15,8.98-22.86,9.28-34.82,6.81-18.36-3.78-35.82-10.35-52.31-19.15-21.09-11.26-41.01-24.44-60.09-38.85-11.44-8.64-22.29-18.08-32.06-28.45-7.36-7.81-16.3-14.53-20.98-24.68-3.89-8.43-1.15-16.07,2.75-24.85,3.43,12.77,9.96,22.23,17.41,31.37,4.76,5.84,9.04,12.07,14.54,17.27,19.54,18.45,40.76,34.67,63.82,48.51,15.04,9.02,30.16,17.86,46.63,24.09,13.25,5,26.65,9.59,41,9.8,4.31.06,8.64-1.1,14.12-1.86Z" fill="#d7aa73" stroke-width="0"/><path d="m597.5,940.92c-.67-3.65,1.83-6.43,4.01-8.97,6.47-7.53,12.96-15.1,20.03-22.06,15.85-15.62,30.38-32.46,45.51-48.74,10.69-11.51,20.9-23.46,31.35-35.19.72-.81,1.57-2.18,2.85-1.16,1.74,1.38.2,2.69-.59,3.76-18.77,25.25-35.75,51.76-54.14,77.28-9.82,13.63-19.13,27.61-28.02,41.88-2.86,4.59-8.6,6.63-12.79,5.19-5.25-1.81-8.22-6.04-8.2-11.99Z" fill="#845106" stroke-width="0"/><path d="m912.59,695.44c-8.97-.46-17.62-3.83-26.4-6.75-27.16-9.03-50.86-24.46-74.07-40.58-17.88-12.41-34.47-26.59-49.03-42.83-8.09-9.02-15.85-18.22-19-30.81-2.09-8.37,5.91-20.55,13.01-23.21,8.67-3.24,17-1.7,25.41.61,24.83,6.81,47.26,18.58,68.7,32.62,17.52,11.48,34.36,23.7,49.92,37.81,11.64,10.56,22.64,21.53,31.36,34.64,3.09,4.64,4.92,9.88,5.87,15.32,1.38,7.91-4.16,15.48-10.43,19.15-4.6,2.69-9.62,3.82-15.35,4.01Z" fill="#d7aa73" stroke-width="0"/><path d="m714.67,816.04c-6.56.05-12.48-9.83-9.39-16.3.93-1.95,1.62-2.82,3.33-.81,3.44,4.04,7.98,6.79,12.05,10.08,3.34,2.69,3.16,3.79-.94,5.55-1.46.63-3.07.91-5.06,1.48Z" fill="#d7aa73" stroke-width="0"/><path d="m179.97,358.28c-2.58-14.96-2.41-29.74-4.36-44.33-.15-1.15-.03-2.33-.03-3.5,0-21.99-.38-43.99.12-65.97.39-17.1,1.2-34.24,3.04-51.24,2.87-26.54,6.73-52.99,13.87-78.8,6.48-23.4,13.86-46.46,27.94-66.69,4.83-6.94,10.03-13.37,17.08-18.48,7.15-5.19,19.91-5.04,27.57,1.2,12.56,10.22,20.57,23.68,27.21,37.91,8.91,19.08,14.92,39.23,19.46,59.79,2.68,12.16,4.82,24.41,6.81,36.71,2.08,12.88,2.69,25.9,4.8,38.76.67,4.04-.09,8.18.41,12.32.18,1.48-2.61,3.63-4.42,4.97-7.11,5.27-12.8,12-19.03,18.17-16.94,16.76-33.3,34.11-50.67,50.4-23.76,22.28-46.01,46.06-69.79,68.78Z" fill="#fefefe" stroke-width="0"/><path d="m882.44,387.89c.56,4.67.09,10.37-2.61,15.57-3.59,6.91-10.58,8.22-17.24,8.81-15.04,1.35-29.15-3.4-43.19-7.96-1.15-.37-2.08-1.57-3-2.49-60.43-60.41-120.83-120.85-181.33-181.19-2.54-2.53-3.1-4.59-1.45-7.68,11.58-21.58,28.83-35.66,53.38-39.42,19.28-2.95,37.69.97,55.34,8.89,16.76,7.53,31.33,18.08,44.63,30.78,13.51,12.89,24.66,27.58,35.45,42.65,17.29,24.13,32.86,49.26,45.32,76.25,6.75,14.63,11.9,29.79,14.64,45.69.5,2.91.07,5.98.07,10.09Z" fill="#fefefe" stroke-width="0"/><path d="m474.73,831.33c-18.29.27-34.84-7.23-49.92-18.38-6.25-4.62-12.69-9.19-17.12-15.93-10.01-15.25-.11-34.41,15.41-36.99,5.94-.99,11.44.24,16.96.69,4.77.39,9.71.61,14.56,1.38,13.88,2.21,27.95,1.41,41.92.18,8.43-.74,16.8-2.42,25.23-2.82,8.98-.43,16.67,3.12,21.66,10.83,5.57,8.61,5.56,17.75.08,26.37-5.82,9.16-14.96,14.87-23.71,20.76-13.27,8.92-27.92,13.92-45.08,13.91Z" stroke-width="0"/><path d="m475.52,628.35c14.5,0,28.99,0,43.49,0,5.76,0,9.97,2.78,11.11,8.18,1.21,5.73.82,11.1-3.92,15.8-11.79,11.68-23.23,23.7-34.76,35.64-2.39,2.47-4.36,5.36-6.84,7.73-5.73,5.48-14.25,4.77-18.67-1.71-1.33-1.95-2.88-3.56-4.46-5.2-12.01-12.4-24.05-24.77-36.1-37.14-7.01-7.2-6.53-16.13-.95-20.78,2.13-1.78,4.33-2.6,7.12-2.58,14.66.09,29.32.04,43.99.04Z" stroke-width="0"/><path d="m387.03,466.38c9.49,0,18.97-.02,28.46,0,6.32.02,10.04,3.73,10.05,9.96,0,6.27-3.68,10.01-9.98,10.02-18.31.02-36.63-.46-54.92.16-14.4.49-25.88,7.02-32.78,20.21-1.57,3-2.31,6.33-2.31,9.79.02,13.15.02,26.3,0,39.44,0,6.79-3.56,10.42-10.11,10.4-6.43-.02-9.88-3.72-9.88-10.63,0-13.98-.26-27.97.08-41.94.25-10.12,4.09-19.04,10.74-26.79,12.84-14.97,29.46-20.79,48.68-20.63,7.32.06,14.65,0,21.97,0Z" stroke-width="0"/><path d="m563.91,466.38c9.15,0,18.33-.37,27.46.09,13.87.7,26.42,5.04,37.15,14.35,11.76,10.2,17.4,22.79,17.03,38.36-.29,12.31-.05,24.63-.06,36.95,0,6.64-3.69,10.29-10.27,10.24-6.16-.05-9.71-3.79-9.72-10.29-.01-12.32-.32-24.64.08-36.94.46-14.3-9.45-24.98-21.46-29.7-5.93-2.33-12.14-3.18-18.58-3.11-16.64.18-33.29.07-49.93.05-6.39,0-10.08-3.67-10.1-9.91-.02-6.29,3.66-10.05,9.93-10.07,9.49-.03,18.97,0,28.46,0Z" stroke-width="0"/><path d="m609.48,514.38c10.33,13.76,8.07,41.97-9.82,54.75-20.07,14.35-54.5,7.55-62.36-19.49-7.23-24.86,4.84-47.73,30.15-52.92,6.69-1.37,14.28-1.89,21.05,1.67-6.24,2.65-8.63,9.56-6.15,17.8-3.04,1.58-3.6,6.75-6.75,6.7-3.45-.05-4.62-4.7-6.84-7.24-3.37-3.83-7.84-4.6-11.85-1.16-5.92,5.06-7.76,17.24-3.14,23.52,4.18,5.68,8.65,11.2,13.41,16.4,7.84,8.56,8.71,8.44,16.84-.1,2.04-2.14,3.83-4.52,5.79-6.74,5.82-6.6,11.81-13.12,9.74-23.05,5.09-1.64,9.35-4.1,9.93-10.15Z" fill="#cb0000" stroke-width="0"/><path d="m409.5,516.21c5.39,6.71,6.5,14.78,5.89,22.79-1.36,17.91-13.04,30.88-28.36,35.65-22.14,6.89-45.32-7.31-50.52-29.1-5.22-21.9,9.05-43.93,31.29-48.33,6.48-1.28,12.61-1.04,18.73,1.28-4.89,5.08-6.38,10.96-4.15,17.71-.37.32-.79.61-1.12.97q-6.11,6.85-12.28-.82c-3.36-4.17-11.05-5.48-14.48-2.47-4.6,4.05-4.48,9.35.33,14.28,1.39,1.43,2.68,2.99,4.26,4.19,3.5,2.67,3.75,4.82.19,7.97-3.08,2.73-7.09,5.07-7.64,9.88-.33.29-.67.58-1,.87-2.96,3.14-3.06,6.74-.07,9.48,2.53,2.32,6.01,3.38,8.98-.04.33-.1.66-.21,1-.31,1.85.31,3.3-.26,5.05-1.13,3.38-1.68,4.68-4.99,6.98-7.45,2.67-2.87,4.41-2.16,6.12.47,1.82,2.79,3.9,5.13,6.81,6.87,3.39,2.02,9.86,2.45,12.79-1.78,2.04-2.95,1.74-8.58-1.2-11.76-1.91-2.07-3.84-4.16-6.02-5.94-2.63-2.15-2.8-3.71-.16-6.19,2.82-2.66,6.34-4.85,7.78-8.78,5.18-.72,8.64-3.67,10.79-8.32Z" fill="#0144fe" stroke-width="0"/><path d="m609.48,514.38c-.59,6.05-4.84,8.51-9.93,10.15-7.08,0-13.83-.67-17.19-8.33-2.48-8.24-.1-15.15,6.15-17.8,9.4,2.16,15.96,8.07,20.98,15.99Z" fill="#ca8080" stroke-width="0"/><path d="m382.39,516.2c-2.23-6.75-.74-12.63,4.15-17.71,10.4,2.34,18.06,8.24,22.97,17.71-2.15,4.65-5.61,7.6-10.79,8.32-6.86.02-13.08-1.24-16.32-8.32Z" fill="#8097d6" stroke-width="0"/><path d="m768.33,554.3c13.97.2,26.65,5.33,39.21,10.66,18.28,7.76,35.52,17.57,52,28.54,13.03,8.68,25.48,18.2,37.3,28.56,11.57,10.15,22.25,20.96,30.69,33.87,4.32,6.61,6.78,13.67,5.97,21.76-.66,6.58-7.19,12.26-14.55,12.68-14.82.85-28.25-4.34-41.53-9.66-27.8-11.14-52.53-27.58-76.42-45.35-11.24-8.36-21.85-17.49-31.48-27.63-8.63-9.09-17.19-18.38-20.41-31.15-2.29-9.06-.82-17.1,6.72-20.35,4.04-1.74,8.19-2.08,12.51-1.94Z" stroke-width="0"/><path d="m430.43,777.32c18.93,2.43,37.93,3.72,57,2.9,9.71-.41,19.41-1.38,29.08-2.61,4.34-.55,9.84-2.29,12.51,3.16,2.5,5.1-1.59,8.15-4.75,11.37-3.49,3.56-6.28,5.35-11.66,1.98-12.77-8-27.25-11.28-42.23-10.66-13.2.54-26.42,2.03-38.49,8.22-2.24,1.15-3.89,1.82-6.07-.44-2.77-2.87-5.53-5.6-4.04-9.89,1.01-2.91,3.39-4.42,6.67-4.04.66.08,1.33.01,2,.01Z" fill="#282828" stroke-width="0"/><path d="m442.55,803.41c20.91-6.54,41.07-7.5,61.2,2.63-14.2,9.6-41.9,11.23-61.2-2.63Z" fill="#cb0000" stroke-width="0"/><path d="m582.35,516.2c3.36,7.66,10.11,8.34,17.19,8.33,2.07,9.93-3.92,16.45-9.74,23.05-1.96,2.22-3.75,4.6-5.79,6.74-8.13,8.54-9,8.66-16.84.1-4.77-5.2-9.23-10.72-13.41-16.4-4.62-6.28-2.78-18.46,3.14-23.52,4.01-3.43,8.49-2.67,11.85,1.16,2.23,2.54,3.39,7.18,6.84,7.24,3.15.05,3.71-5.12,6.75-6.7Z" stroke-width="0"/><path d="m555.01,549.37c4.02,0,6.59,2.76,6.48,7.07-.09,3.75-2.07,5.78-5.83,5.91-4.33.15-7.1-2.38-7.14-6.41-.04-3.81,2.69-6.57,6.49-6.57Z" fill="#e58080" stroke-width="0"/><path d="m382.39,516.2c3.24,7.08,9.46,8.34,16.32,8.32-1.44,3.93-4.96,6.12-7.78,8.78-2.64,2.49-2.47,4.04.16,6.19,2.17,1.78,4.1,3.87,6.02,5.94,2.94,3.18,3.24,8.81,1.2,11.76-2.93,4.23-9.4,3.8-12.79,1.78-2.92-1.74-5-4.09-6.81-6.87-1.72-2.63-3.45-3.34-6.12-.47-2.29,2.46-3.6,5.78-6.98,7.45-1.75.87-3.2,1.43-5.05,1.13,1.84-3.2,1.51-6.45-.86-8.97-2.12-2.25-5.11-2.62-8.04-1.03.55-4.81,4.57-7.15,7.64-9.88,3.56-3.15,3.31-5.3-.19-7.97-1.57-1.2-2.86-2.77-4.26-4.19-4.81-4.93-4.93-10.23-.33-14.28,3.43-3.02,11.12-1.71,14.48,2.47q6.17,7.67,12.28.82c.33-.37.74-.65,1.12-.97Z" stroke-width="0"/><path d="m351.65,550.21c2.93-1.6,5.92-1.22,8.04,1.03,2.37,2.52,2.7,5.77.86,8.97-.33.1-.66.21-1,.31-6.33.03-7.78-4.55-8.91-9.44.33-.29.67-.58,1-.87Z" fill="#808081" stroke-width="0"/><path d="m350.65,551.08c1.13,4.88,2.58,9.46,8.91,9.44-2.97,3.43-6.45,2.37-8.98.04-2.99-2.74-2.89-6.34.07-9.48Z" fill="#80a1fe" stroke-width="0"/><path d="m895.75,640.03c-12.28,1.18-21.97,4.82-26.75,16.28-1.57,3.77-3.66,4.83-7.59,2.6-17.98-10.23-35.4-21.27-51.81-33.9-13-10-24.88-21.24-36.01-33.22-4.71-5.07-9.47-10.36-11.55-17.32-1.71-5.73-.72-6.81,5.28-7.16,11.39-.66,21.38,4,31.38,8.19,20.02,8.4,38.73,19.23,56.48,31.77,14.02,9.91,27.63,20.28,40.58,32.76Z" fill="#cb9e67" stroke-width="0"/><path d="m914.45,670.55c.01,6.75-1.03,7.59-8.9,5.79-10.19-2.32-19.92-6.01-29.48-10.14-4.06-1.75-4.87-4.56-2.43-8.24,3.89-5.87,8.99-10.55,15.96-12.12,7.61-1.71,13.86,1.98,18.83,7.2,4.11,4.32,6.18,9.94,6.03,17.5Z" fill="#c38e4d" stroke-width="0"/></svg>